<?xml version="1.0" standalone="no"?>
<!DOCTYPE svg PUBLIC "-//W3C//DTD SVG 1.1//EN" "http://www.w3.org/Graphics/SVG/1.1/DTD/svg11.dtd">
<svg width="128px" height="78px" version="1.1" xmlns="http://www.w3.org/2000/svg" xmlns:xlink="http://www.w3.org/1999/xlink" xml:space="preserve" style="fill-rule:evenodd;clip-rule:evenodd;stroke-linejoin:round;stroke-miterlimit:1.41421;">
    <g>
        <g id="Layer 1">
            <rect x="22.924" y="32.6832" width="2.954" height="18.063" style="fill:rgb(20,143,143);fill-rule:nonzero;"/>
            <rect x="30.3" y="51.3772" width="17.816" height="3.622" style="fill:rgb(20,143,143);fill-rule:nonzero;"/>
            <path d="M81.0166,30.7051C78.6826,33.7351 74.8826,40.4001 74.8826,40.4001C73.4616,41.4861 67.4596,46.2801 64.2206,51.9551C64.2516,53.5481 63.8666,54.8811 63.1986,55.9161L63.1986,47.6041C64.9536,45.1311 70.4716,38.4841 81.0166,30.7051" style="fill:rgb(20,143,143);fill-rule:nonzero;"/>
            <path d="M74.8477,0.4883C79.7017,0.5483 81.3687,5.1533 81.3687,5.1533C84.5097,12.1463 86.6507,17.2973 90.2437,25.2493L86.7397,26.8263C86.0767,25.2833 81.6557,15.5033 77.7077,5.9393C76.7227,4.2423 76.0107,4.0043 74.8497,4.0423" style="fill:rgb(20,143,143);fill-rule:nonzero;"/>
            <path d="M74.335,39.3115C75.923,36.1385 79.118,32.1415 81.036,30.7055C82.954,29.2685 84.478,28.2245 86.728,26.7535C86.718,26.7385 90.231,25.1785 90.246,25.2125C99.942,21.5145 108.898,23.1325 110.47,23.2205C114.875,23.8565 116.605,27.5065 112.785,27.3015C98.129,25.2485 92.181,29.2805 92.181,29.2805C92.181,29.2805 92.189,29.2965 92.192,29.3085L88.101,31.1785C88.094,31.1665 88.089,31.1565 88.082,31.1425C86.201,31.8695 83.523,34.3465 83.523,34.3465C83.523,34.3465 74.914,41.6635 76.112,53.4295C76.644,56.2905 73.445,57.5335 72.657,53.5075C72.232,50.2775 71.455,45.0745 74.335,39.3115" style="fill:rgb(46,44,38);fill-rule:nonzero;"/>
            <path d="M102.52,49.1953C102.424,49.0473 100.341,44.7353 95.1935,35.1333C97.7255,33.9793 100.531,33.3213 103.493,33.3213C114.581,33.3213 123.6,42.3413 123.6,53.4293C123.6,64.5153 114.576,73.5373 103.493,73.5373C92.4055,73.5373 83.3855,64.5133 83.3855,53.4293C83.3855,46.9123 86.5155,41.1293 91.3375,37.4513C96.4255,46.9223 99.9865,51.4653 100.394,52.0773M92.1925,29.3083L88.1005,31.1783C88.4735,31.9413 88.8535,32.6973 89.2285,33.4483C83.0005,37.9063 78.9055,45.1923 78.9055,53.4273C78.9055,66.9753 89.9335,78.0003 103.48,78.0003C117.029,78.0003 128.054,66.9753 128.054,53.4273C128.054,39.8773 117.032,28.8483 103.48,28.8483C99.7795,28.8483 96.2775,29.6983 93.1205,31.1693C92.8275,30.5833 92.2595,29.4413 92.1925,29.3083" style="fill:rgb(20,143,143);fill-rule:nonzero;"/>
            <path d="M31.9053,27.623C27.2163,26.251 15.8403,25.474 4.8153,35.936C1.9363,38.758 -1.1697,35.296 2.7893,31.508C12.8053,22.604 25.3523,20.937 33.3793,23.397C37.9813,24.796 40.4833,27.433 41.6143,28.93L35.0573,28.991C34.2033,28.477 33.1773,27.992 31.9053,27.623" style="fill:rgb(46,44,38);fill-rule:nonzero;"/>
            <path d="M4.5937,53.4072C4.5937,44.0122 11.8227,35.5252 20.6847,33.2252C20.4027,32.1942 20.2947,31.1652 21.1797,30.2792C24.4037,28.1312 28.0967,30.2072 28.9787,33.6362C37.1807,35.0292 43.7047,41.3842 45.3197,49.5052C49.0597,50.3442 49.8357,54.5812 47.6277,57.3432C47.0957,58.1402 45.9897,58.8212 44.9037,59.0402C42.4727,67.4052 34.7487,73.5372 25.6047,73.5372C14.5257,73.5372 4.5937,64.4942 4.5937,53.4072M39.8937,33.4782L44.6977,33.4782L54.0517,48.9652C53.5297,49.6112 53.1357,50.3672 52.9237,51.1942L50.0657,51.1942C49.4057,43.9002 45.5357,37.5292 39.8937,33.4782M1.0257,53.4292C1.0257,66.9782 12.0417,78.0022 25.5877,78.0022C38.3907,78.0022 48.9177,68.1662 50.0547,55.6592L53.6017,55.6592C54.6207,57.2982 56.4287,58.3952 58.4987,58.3952C60.4417,58.3952 62.1607,57.5142 63.1977,55.9162L63.1977,47.6042C62.6757,48.3412 62.4407,48.7482 62.4407,48.7482C62.1747,48.2762 61.8367,47.9182 60.9407,47.3762L62.4457,39.1442C62.4457,39.1442 62.7787,39.1402 63.1977,39.1402L63.1977,36.9152C61.3907,36.9202 58.6427,36.9222 58.5067,36.9092C58.1217,36.9812 57.3457,38.1932 58.5067,39.1442L60.1807,39.1442L58.7657,46.8542C58.6807,46.8452 58.5987,46.8242 58.5077,46.8242C58.3837,46.8242 58.2717,46.8542 58.1497,46.8622L38.6567,13.1362C38.6567,13.1362 39.7307,13.0672 40.3707,13.1362C42.1767,13.1342 44.0987,9.4852 40.3347,8.6712C39.2427,8.6712 26.3807,8.6402 25.6047,8.6712C24.1907,8.7692 22.0857,11.3302 25.6047,13.1342L33.5057,13.1342L42.6807,29.0022L41.6687,29.0022C41.6527,28.9792 41.6307,28.9532 41.6147,28.9292L35.0577,28.9912C35.0667,28.9972 35.0747,29.0022 35.0847,29.0062L28.2837,29.0062C27.4057,28.9152 26.5157,28.8552 25.6047,28.8552C12.0627,28.8552 1.0407,39.8792 1.0257,53.4292" style="fill:rgb(20,143,143);fill-rule:nonzero;"/>
            <path d="M100.645,53.4053C100.645,51.8143 101.934,50.5223 103.528,50.5223C105.119,50.5223 106.408,51.8143 106.408,53.4053C106.408,54.9993 105.119,56.2873 103.528,56.2873C101.934,56.2873 100.645,54.9993 100.645,53.4053M95.9215,53.4053C95.9215,57.6053 99.3275,61.0103 103.528,61.0103C107.726,61.0103 111.13,57.6053 111.13,53.4053C111.13,49.2063 107.726,45.8013 103.528,45.8013C99.3275,45.8013 95.9215,49.2063 95.9215,53.4053" style="fill:rgb(46,44,38);fill-rule:nonzero;"/>
            <path d="M16.7861,53.4053C16.7861,57.6053 20.1871,61.0103 24.3901,61.0103C28.5911,61.0103 31.9931,57.6053 31.9931,53.4053C31.9931,49.2063 28.5911,45.8013 24.3901,45.8013C20.1871,45.8013 16.7861,49.2063 16.7861,53.4053" style="fill:rgb(62,58,53);fill-rule:nonzero;"/>
            <path d="M22.7031,10.7314C22.7031,12.7264 24.8701,16.5944 28.8681,16.5944C32.8651,16.5944 37.4571,15.3204 39.7751,14.3414C42.0921,13.3664 43.3851,12.7264 43.3851,10.7314C43.3851,8.7394 41.7681,7.1224 39.7751,7.1224L26.3151,7.1224C24.3201,7.1224 22.7031,8.7394 22.7031,10.7314" style="fill:rgb(62,58,53);fill-rule:nonzero;"/>
            <path d="M65.7012,2.6855C65.7012,4.1655 66.9022,5.3705 68.3852,5.3705L75.7642,5.3705C77.2472,5.3705 78.4482,4.1655 78.4482,2.6855C78.4482,1.2025 77.2472,-0.0005 75.7642,-0.0005L68.3852,-0.0005C66.9022,-0.0005 65.7012,1.2025 65.7012,2.6855" style="fill:rgb(62,58,53);fill-rule:nonzero;"/>
            <path d="M57.3906,38.1435C57.3906,39.0185 58.1036,39.7285 58.9776,39.7285L63.6826,39.7285C64.5596,39.7285 65.2686,39.0185 65.2686,38.1435C65.2686,37.2665 64.5596,36.5545 63.6826,36.5545L58.9776,36.5545C58.1036,36.5545 57.3906,37.2665 57.3906,38.1435" style="fill:rgb(46,44,38);fill-rule:nonzero;"/>
            <path d="M51.374,52.6426C51.374,56.2066 54.264,59.0986 57.83,59.0986C61.394,59.0986 64.284,56.2066 64.284,52.6426C64.284,49.0776 61.394,46.1856 57.83,46.1856C54.264,46.1856 51.374,49.0776 51.374,52.6426" style="fill:rgb(62,58,53);fill-rule:nonzero;"/>
            <path d="M83.542,53.3515C83.542,64.3635 92.501,73.3235 103.513,73.3235C114.525,73.3235 123.483,64.3635 123.483,53.3515C123.483,42.3405 114.525,33.3815 103.513,33.3815C92.501,33.3815 83.542,42.3405 83.542,53.3515M78.291,53.3515C78.291,39.4455 89.605,28.1305 103.513,28.1305C117.421,28.1305 128.734,39.4455 128.734,53.3515C128.734,67.2605 117.421,78.5745 103.513,78.5745C89.605,78.5745 78.291,67.2605 78.291,53.3515" style="fill:rgb(62,58,53);fill-rule:nonzero;"/>
            <path d="M5.252,53.1885C5.252,64.1995 14.21,73.1585 25.221,73.1585C36.233,73.1585 45.19,64.1995 45.19,53.1885C45.19,42.1765 36.233,33.2195 25.221,33.2195C14.21,33.2195 5.252,42.1765 5.252,53.1885M0,53.1885C0,39.2795 11.314,27.9635 25.221,27.9635C39.129,27.9635 50.442,39.2795 50.442,53.1885C50.442,67.0945 39.129,78.4115 25.221,78.4115C11.314,78.4115 0,67.0945 0,53.1885" style="fill:rgb(62,58,53);fill-rule:nonzero;"/>
            <path d="M24.3906,43.7783C19.0826,43.7783 14.7616,48.0953 14.7616,53.4053C14.7616,58.7153 19.0826,63.0353 24.3906,63.0353C24.8016,63.0353 25.2176,63.0033 25.7016,62.9343L58.3756,60.3343C62.5306,60.2903 65.8936,56.8923 65.8936,52.7313C65.8936,48.5533 62.5066,45.1483 58.3326,45.1263L24.4696,43.7783ZM24.3906,45.8003L58.2906,47.1493C61.3716,47.1493 63.8706,49.6493 63.8706,52.7313C63.8706,55.8133 61.3716,58.3133 58.2906,58.3133L25.4766,60.9223C25.1206,60.9763 24.7596,61.0103 24.3906,61.0103C20.1876,61.0103 16.7866,57.6053 16.7866,53.4053C16.7866,49.2063 20.1876,45.8003 24.3906,45.8003" style="fill:rgb(46,44,38);fill-rule:nonzero;"/>
        </g>
    </g>
</svg>
