<?xml version="1.0" standalone="no"?>
<!DOCTYPE svg PUBLIC "-//W3C//DTD SVG 1.1//EN" "http://www.w3.org/Graphics/SVG/1.1/DTD/svg11.dtd">
<svg width="122px" height="122px" version="1.1" xmlns="http://www.w3.org/2000/svg" xmlns:xlink="http://www.w3.org/1999/xlink" xml:space="preserve" style="fill-rule:evenodd;clip-rule:evenodd;stroke-miterlimit:10;">
    <g>
        <g id="Layer 1">
            <path d="M121.727,61.4252C121.727,94.7292 94.7286,121.727 61.4256,121.727C28.1226,121.727 1.1246,94.7292 1.1246,61.4252C1.1246,28.1222 28.1226,1.1252 61.4256,1.1252C94.7286,1.1252 121.727,28.1222 121.727,61.4252Z" style="fill:none;stroke-width:2.25px;stroke:rgb(88,89,91);"/>
            <path d="M74.8691,27.603C76.2631,27.203 77.7281,28.001 78.1281,29.396C78.5401,30.789 77.7411,32.255 76.3481,32.653C74.9541,33.066 73.4881,32.266 73.0891,30.872C72.6771,29.466 73.4761,28.012 74.8691,27.603ZM63.4931,51.335C65.9401,51.832 68.5331,51.783 71.0901,51.032C79.4251,48.597 85.1421,42.202 82.7801,33.866C82.7801,33.624 82.7921,33.394 82.7801,33.186C82.7801,32.787 85.5911,27.699 85.5911,27.699L80.5261,27.795C78.2611,24.439 74.0101,22.767 69.9011,23.969C65.2011,25.336 62.3661,29.988 63.1301,34.714C60.8161,35.04 57.7141,32.168 53.7901,26.716C50.6761,33.792 52.7961,39.997 54.9291,41.947C51.9831,43.168 45.6141,43.098 42.6451,42.443C50.0091,51.105 56.8661,51.807 63.4931,51.335Z" style="fill:none;stroke-width:2.25px;stroke:rgb(88,89,91);"/>
            <path d="M50.3809,66.9145C48.9759,67.3255 47.5209,66.5265 47.1089,65.1215C46.6989,63.7265 47.5089,62.2725 48.9039,61.8595C50.2959,61.4605 51.7519,62.2605 52.1599,63.6525C52.5719,65.0485 51.7599,66.5135 50.3809,66.9145ZM56.8029,68.1255C56.8129,67.8825 56.8129,67.6515 56.8129,67.4355C56.8129,67.0465 59.6119,61.9465 59.6119,61.9465L54.5609,62.0555C52.2809,58.6995 48.0279,57.0275 43.9359,58.2265C39.2339,59.5975 36.3869,64.2495 37.1619,68.9615L37.1619,68.9735C34.8359,69.3005 31.7349,66.4295 27.8239,60.9635C24.6969,68.0535 26.8279,74.2555 28.9619,76.1935C26.0049,77.4175 19.6329,77.3565 16.6769,76.7025C24.0299,85.3525 30.8999,86.0665 37.5279,85.5815C39.9619,86.0915 42.5569,86.0425 45.1219,85.2915C53.4559,82.8565 59.1759,76.4605 56.8029,68.1255Z" style="fill:none;stroke-width:2.25px;stroke:rgb(88,89,91);"/>
            <path d="" style="fill:none;stroke-width:2.25px;stroke:rgb(88,89,91);"/>
            <path d="M95.1191,67.101C93.7251,67.512 92.2601,66.701 91.8601,65.308C91.4481,63.914 92.2481,62.449 93.6411,62.048C95.0341,61.637 96.5001,62.437 96.8991,63.842C97.3121,65.235 96.5131,66.701 95.1191,67.101ZM101.563,67.622C101.552,67.234 104.362,62.134 104.362,62.134L99.3111,62.243C97.0331,58.886 92.7811,57.215 88.6861,58.403C83.9861,59.783 81.1391,64.436 81.9141,69.149L81.9141,69.16C79.5881,69.488 76.4861,66.616 72.5731,61.153C69.4471,68.228 71.5791,74.442 73.7001,76.381C70.7571,77.604 64.3821,77.532 61.4261,76.889C68.7811,85.539 75.6511,86.254 82.2771,85.769C84.7131,86.279 87.3051,86.217 89.8731,85.479C98.1961,83.044 103.914,76.648 101.552,68.312C101.563,68.07 101.563,67.839 101.563,67.622Z" style="fill:none;stroke-width:2.25px;stroke:rgb(88,89,91);"/>
            <path d="" style="fill:none;stroke-width:2.25px;stroke:rgb(88,89,91);"/>
        </g>
    </g>
</svg>
