<?xml version="1.0" standalone="no"?>
<!DOCTYPE svg PUBLIC "-//W3C//DTD SVG 1.1//EN" "http://www.w3.org/Graphics/SVG/1.1/DTD/svg11.dtd">
<svg width="122px" height="122px" version="1.1" xmlns="http://www.w3.org/2000/svg" xmlns:xlink="http://www.w3.org/1999/xlink" xml:space="preserve" style="fill-rule:evenodd;clip-rule:evenodd;stroke-miterlimit:10;">
    <g>
        <g id="Layer 1">
            <path d="M121.727,61.4252C121.727,94.7292 94.7286,121.727 61.4256,121.727C28.1226,121.727 1.1246,94.7292 1.1246,61.4252C1.1246,28.1222 28.1226,1.1252 61.4256,1.1252C94.7286,1.1252 121.727,28.1222 121.727,61.4252Z" style="fill:none;stroke-width:2.25px;stroke:rgb(88,89,91);"/>
            <path d="M104.919,35.603C97.7055,34.014 90.4635,33.209 83.1685,33.209C76.0815,33.209 69.1955,33.975 62.6375,35.481C55.6085,33.975 48.4755,33.209 41.3735,33.209C34.0785,33.209 27.1735,34.018 20.4465,35.612L18.7315,36.074L18.7315,90.443L21.2175,90.248C28.1125,89.751 34.7185,89.499 41.5925,89.499C47.6905,89.499 52.7315,89.698 58.7315,90.089L58.7315,90.443C58.7315,90.443 59.3715,91.22 62.2265,91.22C65.0785,91.22 65.7315,90.443 65.7315,90.443L65.7315,90.089C72.7315,89.698 77.2785,89.499 83.3695,89.499C90.2455,89.499 97.1905,89.751 104.086,90.248L106.732,90.443L106.732,36.041L104.919,35.603Z" style="fill:none;stroke-width:2px;stroke:rgb(88,89,91);"/>
            <path d="M62.6855,35.4809L62.6915,91.2199" style="fill:none;stroke-width:2.47px;stroke:rgb(88,89,91);"/>
            <path d="M68.1904,42.977C68.1904,42.977 89.7804,37.487 101.492,42.977" style="fill:none;stroke-width:2.47px;stroke:rgb(88,89,91);"/>
            <path d="M68.1904,50.7631C68.1904,50.7631 89.7804,45.2741 101.492,50.7631" style="fill:none;stroke-width:2.47px;stroke:rgb(88,89,91);"/>
            <path d="M68.1904,58.5498C68.1904,58.5498 89.7804,53.0598 101.492,58.5498" style="fill:none;stroke-width:2.47px;stroke:rgb(88,89,91);"/>
            <path d="M68.1904,66.3364C68.1904,66.3364 89.7804,60.8464 101.492,66.3364" style="fill:none;stroke-width:2.47px;stroke:rgb(88,89,91);"/>
            <path d="M23.085,66.2138C23.085,66.2138 44.677,60.7248 56.387,66.2138" style="fill:none;stroke-width:2.47px;stroke:rgb(88,89,91);"/>
            <path d="M23.085,74.1225C23.085,74.1225 44.677,68.6335 56.387,74.1225" style="fill:none;stroke-width:2.47px;stroke:rgb(88,89,91);"/>
            <path d="M23.085,80.6889C23.085,80.6889 44.677,75.1999 56.387,80.6889" style="fill:none;stroke-width:2.47px;stroke:rgb(88,89,91);"/>
            <path d="M68.1904,74.1225C68.1904,74.1225 89.7804,68.6335 101.492,74.1225" style="fill:none;stroke-width:2.47px;stroke:rgb(88,89,91);"/>
            <path d="M68.1904,81.9091C68.1904,81.9091 89.7804,76.4201 101.492,81.9091" style="fill:none;stroke-width:2.47px;stroke:rgb(88,89,91);"/>
            <g>
                <path d="M25.8466,56.6953L32.4443,39.5156L34.8935,39.5156L41.9248,56.6953L39.3349,56.6953L37.331,51.4922L30.1474,51.4922L28.2607,56.6953L25.8466,56.6953ZM30.8037,49.6406L36.6279,49.6406L34.8349,44.8828C34.2881,43.4375 33.8818,42.25 33.6162,41.3203C33.3974,42.4219 33.0888,43.5156 32.6904,44.6016L30.8037,49.6406Z" style="fill:rgb(88,89,91);fill-rule:nonzero;"/>
                <path d="M43.917,56.6953L41.9599,56.6953L41.9599,39.5156L44.0693,39.5156L44.0693,45.6445C44.9599,44.5273 46.0966,43.9687 47.4795,43.9687C48.2451,43.9687 48.9697,44.123 49.6533,44.4316C50.3369,44.7402 50.8994,45.1738 51.3408,45.7324C51.7822,46.291 52.1279,46.9648 52.3779,47.7539C52.6279,48.543 52.7529,49.3867 52.7529,50.2851C52.7529,52.418 52.2256,54.0664 51.1709,55.2305C50.1162,56.3945 48.8506,56.9766 47.374,56.9766C45.9052,56.9766 44.7529,56.3633 43.917,55.1367L43.917,56.6953ZM43.8935,50.3789C43.8935,51.8711 44.0966,52.9492 44.5029,53.6133C45.167,54.6992 46.0654,55.2422 47.1982,55.2422C48.1201,55.2422 48.917,54.8418 49.5888,54.041C50.2607,53.2402 50.5966,52.0469 50.5966,50.4609C50.5966,48.8359 50.2744,47.6367 49.6298,46.8633C48.9853,46.0898 48.206,45.7031 47.292,45.7031C46.3701,45.7031 45.5732,46.1035 44.9013,46.9043C44.2295,47.7051 43.8935,48.8633 43.8935,50.3789Z" style="fill:rgb(88,89,91);fill-rule:nonzero;"/>
            </g>
        </g>
    </g>
</svg>
