<?xml version="1.0" standalone="no"?>
<!DOCTYPE svg PUBLIC "-//W3C//DTD SVG 1.1//EN" "http://www.w3.org/Graphics/SVG/1.1/DTD/svg11.dtd">
<svg width="122px" height="122px" version="1.1" xmlns="http://www.w3.org/2000/svg" xmlns:xlink="http://www.w3.org/1999/xlink" xml:space="preserve" style="fill-rule:evenodd;clip-rule:evenodd;stroke-miterlimit:10;">
    <g>
        <g id="Layer 1">
            <path d="M61.4258,1.1254C94.7288,1.1254 121.727,28.1224 121.727,61.4254C121.727,94.7294 94.7288,121.727 61.4258,121.727C28.1228,121.727 1.1248,94.7294 1.1248,61.4254C1.1248,28.1224 28.1228,1.1254 61.4258,1.1254" style="fill:none;stroke-width:2.25px;stroke:rgb(109,111,113);"/>
            <path d="M71.4551,89.6762C71.3521,88.2992 71.4281,85.2772 72.6101,83.3872" style="fill:none;stroke-width:2.25px;stroke:rgb(109,111,113);"/>
            <path d="M78.3457,69.1225L77.0177,70.5235C77.0047,70.5355 76.9917,70.5475 76.9787,70.5585C75.4327,71.8135 73.4547,72.4455 71.0807,72.4455C70.3337,72.4455 69.5467,72.3815 68.7217,72.2575C66.3317,71.8935 64.3567,70.3785 62.9787,68.9595L62.9787,87.6105" style="fill:none;stroke-width:2.25px;stroke:rgb(109,111,113);"/>
            <path d="M93.1758,82.6313C95.3008,82.8853 97.4218,78.2343 95.9968,75.6533C100.308,72.2043 99.0638,66.0603 96.3528,63.8633C95.8368,64.4233 95.2128,64.9073 94.4708,65.3033C93.2558,65.9513 91.9728,66.1223 90.8408,66.0853C89.8828,66.0723 88.2078,65.7203 87.4258,65.4793" style="fill:none;stroke-width:2.25px;stroke:rgb(109,111,113);"/>
            <path d="M83.207,93.0522C86.056,92.6452 90.873,90.6812 92.227,86.8452L92.211,86.8402C92.227,86.8022 93.6,82.9742 91.848,79.7082C90.72,77.6052 88.534,76.1542 85.35,75.3942" style="fill:none;stroke-width:2.25px;stroke:rgb(109,111,113);"/>
            <path d="M82.2432,75.9741C82.2522,76.0201 82.7662,78.8021 81.4502,81.4301" style="fill:none;stroke-width:2.25px;stroke:rgb(109,111,113);"/>
            <path d="M74.1152,93.2792C74.0822,93.2592 72.1862,92.0012 71.4552,89.6762C70.6742,89.8302 69.9252,89.9072 69.2152,89.9072C67.5252,89.9072 66.0442,89.4752 64.7902,88.6112C64.0472,88.0992 63.4542,87.4812 62.9782,86.8362L62.9782,88.0642C62.9782,103.192 79.3232,100.287 82.8822,93.4502C82.9172,93.4552 82.9492,93.4582 82.9812,93.4642C83.6622,92.2852 84.2992,90.6822 84.2092,88.8782C84.0972,86.6622 82.9152,84.5622 80.6962,82.6312C79.7262,83.8832 78.2152,84.9882 75.8632,85.5832" style="fill:none;stroke-width:2.25px;stroke:rgb(109,111,113);"/>
            <path d="M73.0117,55.1694C74.4137,55.0964 77.4867,55.2474 79.3767,56.5384" style="fill:none;stroke-width:2.25px;stroke:rgb(109,111,113);"/>
            <path d="M80.8281,53.2856C80.8671,53.2816 84.7141,52.8596 86.3551,50.1336C87.3131,48.5416 87.3561,46.4396 86.4921,43.8806C86.3821,43.8846 86.0361,44.8736 85.9261,44.8856C85.9261,41.8126 80.7741,36.5366 76.2991,37.4546" style="fill:none;stroke-width:2.25px;stroke:rgb(109,111,113);"/>
            <path d="M95.4414,64.687C95.5654,64.265 96.6074,60.107 96.6404,59.667C96.6964,57.434 95.9864,54.991 93.7484,54.391C95.0464,49.765 90.4454,44.932 86.5404,44.026" style="fill:none;stroke-width:2.25px;stroke:rgb(109,111,113);"/>
            <path d="M80.1748,64.2382C80.1668,64.3742 79.9878,67.1592 78.0818,69.4602C79.2608,69.7802 81.9678,70.2962 84.1208,69.1112C85.4788,68.3622 86.4208,67.0302 86.9258,65.1502C86.3618,64.8372 85.8628,64.4462 85.4328,63.9762C83.3988,61.7532 83.6448,58.6342 83.6558,58.5022" style="fill:none;stroke-width:2.25px;stroke:rgb(109,111,113);"/>
            <path d="M69.4326,57.6416C69.4546,57.6106 70.7406,55.8356 73.0116,55.1696C73.0046,53.9706 72.7746,50.4006 70.3856,48.3686C68.6856,46.9216 66.1976,46.5066 62.9786,47.1306L62.9786,68.9596" style="fill:none;stroke-width:2.25px;stroke:rgb(109,111,113);"/>
            <path d="M71.3633,49.2392C72.5213,48.5712 75.8353,46.3632 76.6903,43.8152C77.3913,41.7252 77.0643,39.3582 75.7273,36.7722C74.6503,35.0282 72.3833,32.8472 69.1153,32.8472C64.9923,32.8472 62.9783,36.2192 62.9783,40.5742L62.9783,47.8222" style="fill:none;stroke-width:2.25px;stroke:rgb(109,111,113);"/>
            <path d="M28.876,53.0371C25.899,54.0701 26.608,61.0541 27.426,63.3641" style="fill:none;stroke-width:2.25px;stroke:rgb(109,111,113);"/>
            <path d="M57.166,59.7885C57.122,59.9325 56.087,63.3455 52.882,64.4415C52.238,64.6615 51.561,64.7705 50.849,64.7705C48.996,64.7705 46.914,64.0265 44.625,62.5465C44.784,63.7155 44.552,64.8195 43.924,65.7625C43.213,66.8285 42.074,67.6135 40.667,68.0525C43.223,68.2705 46.532,71.5415 48.02,75.3855" style="fill:none;stroke-width:2.25px;stroke:rgb(109,111,113);"/>
            <path d="M57.4502,47.1435C57.3702,47.1825 56.0662,47.7965 54.4232,47.7965C53.6452,47.7965 52.7942,47.6585 51.9582,47.2595C51.4122,46.9975 50.9192,46.6475 50.4792,46.2095C49.9622,47.1075 48.9752,48.5525 47.4912,49.6655C48.7052,51.5845 49.9402,54.3335 48.9822,57.6335C48.5242,59.2175 45.5872,60.9435 43.8632,61.6355" style="fill:none;stroke-width:2.25px;stroke:rgb(109,111,113);"/>
            <path d="M59.9004,70.7294L59.9004,40.5744C59.9004,36.2194 57.8844,32.8474 53.7634,32.8474C49.6414,32.8474 47.1134,36.3124 46.5514,37.9994C41.5874,35.8454 36.7154,40.5274 36.7154,43.8994C32.4274,43.4714 28.3794,48.1464 28.8764,53.0374C30.0214,53.2214 31.1984,53.2054 32.3744,52.8944C35.5474,52.0554 37.1294,48.5404 37.1454,48.5054L37.4774,47.7474L38.1714,48.1994C40.4824,49.7074 42.6384,50.1804 44.5784,49.6054C47.4724,48.7474 49.1344,45.7914 49.5334,45.0024C49.0044,44.1464 48.5954,43.1034 48.3094,41.8714" style="fill:none;stroke-width:2.25px;stroke:rgb(109,111,113);"/>
            <path d="M44.6709,93.8256C43.9119,91.7166 44.3959,89.2566 45.8019,87.5126C44.2019,85.4176 42.1639,84.5346 40.1219,85.0876C38.0439,85.6516 36.4549,87.6056 36.3489,89.7326" style="fill:none;stroke-width:2.25px;stroke:rgb(109,111,113);"/>
            <path d="M46.0723,87.0517C46.0793,87.0457 46.8193,86.5057 46.8273,86.4997C49.1633,84.6877 52.2423,84.8297 55.2803,86.8897" style="fill:none;stroke-width:2.25px;stroke:rgb(109,111,113);"/>
            <path d="M36.8086,68.687C37.0996,67.837 36.9106,66.691 36.3006,65.623C35.5116,64.236 34.1686,63.229 32.7086,62.926C30.3436,62.437 27.8866,63.28 26.3876,63.975C23.7736,66.265 22.6426,72.263 26.8806,75.653C24.9126,79.213 29.2236,82.959 30.0666,83.521C30.1596,90.265 36.3416,94.106 39.9946,93.451C43.5536,100.288 59.9006,103.192 59.9006,88.064L59.9006,70.729C57.5336,69.342 54.9666,69.081 52.7146,70.034C50.4796,70.981 48.8966,73.004 48.5796,75.317L48.4586,76.2L47.6286,75.877C45.7446,75.143 43.4586,75.463 42.1766,76.161C40.0126,77.337 38.7096,81.083 40.1136,84.635" style="fill:none;stroke-width:2.25px;stroke:rgb(109,111,113);"/>
            <path d="M12.4258,44.3227L18.0078,46.9737L22.4258,49.0727" style="fill:none;stroke-width:2.25px;stroke:rgb(109,111,113);"/>
            <path d="M27.6328,24.2402L31.4278,29.1162L34.4328,32.9762" style="fill:none;stroke-width:2.25px;stroke:rgb(109,111,113);"/>
            <path d="M50.2412,13.1318L51.4412,19.1928L52.3902,23.9908" style="fill:none;stroke-width:2.25px;stroke:rgb(109,111,113);"/>
            <path d="M75.4307,13.3652L73.7797,19.3192L72.4717,24.0332" style="fill:none;stroke-width:2.25px;stroke:rgb(109,111,113);"/>
            <path d="M97.8291,24.8916L93.6791,29.4696L90.3921,33.0926" style="fill:none;stroke-width:2.25px;stroke:rgb(109,111,113);"/>
            <path d="M112.66,45.2529L106.895,47.4789L102.332,49.2389" style="fill:none;stroke-width:2.25px;stroke:rgb(109,111,113);"/>
        </g>
    </g>
</svg>
