<?xml version="1.0" standalone="no"?>
<!DOCTYPE svg PUBLIC "-//W3C//DTD SVG 1.1//EN" "http://www.w3.org/Graphics/SVG/1.1/DTD/svg11.dtd">
<svg width="122px" height="122px" version="1.1" xmlns="http://www.w3.org/2000/svg" xmlns:xlink="http://www.w3.org/1999/xlink" xml:space="preserve" style="fill-rule:evenodd;clip-rule:evenodd;stroke-miterlimit:10;">
    <g>
        <g id="Layer 1">
            <path d="M61.4258,121.727C28.1228,121.727 1.1248,94.729 1.1248,61.425C1.1248,28.123 28.1228,1.125 61.4258,1.125C94.7288,1.125 121.727,28.123 121.727,61.425C121.727,94.729 94.7288,121.727 61.4258,121.727" style="fill:none;stroke-width:2.25px;stroke:rgb(88,89,91);"/>
            <path d="M54.8813,49.8129L75.1663,49.8129L75.1663,37.6479C75.1663,33.4679 71.8533,30.0799 67.7673,30.0799L28.3133,30.0799C24.2283,30.0799 20.9163,33.4679 20.9163,37.6479L20.9163,60.8319C20.9163,65.0109 24.2283,68.3999 28.3133,68.3999L30.2743,68.3999L30.5403,81.0129L41.6373,68.3999L47.2743,68.3999L47.2743,57.3809C47.2743,53.2019 50.6803,49.8129 54.8813,49.8129Z" style="fill:none;stroke-width:2.25px;stroke:rgb(88,89,91);"/>
            <path d="M47.2739,68.3999L47.2739,80.5649C47.2739,84.7449 50.6799,88.1329 54.8809,88.1329L81.7509,88.1329L93.1619,100.747L93.4349,88.1329L95.4519,88.1329C99.6519,88.1329 103.058,84.7449 103.058,80.5649L103.058,57.3809C103.058,53.2019 99.6519,49.8129 95.4519,49.8129L75.1659,49.8129" style="fill:none;stroke-width:2.28px;stroke:rgb(88,89,91);"/>
            <path d="M55.208,63.4262L94.374,63.4262" style="fill:none;stroke-width:2.25px;stroke:rgb(88,89,91);"/>
            <path d="M55.208,70.5932L94.374,70.5932" style="fill:none;stroke-width:2.25px;stroke:rgb(88,89,91);"/>
            <path d="M55.208,77.7592L94.374,77.7592" style="fill:none;stroke-width:2.25px;stroke:rgb(88,89,91);"/>
        </g>
    </g>
</svg>
