<?xml version="1.0" standalone="no"?>
<!DOCTYPE svg PUBLIC "-//W3C//DTD SVG 1.1//EN" "http://www.w3.org/Graphics/SVG/1.1/DTD/svg11.dtd">
<svg width="161px" height="81px" version="1.1" xmlns="http://www.w3.org/2000/svg" xmlns:xlink="http://www.w3.org/1999/xlink" xml:space="preserve" style="fill-rule:evenodd;clip-rule:evenodd;stroke-linejoin:round;stroke-miterlimit:1.41421;">
    <g>
        <g id="Layer 1">
            <path d="M0,50.9717L0,59.6507C0,63.5177 2.998,66.6787 6.795,66.9527L6.795,66.9797C6.795,66.9797 142.211,67.1727 150.046,67.1727C157.886,67.1727 157.522,62.6017 157.522,58.6847C157.522,54.7647 157.518,52.0927 157.518,52.0927L0,50.9717Z" style="fill:rgb(112,77,53);fill-rule:nonzero;"/>
            <path d="M122.879,30.7657L122.809,10.8427C122.809,10.8427 130.066,9.2587 139.442,14.4287C148.816,19.5997 150.385,30.7657 150.385,30.7657L122.879,30.7657Z" style="fill:white;fill-rule:nonzero;"/>
            <path d="M47.084,3.9707C47.084,6.1627 45.612,7.9407 43.797,7.9407L22.889,7.9407C21.073,7.9407 19.601,6.1627 19.601,3.9707C19.601,1.7777 21.073,-0.0003 22.889,-0.0003L43.797,-0.0003C45.612,-0.0003 47.084,1.7777 47.084,3.9707" style="fill:white;fill-rule:nonzero;"/>
            <path d="M116.1,3.9707C116.1,6.1627 114.627,7.9407 112.811,7.9407L91.9046,7.9407C90.0886,7.9407 88.6166,6.1627 88.6166,3.9707C88.6166,1.7777 90.0886,-0.0003 91.9046,-0.0003L112.811,-0.0003C114.627,-0.0003 116.1,1.7777 116.1,3.9707" style="fill:white;fill-rule:nonzero;"/>
            <path d="M122.879,30.7657L122.809,10.8427C122.809,10.8427 130.066,9.2587 139.442,14.4287C148.816,19.5997 150.385,30.7657 150.385,30.7657L122.879,30.7657ZM157.708,30.5177C154.499,15.9987 142.855,3.9017 127.587,3.9017C125.649,3.9017 124.437,3.8857 122.817,3.8887L122.82,3.7907L10.9949,3.9707C10.6139,3.9097 10.2279,3.8697 9.8299,3.8697L7.3299,3.8697C3.2809,3.8697 -0.0001,7.1507 -0.0001,11.1997L-0.0001,51.7877L157.529,52.2207C157.529,52.2207 159.632,36.0477 157.708,30.5177" style="fill:rgb(253,184,50);fill-rule:nonzero;"/>
            <rect x="97.28" y="10.6538" width="19.233" height="20.477" style="fill:white;fill-rule:nonzero;"/>
            <rect x="74.528" y="10.6538" width="19.236" height="20.477" style="fill:white;fill-rule:nonzero;"/>
            <rect x="51.779" y="10.6538" width="19.235" height="20.477" style="fill:white;fill-rule:nonzero;"/>
            <rect x="29.029" y="10.6538" width="19.234" height="20.477" style="fill:white;fill-rule:nonzero;"/>
            <rect x="6.28" y="10.6538" width="19.232" height="20.477" style="fill:white;fill-rule:nonzero;"/>
            <path d="M125.401,65.417C125.401,61.889 128.264,59.025 131.794,59.025C135.323,59.025 138.183,61.889 138.183,65.417C138.183,68.947 135.323,71.808 131.794,71.808C128.264,71.808 125.401,68.947 125.401,65.417M116.118,65.417C116.118,74.074 123.137,81.093 131.794,81.093C140.451,81.093 147.466,74.074 147.466,65.417C147.466,56.761 140.451,49.74 131.794,49.74C123.137,49.74 116.118,56.761 116.118,65.417" style="fill:rgb(46,44,38);fill-rule:nonzero;"/>
            <path d="M125.401,65.417C125.401,61.889 128.264,59.025 131.794,59.025C135.323,59.025 138.183,61.889 138.183,65.417C138.183,68.947 135.323,71.808 131.794,71.808C128.264,71.808 125.401,68.947 125.401,65.417" style="fill:white;fill-rule:nonzero;"/>
            <path d="M19.7935,65.419C19.7935,61.889 22.6535,59.025 26.1835,59.025C29.7135,59.025 32.5735,61.889 32.5735,65.419C32.5735,68.947 29.7135,71.811 26.1835,71.811C22.6535,71.811 19.7935,68.947 19.7935,65.419M10.5085,65.419C10.5085,74.074 17.5265,81.092 26.1835,81.092C34.8395,81.092 41.8585,74.074 41.8585,65.419C41.8585,56.761 34.8395,49.743 26.1835,49.743C17.5265,49.743 10.5085,56.761 10.5085,65.419" style="fill:rgb(46,44,38);fill-rule:nonzero;"/>
            <path d="M19.7935,65.3555C19.7935,61.8245 22.6535,58.9605 26.1835,58.9605C29.7135,58.9605 32.5735,61.8245 32.5735,65.3555C32.5735,68.8815 29.7135,71.7465 26.1835,71.7465C22.6535,71.7465 19.7935,68.8815 19.7935,65.3555" style="fill:white;fill-rule:nonzero;"/>
            <clipPath id="tag1">
                <path d="M10.994,3.9708C10.614,3.9088 10.228,3.8698 9.83,3.8698L7.33,3.8698C3.281,3.8698 0,7.1508 0,11.1988L0,51.7878L157.53,52.2208C157.53,52.2208 159.632,36.0478 157.708,30.5168C154.499,15.9998 142.854,3.9018 127.587,3.9018C125.648,3.9018 124.437,3.8858 122.817,3.8888L122.82,3.7908L10.994,3.9708ZM122.809,10.8428C122.809,10.8428 130.066,9.2588 139.442,14.4288C148.815,19.5998 150.385,30.7658 150.385,30.7658L122.879,30.7658L122.809,10.8428Z"/>
            </clipPath>
            <g clip-path="url(#tag1)">
                <path d="M161.899,42.0098C161.899,44.8718 159.734,47.1908 157.066,47.1908C154.395,47.1908 152.233,44.8718 152.233,42.0098C152.233,39.1488 154.395,36.8308 157.066,36.8308C159.734,36.8308 161.899,39.1488 161.899,42.0098" style="fill:white;fill-rule:nonzero;"/>
            </g>
        </g>
    </g>
</svg>
