<?xml version="1.0" standalone="no"?>
<!DOCTYPE svg PUBLIC "-//W3C//DTD SVG 1.1//EN" "http://www.w3.org/Graphics/SVG/1.1/DTD/svg11.dtd">
<svg width="122px" height="122px" version="1.1" xmlns="http://www.w3.org/2000/svg" xmlns:xlink="http://www.w3.org/1999/xlink" xml:space="preserve" style="fill-rule:evenodd;clip-rule:evenodd;stroke-miterlimit:10;">
    <g>
        <g id="Layer 1">
            <path d="M121.727,61.4252C121.727,94.7292 94.7286,121.727 61.4256,121.727C28.1226,121.727 1.1246,94.7292 1.1246,61.4252C1.1246,28.1222 28.1226,1.1252 61.4256,1.1252C94.7286,1.1252 121.727,28.1222 121.727,61.4252Z" style="fill:none;stroke-width:2.25px;stroke:rgb(88,89,91);"/>
            <path d="M50.0938,96.812C45.8708,97.708 41.7218,95.01 40.8248,90.787C39.9298,86.564 42.6258,82.415 46.8488,81.518C51.0728,80.623 55.2228,83.32 56.1178,87.542C57.0138,91.765 54.3168,95.916 50.0938,96.812ZM62.6718,86.152C62.2058,83.96 63.1888,81.944 64.9688,80.322C64.3438,79.175 63.6108,78.107 62.7788,77.129C60.6258,78.209 58.5918,77.708 56.7128,76.487C54.8328,75.264 53.9668,73.521 54.0808,71.116C52.8498,70.751 51.5748,70.515 50.2728,70.41C49.5148,72.694 47.6528,74.5 45.4588,74.964C43.2668,75.43 40.8308,74.537 39.2098,72.755C38.0638,73.38 36.9948,74.115 36.0178,74.947C37.0978,77.099 37.0148,79.044 35.7928,80.924C34.5708,82.804 32.9148,84.088 30.5098,83.975C30.1468,85.206 29.9098,86.481 29.8048,87.782C32.0888,88.541 33.8058,89.985 34.2718,92.177C34.7358,94.37 33.8418,96.806 32.0618,98.426C32.6878,99.573 33.4208,100.641 34.2528,101.619C36.4058,100.539 38.3508,100.623 40.2308,101.844C42.1098,103.066 42.9758,104.81 42.8638,107.216C44.0928,107.579 45.3688,107.815 46.6698,107.921C47.4278,105.636 49.2908,103.83 51.4848,103.366C53.6768,102.901 56.1128,103.794 57.7318,105.575C58.8798,104.948 59.9478,104.215 60.9258,103.383C59.8448,101.231 59.9298,99.286 61.1508,97.407C62.3718,95.527 64.0278,94.242 66.4328,94.355C66.7968,93.124 67.0318,91.85 67.1388,90.546C64.8528,89.789 63.1368,88.345 62.6718,86.152Z" style="fill:none;stroke-width:2.25px;stroke:rgb(88,89,91);"/>
            <path d="M74.3975,58.2416C67.8865,57.0706 63.5575,50.8436 64.7275,44.3326C65.8985,37.8196 72.1245,33.4896 78.6355,34.6596C85.1475,35.8306 89.4775,42.0566 88.3075,48.5696C87.1375,55.0806 80.9095,59.4116 74.3975,58.2416ZM98.4135,50.3856C99.0205,47.0056 101.581,44.7106 105.044,43.4386C104.82,41.4506 104.395,39.5086 103.782,37.6416C100.102,37.9296 97.5045,36.0416 95.5435,33.2206C93.5825,30.4006 93.3615,27.4246 94.9145,24.0756C93.3765,22.8486 91.7045,21.7756 89.9175,20.8726C87.5195,23.6776 83.8335,25.1626 80.4515,24.5546C77.0715,23.9476 74.1315,21.2716 72.8605,17.8066C70.8715,18.0316 68.9295,18.4556 67.0635,19.0696C67.3505,22.7496 66.1075,25.4626 63.2875,27.4256C60.4665,29.3856 57.3745,30.2506 54.0255,28.7006C52.7985,30.2356 51.7265,31.9096 50.8225,33.6946C53.6265,36.0936 55.2285,39.1356 54.6215,42.5156C54.0135,45.8956 51.3365,48.8366 47.8735,50.1066C48.0995,52.0956 48.5215,54.0376 49.1365,55.9056C52.8165,55.6166 55.5295,56.8606 57.4915,59.6806C59.4515,62.5016 59.6715,65.4766 58.1215,68.8276C59.6575,70.0536 61.3305,71.1266 63.1175,72.0286C65.5145,69.2246 69.2015,67.7386 72.5825,68.3456C75.9625,68.9536 78.9025,71.6316 80.1725,75.0946C82.1635,74.8696 84.1045,74.4456 85.9725,73.8306C85.6835,70.1516 86.9265,67.4386 89.7475,65.4766C92.5675,63.5166 95.6595,62.6506 99.0075,64.2006C100.235,62.6646 101.309,60.9916 102.211,59.2056C99.4065,56.8076 97.8055,53.7656 98.4135,50.3856Z" style="fill:none;stroke-width:2.25px;stroke:rgb(88,89,91);"/>
        </g>
    </g>
</svg>
