<?xml version="1.0" standalone="no"?>
<!DOCTYPE svg PUBLIC "-//W3C//DTD SVG 1.1//EN" "http://www.w3.org/Graphics/SVG/1.1/DTD/svg11.dtd">
<svg width="122px" height="122px" version="1.1" xmlns="http://www.w3.org/2000/svg" xmlns:xlink="http://www.w3.org/1999/xlink" xml:space="preserve" style="fill-rule:evenodd;clip-rule:evenodd;stroke-miterlimit:10;">
    <g>
        <g id="Layer 1">
            <path d="M89.6133,73.3852C89.6133,73.3852 92.0273,63.7812 93.5513,61.4262C96.6753,56.5952 100.018,59.9652 99.7593,61.7612C99.0923,66.3852 98.8843,74.1362 98.8843,74.1362C99.0663,74.2772 100.445,74.5472 100.584,74.7202C101.765,75.6552 102.742,76.4572 103.236,76.9292C105.181,78.7862 106.075,82.5482 103.931,85.6642L107.361,88.5312L97.5383,101.079L92.3403,97.7092C92.3403,97.7092 88.4833,101.145 84.7983,99.1472C81.1133,97.1512 76.1763,92.1392 74.2843,90.7392" style="fill:none;stroke-width:2.25px;stroke:rgb(88,89,91);"/>
            <path d="M101.133,106.807L96.1438,102.731L96.7688,101.991L108.497,88.1131L108.921,87.6121L113.829,91.2811" style="fill:none;stroke-width:2.25px;stroke:rgb(88,89,91);"/>
            <path d="M80.8154,76.3828L80.5532,76.187L80.3031,76.0024L80.0622,75.8265L79.8302,75.6589L79.6069,75.4994L79.392,75.3477L79.1852,75.2033L78.9863,75.066L78.795,74.9353L78.6109,74.8109L78.4338,74.6925L78.2634,74.5797L78.0994,74.4722L77.9422,74.3701L77.6418,74.1771L77.3627,73.9999L77.101,73.8345L76.8537,73.6778L76.6199,73.5278L76.5044,73.4525L76.3921,73.3781L76.2814,73.3035L76.1721,73.2282L76.064,73.1519L75.957,73.0741L75.8509,72.9947L75.7506,72.9172L65.772,65.0745L65.7001,65.0157L65.621,64.9459L65.545,64.8733L65.4721,64.7982L65.4025,64.7206L65.3362,64.641L65.2733,64.5593L65.2137,64.4758L65.1575,64.3906L65.1048,64.304L65.0554,64.216L65.0093,64.127L64.9665,64.0369L64.927,63.9459L64.8906,63.8542L64.8574,63.7619L64.8272,63.669L64.8,63.5756L64.7757,63.4819L64.7542,63.3879L64.7354,63.2936L64.7194,63.1991L64.7059,63.1045L64.695,63.0098L64.6865,62.9151L64.6805,62.8203L64.6768,62.7255L64.6754,62.6306L64.6762,62.5358L64.6793,62.4411L64.6845,62.3464L64.6918,62.2519L64.7012,62.1574L64.7126,62.063L64.726,61.9687L64.7414,61.8746L64.7588,61.7806L64.7781,61.6867L64.7992,61.5931L64.8222,61.4996L64.8471,61.4063L64.8739,61.3131L64.9024,61.2202L64.9328,61.1276L64.9649,61.0351L64.9988,60.943L65.0345,60.8511L65.072,60.7595L65.1112,60.6682L65.1521,60.5773L65.1949,60.4866L65.2393,60.3964L65.2854,60.3065L65.3333,60.2171L65.3829,60.1281L65.4342,60.0395L65.4872,59.9514L65.5419,59.8639L65.5983,59.7768L65.6565,59.6903L65.7163,59.6044L65.7778,59.5191L65.8411,59.4344L65.9058,59.3506L65.9718,59.2679L66.0391,59.1864L66.1074,59.1065L66.1767,59.028L66.247,58.9511L66.3182,58.8756L66.3903,58.8018L66.4634,58.7294L66.5373,58.6586L66.6121,58.5894L66.6876,58.5217L66.764,58.4557L66.8412,58.3912L66.9192,58.3282L66.9978,58.267L67.0773,58.2073L67.1575,58.1493L67.2383,58.0929L67.3198,58.0381L67.402,57.9851L67.4849,57.9337L67.5684,57.884L67.6526,57.836L67.7374,57.7898L67.8228,57.7453L67.9088,57.7027L67.9954,57.6618L68.0827,57.6227L68.1705,57.5856L68.259,57.5502L68.348,57.5168L68.4375,57.4854L68.5277,57.456L68.6184,57.4285L68.7098,57.4032L68.8016,57.38L68.894,57.3589L68.987,57.3401L69.0805,57.3236L69.1746,57.3094L69.2691,57.2976L69.3642,57.2883L69.4598,57.2816L69.5558,57.2775L69.6522,57.2761L69.749,57.2776L69.846,57.2819L69.9434,57.2893L70.041,57.2997L70.1386,57.3133L70.2363,57.3302L70.334,57.3504L70.4313,57.374L70.5285,57.4012L70.6251,57.432L70.7212,57.4664L70.8163,57.5044L70.9106,57.5462L71.0037,57.5918L71.0955,57.6411L71.1858,57.6941L71.2743,57.7508L71.3609,57.8111L71.4074,57.8462L81.7009,65.0858L81.803,65.1649L81.8994,65.2378L82.0207,65.328L82.1643,65.4335L82.3288,65.5533L82.5121,65.6857L82.9352,65.9886L83.4229,66.3344L83.9682,66.7178L84.5637,67.1332L85.2019,67.5752L85.8759,68.0387L86.2231,68.2761L86.5769,68.5171L86.9358,68.7606L87.299,69.006L87.6654,69.2525L88.0343,69.4996L88.4046,69.7464L88.7754,69.9924L89.1459,70.2369L89.515,70.479L89.8819,70.7183L90.2456,70.9539L90.6051,71.1852L90.9617,71.4129L89.5577,73.6119L89.1974,73.3818L88.8305,73.1458L88.46,72.9058L88.0868,72.6624L87.7118,72.4164L87.3359,72.1683L86.9599,71.9189L86.5847,71.6689L86.2113,71.4187L85.8404,71.1692L85.4731,70.921L85.1101,70.6747L84.7524,70.4311L84.4005,70.1904L83.72,69.7226L83.0745,69.2755L82.4715,68.8548L81.9181,68.4657L81.4213,68.1135L80.9887,67.8038L80.797,67.6652L80.6241,67.5393L80.4698,67.426L80.3343,67.3252L80.2172,67.2367L80.1505,67.185L69.87,59.9546L69.8284,59.9232L69.8212,59.9184L69.813,59.9137L69.8027,59.909L69.7893,59.9039L69.7812,59.9013L69.7719,59.8987L69.7615,59.8962L69.7498,59.8938L69.7368,59.8915L69.7224,59.8895L69.7067,59.8878L69.6896,59.8866L69.671,59.8857L69.651,59.8854L69.6296,59.8857L69.6068,59.8867L69.5827,59.8884L69.5572,59.8909L69.5304,59.8942L69.5024,59.8985L69.4731,59.9036L69.4426,59.9098L69.4111,59.917L69.3784,59.9252L69.3448,59.9346L69.3102,59.945L69.2746,59.9566L69.2382,59.9694L69.201,59.9834L69.1631,59.9985L69.1245,60.0149L69.0853,60.0324L69.0454,60.0512L69.005,60.0713L68.9642,60.0925L68.9229,60.115L68.8813,60.1388L68.8393,60.1637L68.797,60.1899L68.7545,60.2174L68.7118,60.2461L68.6689,60.2759L68.626,60.307L68.583,60.3393L68.54,60.3728L68.497,60.4075L68.4541,60.4434L68.4113,60.4804L68.3686,60.5186L68.3261,60.5579L68.2839,60.5984L68.2419,60.6401L68.2001,60.6828L68.1587,60.7266L68.1177,60.7715L68.0771,60.8175L68.0369,60.8646L67.9971,60.9127L67.9576,60.9622L67.9188,61.0124L67.8814,61.0625L67.8451,61.1129L67.81,61.1634L67.7759,61.214L67.7431,61.2647L67.7113,61.3155L67.6808,61.3662L67.6514,61.417L67.6232,61.4677L67.5961,61.5183L67.5702,61.5687L67.5454,61.6189L67.5219,61.669L67.4995,61.7188L67.4782,61.7682L67.4581,61.8174L67.4392,61.8661L67.4214,61.9144L67.4048,61.9622L67.3893,62.0096L67.3749,62.0563L67.3617,62.1024L67.3495,62.1478L67.3385,62.1925L67.3286,62.2365L67.3197,62.2796L67.3119,62.3219L67.3052,62.3633L67.2994,62.4037L67.2947,62.4431L67.2908,62.4814L67.288,62.5187L67.286,62.5547L67.2849,62.5896L67.2846,62.6232L67.285,62.6555L67.2862,62.6865L67.2881,62.7161L67.2906,62.7443L67.2937,62.7711L67.2973,62.7964L67.3014,62.8202L67.3058,62.8425L67.3106,62.8633L67.3156,62.8827L67.3208,62.9004L67.3261,62.9167L67.3314,62.9316L67.3368,62.945L67.342,62.9571L67.3471,62.9679L67.3521,62.9774L67.3568,62.9858L67.3612,62.9932L67.3694,63.005L67.3766,63.0141L67.3831,63.021L67.3897,63.0271L67.4034,63.0383L77.3548,70.8596L77.4308,70.9184L77.505,70.9739L77.5828,71.0304L77.6647,71.0883L77.7509,71.1476L77.8417,71.2089L77.9374,71.2722L78.037,71.3372L78.2562,71.4779L78.4959,71.6297L78.7589,71.7959L79.0463,71.9784L79.3581,72.1787L79.5253,72.2874L79.6986,72.4009L79.8788,72.5202L80.0662,72.6455L80.2609,72.7771L80.4633,72.9152L80.6733,73.0603L80.8913,73.2125L81.1175,73.3723L81.3521,73.5398L81.5953,73.7154L81.8473,73.8994L82.1083,74.0922L82.376,74.292L80.8154,76.3828Z" style="fill:rgb(88,89,91);"/>
            <path d="M69.9541,85.2407C70.6961,83.9367 72.0441,83.3027 72.9631,83.8237L82.8081,89.4337C83.7261,89.9577 83.8681,91.4377 83.1261,92.7417C82.3841,94.0457 81.0351,94.6797 80.1181,94.1577L70.2701,88.5487C69.3531,88.0267 69.2111,86.5447 69.9541,85.2407" style="fill:white;fill-rule:nonzero;stroke-width:2.25px;stroke:rgb(88,89,91);"/>
            <path d="M71.6016,79.5297C72.3736,78.1737 73.9116,77.5917 75.0366,78.2317L87.0876,85.0987C88.2116,85.7377 88.4976,87.3567 87.7236,88.7147C86.9516,90.0687 85.4136,90.6497 84.2896,90.0107L72.2366,83.1447C71.1146,82.5047 70.8286,80.8847 71.6016,79.5297" style="fill:white;fill-rule:nonzero;stroke-width:2.25px;stroke:rgb(88,89,91);"/>
            <path d="M74.5137,74.5024C75.2847,73.1474 76.8237,72.5654 77.9477,73.2044L89.9987,80.0714C91.1237,80.7104 91.4087,82.3304 90.6357,83.6874C89.8637,85.0424 88.3257,85.6234 87.2017,84.9834L75.1477,78.1174C74.0257,77.4774 73.7407,75.8574 74.5137,74.5024" style="fill:white;fill-rule:nonzero;stroke-width:2.25px;stroke:rgb(88,89,91);"/>
            <path d="M121.727,61.4243C121.727,94.7293 94.7286,121.727 61.4256,121.727C28.1226,121.727 1.1246,94.7293 1.1246,61.4243C1.1246,28.1213 28.1226,1.1253 61.4256,1.1253C94.7286,1.1253 121.727,28.1213 121.727,61.4243Z" style="fill:none;stroke-width:2.25px;stroke:rgb(88,89,91);"/>
            <path d="M75.873,92.4897C71.482,94.5347 66.587,95.6767 61.426,95.6767C42.51,95.6767 27.176,80.3417 27.176,61.4257C27.176,42.5097 42.51,27.1757 61.426,27.1757C79.635,27.1757 94.525,41.3847 95.612,59.3197" style="fill:none;stroke-width:2.25px;stroke:rgb(88,89,91);"/>
            <path d="M78.1201,44.7602L61.4261,62.7942L37.5961,62.8232" style="fill:none;stroke-width:2.25px;stroke:rgb(88,89,91);"/>
            <path d="M61.3936,32.0102L61.3936,36.5102" style="fill:none;stroke-width:2.25px;stroke:rgb(88,89,91);"/>
            <path d="M77.2227,36.3725L74.9097,40.2325" style="fill:none;stroke-width:2.25px;stroke:rgb(88,89,91);"/>
            <path d="M88.5576,48.2514L84.5886,50.3744" style="fill:none;stroke-width:2.25px;stroke:rgb(88,89,91);"/>
            <path d="M58.4492,93.435L58.8882,88.955" style="fill:none;stroke-width:2.25px;stroke:rgb(88,89,91);"/>
            <path d="M43.1211,87.5463L45.8021,83.9303" style="fill:none;stroke-width:2.25px;stroke:rgb(88,89,91);"/>
            <path d="M33,74.6166L37.158,72.8916" style="fill:none;stroke-width:2.25px;stroke:rgb(88,89,91);"/>
            <path d="M30.1758,62.7651L34.6758,62.8241" style="fill:none;stroke-width:2.25px;stroke:rgb(88,89,91);"/>
            <path d="M88.0098,62.7358L92.5098,62.7948" style="fill:none;stroke-width:2.25px;stroke:rgb(88,89,91);"/>
            <path d="M37.5957,43.3022L41.0777,46.1562" style="fill:none;stroke-width:2.25px;stroke:rgb(88,89,91);"/>
            <path d="M51.0059,33.8256L52.5259,38.0626" style="fill:none;stroke-width:2.25px;stroke:rgb(88,89,91);"/>
        </g>
    </g>
</svg>
