<?xml version="1.0" standalone="no"?>
<!DOCTYPE svg PUBLIC "-//W3C//DTD SVG 1.1//EN" "http://www.w3.org/Graphics/SVG/1.1/DTD/svg11.dtd">
<svg width="300px" height="225px" version="1.1" xmlns="http://www.w3.org/2000/svg" xmlns:xlink="http://www.w3.org/1999/xlink" xml:space="preserve" style="fill-rule:evenodd;clip-rule:evenodd;stroke-linejoin:round;stroke-miterlimit:1.41421;">
    <g>
        <g id="Isolation Mode">
            <g>
                <path d="M3,181.099C3,168.337 34.5636,157.992 73.5,157.992C112.436,157.992 144,168.337 144,181.099C144,193.86 112.436,204.205 73.5,204.205C34.5636,204.205 3,193.86 3,181.099" style="fill:rgb(121,82,30);fill-opacity:0.196078;fill-rule:nonzero;"/>
                <path d="M3,175.714C3,163.391 34.5636,155.988 73.5,155.988C112.436,155.988 144,163.391 144,175.714C144,188.039 112.436,198.676 73.5,198.676C34.5636,198.676 3,188.039 3,175.714" style="fill:rgb(240,234,225);fill-rule:nonzero;"/>
                <path d="M27.4721,172.456C27.4721,164.967 48.0793,165.364 73.5003,165.364C98.9205,165.364 119.528,164.967 119.528,172.456C119.528,179.945 98.9205,184.721 73.5003,184.721C48.0793,184.721 27.4721,179.945 27.4721,172.456" style="fill:rgb(213,184,148);fill-opacity:0.298039;fill-rule:nonzero;"/>
                <path d="M42.8458,173.535C42.8458,168.548 56.5699,168.812 73.5001,168.812C90.4302,168.812 104.154,168.548 104.154,173.535C104.154,178.523 90.4302,182.565 73.5001,182.565C56.5699,182.565 42.8458,178.523 42.8458,173.535" style="fill:rgb(213,184,148);fill-opacity:0.298039;fill-rule:nonzero;"/>
                <path d="M20.6442,130.993C15.8398,130.993 13.3445,133.542 13.017,138.786C12.6062,145.363 15.4942,149.909 17.9888,152.564C21.7882,156.609 27.4563,159.221 32.4287,159.221C44.6828,159.221 46.3347,154.179 46.3347,149.247C46.3347,143.821 42.6222,141.477 35.5073,137.468C33.3996,136.28 31.2209,135.053 29.0662,133.607C26.6267,131.97 23.4779,130.993 20.6442,130.993M32.4287,167.63C25.1356,167.63 17.2541,164.063 11.8607,158.322C6.65346,152.779 4.15165,145.842 4.62549,138.262C5.34785,126.703 13.3735,122.585 20.6442,122.585C25.1472,122.585 29.9247,124.057 33.751,126.625C35.6341,127.888 37.6678,129.034 39.6342,130.142C46.7165,134.132 54.7429,138.656 54.7429,149.247C54.7429,156.112 51.8448,167.63 32.4287,167.63" style="fill:rgb(240,234,225);fill-rule:nonzero;"/>
                <path d="M122.009,131.843C122.009,158.394 100.291,179.919 73.5002,179.919C46.7091,179.919 24.9905,158.394 24.9905,131.843C24.9905,105.291 26.0281,134.874 73.5002,134.874C120.972,134.874 122.009,105.291 122.009,131.843" style="fill:rgb(240,234,225);fill-rule:nonzero;"/>
                <path d="M121.565,123.183C121.565,132.673 100.032,140.367 73.47,140.367C46.9079,140.367 25.374,132.673 25.374,123.183C25.374,113.694 46.9079,106 73.47,106C100.032,106 121.565,113.694 121.565,123.183" style="fill:rgb(240,234,225);fill-rule:nonzero;"/>
                <path d="M117.029,122.748C117.029,130.761 97.5265,137.258 73.4698,137.258C49.4131,137.258 29.9108,130.761 29.9108,122.748C29.9108,114.734 49.4131,108.238 73.4698,108.238C97.5265,108.238 117.029,114.734 117.029,122.748" style="fill:rgb(213,184,148);fill-rule:nonzero;"/>
                <clipPath id="tag1">
                    <path d="M29.9113,122.748C29.9113,130.761 49.4129,137.258 73.4703,137.258C97.5263,137.258 117.029,130.761 117.029,122.748C117.029,114.735 97.5263,108.238 73.4703,108.238C49.4129,108.238 29.9113,114.735 29.9113,122.748Z"/>
                </clipPath>
                <g clip-path="url(#tag1)">
                    <path d="M29.1055,127.079C29.1055,134.375 48.5933,140.288 72.634,140.288C96.6741,140.288 116.163,134.375 116.163,127.079C116.163,119.783 96.6741,113.87 72.634,113.87C48.5933,113.87 29.1055,119.783 29.1055,127.079" style="fill:rgb(121,82,30);fill-rule:nonzero;"/>
                </g>
            </g>
            <g>
                <path d="M155,181.099C155,168.337 186.564,157.992 225.5,157.992C264.436,157.992 296,168.337 296,181.099C296,193.86 264.436,204.205 225.5,204.205C186.564,204.205 155,193.86 155,181.099" style="fill:rgb(121,82,30);fill-opacity:0.196078;fill-rule:nonzero;"/>
                <path d="M155,175.714C155,163.391 186.564,155.988 225.5,155.988C264.436,155.988 296,163.391 296,175.714C296,188.039 264.436,198.676 225.5,198.676C186.564,198.676 155,188.039 155,175.714" style="fill:rgb(240,234,225);fill-rule:nonzero;"/>
                <path d="M179.472,172.456C179.472,164.967 200.079,165.364 225.5,165.364C250.921,165.364 271.528,164.967 271.528,172.456C271.528,179.945 250.921,184.721 225.5,184.721C200.079,184.721 179.472,179.945 179.472,172.456" style="fill:rgb(213,184,148);fill-opacity:0.298039;fill-rule:nonzero;"/>
                <path d="M194.846,173.535C194.846,168.548 208.57,168.812 225.5,168.812C242.43,168.812 256.154,168.548 256.154,173.535C256.154,178.523 242.43,182.565 225.5,182.565C208.57,182.565 194.846,178.523 194.846,173.535" style="fill:rgb(213,184,148);fill-opacity:0.298039;fill-rule:nonzero;"/>
                <path d="M172.644,130.993C167.84,130.993 165.345,133.542 165.017,138.786C164.606,145.363 167.494,149.909 169.989,152.564C173.788,156.609 179.456,159.221 184.429,159.221C196.683,159.221 198.335,154.179 198.335,149.247C198.335,143.821 194.622,141.477 187.507,137.468C185.4,136.28 183.221,135.053 181.066,133.607C178.627,131.97 175.478,130.993 172.644,130.993M184.429,167.63C177.136,167.63 169.254,164.063 163.861,158.322C158.653,152.779 156.152,145.842 156.625,138.262C157.348,126.703 165.374,122.585 172.644,122.585C177.147,122.585 181.925,124.057 185.751,126.625C187.634,127.888 189.668,129.034 191.634,130.142C198.717,134.132 206.743,138.656 206.743,149.247C206.743,156.112 203.845,167.63 184.429,167.63" style="fill:rgb(240,234,225);fill-rule:nonzero;"/>
                <path d="M274.009,131.843C274.009,158.394 252.291,179.919 225.5,179.919C198.709,179.919 176.991,158.394 176.991,131.843C176.991,105.291 178.028,134.874 225.5,134.874C272.972,134.874 274.009,105.291 274.009,131.843" style="fill:rgb(240,234,225);fill-rule:nonzero;"/>
                <path d="M273.565,123.183C273.565,132.673 252.032,140.367 225.47,140.367C198.908,140.367 177.374,132.673 177.374,123.183C177.374,113.694 198.908,106 225.47,106C252.032,106 273.565,113.694 273.565,123.183" style="fill:rgb(240,234,225);fill-rule:nonzero;"/>
                <path d="M269.029,122.748C269.029,130.761 249.526,137.258 225.47,137.258C201.413,137.258 181.911,130.761 181.911,122.748C181.911,114.734 201.413,108.238 225.47,108.238C249.526,108.238 269.029,114.734 269.029,122.748" style="fill:rgb(213,184,148);fill-rule:nonzero;"/>
                <clipPath id="tag2">
                    <path d="M181.911,122.748C181.911,130.761 201.413,137.258 225.47,137.258C249.526,137.258 269.029,130.761 269.029,122.748C269.029,114.735 249.526,108.238 225.47,108.238C201.413,108.238 181.911,114.735 181.911,122.748Z"/>
                </clipPath>
                <g clip-path="url(#tag2)">
                    <path d="M181.106,127.079C181.106,134.375 200.593,140.288 224.634,140.288C248.674,140.288 268.163,134.375 268.163,127.079C268.163,119.783 248.674,113.87 224.634,113.87C200.593,113.87 181.106,119.783 181.106,127.079" style="fill:rgb(121,82,30);fill-rule:nonzero;"/>
                </g>
            </g>
        </g>
    </g>
</svg>
