<?xml version="1.0" standalone="no"?>
<!DOCTYPE svg PUBLIC "-//W3C//DTD SVG 1.1//EN" "http://www.w3.org/Graphics/SVG/1.1/DTD/svg11.dtd">
<svg width="122px" height="122px" version="1.1" xmlns="http://www.w3.org/2000/svg" xmlns:xlink="http://www.w3.org/1999/xlink" xml:space="preserve" style="fill-rule:evenodd;clip-rule:evenodd;stroke-miterlimit:10;">
    <g>
        <g id="Layer 1">
            <path d="M121.727,61.4252C121.727,94.7292 94.7286,121.727 61.4256,121.727C28.1226,121.727 1.1246,94.7292 1.1246,61.4252C1.1246,28.1222 28.1226,1.1252 61.4256,1.1252C94.7286,1.1252 121.727,28.1222 121.727,61.4252Z" style="fill:none;stroke-width:2.25px;stroke:rgb(88,89,91);"/>
            <path d="M79.999,86.2534L49.373,86.2534" style="fill:none;stroke-width:1px;stroke:rgb(88,89,91);"/>
            <path d="M27.3696,66.8564C26.5166,70.6534 29.5586,74.5704 34.1686,75.6064C36.0176,76.0214 37.8356,75.9014 39.4086,75.3734C36.8296,70.9734 35.7966,65.9084 35.0866,61.6114C31.3326,61.5824 28.0846,63.6634 27.3696,66.8564Z" style="fill:none;stroke-width:1px;stroke:rgb(88,89,91);"/>
            <path d="M34.1685,75.6064C29.5595,74.5704 26.5175,70.6534 27.3695,66.8564C28.0855,63.6634 31.3335,61.5824 35.0865,61.6114C35.7965,65.9084 36.8305,70.9734 39.4085,75.3734C37.8355,75.9014 36.0185,76.0214 34.1685,75.6064ZM94.7525,53.2104L34.1255,53.2104C34.1255,54.2024 34.0675,55.1974 34.1845,56.1604C27.8405,56.2534 22.4115,59.8354 21.1925,65.2614C19.7125,71.8474 24.9935,78.6424 32.9825,80.4364C36.4585,81.2184 39.8705,80.9224 42.7425,79.8044C44.9905,82.3584 47.1645,84.5064 49.3735,86.2534L79.9995,86.2534C88.8355,79.5254 94.7525,67.2474 94.7525,53.2104Z" style="fill:none;stroke-width:2.25px;stroke:rgb(88,89,91);"/>
            <path d="M49.373,86.2534L25.645,86.2534C24.743,86.2534 24.01,86.9824 24.01,87.8864C24.01,88.7874 24.743,89.5214 25.645,89.5214L33.262,89.5214C34.603,90.7624 37.723,93.5324 38.871,93.5324L87.046,93.5324C88.195,93.5324 91.313,90.7624 92.655,89.5214L100.271,89.5214C101.174,89.5214 101.907,88.7874 101.907,87.8864C101.907,86.9824 101.174,86.2534 100.271,86.2534" style="fill:none;stroke-width:2.25px;stroke:rgb(88,89,91);"/>
            <path d="M40.3496,18.0727C40.3496,18.0727 48.5996,20.3227 45.5996,30.0727C45.5996,30.0727 36.6626,39.0727 46.2566,45.3227C46.2566,45.3227 51.5666,48.0727 54.3326,45.3227" style="fill:none;stroke-width:2.25px;stroke:rgb(88,89,91);"/>
            <path d="M57.8481,18.0727C57.8481,18.0727 66.0981,20.3227 63.0981,30.0727C63.0981,30.0727 54.1611,39.0727 63.7551,45.3227C63.7551,45.3227 69.0651,48.0727 71.8311,45.3227" style="fill:none;stroke-width:2.25px;stroke:rgb(88,89,91);"/>
            <path d="M76.3228,18.0727C76.3228,18.0727 84.5728,20.3227 81.5728,30.0727C81.5728,30.0727 72.6358,39.0727 82.2298,45.3227C82.2298,45.3227 87.5398,48.0727 90.3058,45.3227" style="fill:none;stroke-width:2.25px;stroke:rgb(88,89,91);"/>
        </g>
    </g>
</svg>
