<?xml version="1.0" standalone="no"?>
<!DOCTYPE svg PUBLIC "-//W3C//DTD SVG 1.1//EN" "http://www.w3.org/Graphics/SVG/1.1/DTD/svg11.dtd">
<svg width="350px" height="280px" version="1.1" xmlns="http://www.w3.org/2000/svg" xmlns:xlink="http://www.w3.org/1999/xlink" xml:space="preserve" style="fill-rule:evenodd;clip-rule:evenodd;stroke-linejoin:round;stroke-miterlimit:1.41421;">
    <g>
        <g id="Layer 1">
            <g>
                <path d="M312.29,208.054C312.29,213.186 309.246,217.346 305.49,217.346L42.1534,217.346C38.3971,217.346 35.3545,213.186 35.3545,208.054C35.3545,202.925 38.3971,198.765 42.1534,198.765L305.49,198.765C309.246,198.765 312.29,202.925 312.29,208.054" style="fill:rgb(190,136,44);fill-rule:nonzero;"/>
                <path d="M313.223,197.353L158.436,197.353C148.859,197.353 141.333,188.794 141.333,179.216L141.333,176.615C141.333,167.037 148.859,160.387 158.436,160.387L313.223,160.387C313.223,160.387 308.886,166.29 308.886,178.004C308.886,191.434 313.223,197.353 313.223,197.353" style="fill:rgb(250,244,228);fill-rule:nonzero;"/>
                <path d="M315.025,197.353L218.108,197.353L218.108,161.809L315.025,161.809C315.025,161.809 310.689,167 310.689,178.715C310.689,192.145 315.025,197.353 315.025,197.353" style="fill:rgb(226,221,209);fill-rule:nonzero;"/>
                <path d="M161.444,197.555C150.778,197.555 142.754,189.688 142.754,179.649L142.754,177.049C142.754,172.113 144.461,167.542 148.162,164.173C151.752,160.908 156.336,159.109 161.37,159.109C162.091,159.109 162.595,159.693 162.595,160.414C162.595,161.135 162.415,161.721 161.695,161.721C152.44,161.721 145.597,168.452 145.597,177.049L145.597,179.649C145.597,188.225 152.358,194.943 161.56,194.943C162.28,194.943 162.806,195.529 162.806,196.25C162.806,196.969 162.165,197.555 161.444,197.555" style="fill:rgb(44,47,50);fill-rule:nonzero;"/>
                <path d="M316.21,198.775L158.004,198.775C147.155,198.775 138.489,190.099 138.489,179.216L138.489,176.615C138.489,166.088 146.967,157.544 158.004,157.544L316.21,157.544L316.21,161.809L158.004,161.809C149.434,161.809 142.754,168.557 142.754,176.615L142.754,179.216C142.754,187.527 149.725,194.51 158.004,194.51L316.21,194.51L316.21,198.775Z" style="fill:rgb(167,218,202);fill-rule:nonzero;"/>
                <path d="M298.241,99.2512L199.073,99.2512C191.644,99.2512 185.408,91.4656 185.408,84.0369L185.408,82.0208C185.408,74.5907 191.644,67.9724 199.073,67.9724L298.241,67.9724C298.241,67.9724 294.875,73.8542 294.875,82.9393C294.875,93.3552 298.241,99.2512 298.241,99.2512" style="fill:rgb(250,244,228);fill-rule:nonzero;"/>
                <path d="M200.918,99.297C192.949,99.297 186.829,92.6033 186.829,84.3742L186.829,82.3552C186.829,74.3464 193.134,67.8319 201.335,67.8319C202.057,67.8319 202.457,68.4148 202.457,69.1357C202.457,69.8579 202.263,70.4423 201.543,70.4423C194.782,70.4423 189.672,75.7853 189.672,82.3552L189.672,84.3742C189.672,91.1631 194.503,96.6881 201.035,96.6881C201.754,96.6881 202.28,97.271 202.28,97.9918C202.28,98.7141 201.639,99.297 200.918,99.297" style="fill:rgb(44,47,50);fill-rule:nonzero;"/>
                <path d="M300.57,99.2512L198.736,99.2512C190.614,99.2512 183.986,92.3912 183.986,84.0369L183.986,82.0208C183.986,73.9594 190.186,67.9724 198.736,67.9724L300.57,67.9724L300.57,70.8159L198.736,70.8159C191.858,70.8159 186.829,75.6329 186.829,82.0208L186.829,84.0369C186.829,90.8017 192.203,94.9859 198.736,94.9859L300.57,94.9859L300.57,99.2512Z" style="fill:rgb(4,100,159);fill-rule:nonzero;"/>
                <path d="M168.297,156.122L209.807,156.122C216.439,156.122 222.374,150.283 222.374,143.653L222.374,141.85C222.374,135.22 216.439,130.53 209.807,130.53L168.297,130.53C168.297,130.53 171.297,134.618 171.297,142.726C171.297,152.023 168.297,156.122 168.297,156.122" style="fill:rgb(250,244,228);fill-rule:nonzero;"/>
                <path d="M210.812,156.122L275.445,156.122C282.076,156.122 287.775,149.91 287.775,143.279L287.775,141.479C287.775,134.848 282.076,130.53 275.445,130.53L210.812,130.53C210.812,130.53 217.542,134.618 217.542,142.726C217.542,152.021 210.812,156.122 210.812,156.122" style="fill:rgb(154,23,102);fill-rule:nonzero;"/>
                <path d="M210.067,156.592C209.754,156.592 209.45,156.435 209.274,156.15C209.002,155.714 209.139,155.138 209.575,154.868C209.831,154.707 215.865,150.826 215.865,142.193C215.865,134.692 209.639,130.759 209.575,130.719C209.139,130.449 209.002,129.875 209.274,129.437C209.542,128.997 210.118,128.861 210.556,129.132C210.849,129.314 217.73,133.662 217.73,142.193C217.73,151.896 210.85,156.268 210.557,156.452C210.402,156.547 210.235,156.592 210.067,156.592" style="fill:rgb(44,47,50);fill-rule:nonzero;"/>
                <path d="M275.374,157.544L166.924,157.544L166.924,154.7L275.374,154.7C280.957,154.7 284.931,149.383 284.931,143.279L284.931,141.479C284.931,135.865 281.344,131.952 275.374,131.952L166.924,131.952L166.924,127.687L275.374,127.687C283.073,127.687 287.774,134.136 287.774,141.479L287.774,143.279C287.774,151.002 282.576,157.544 275.374,157.544" style="fill:rgb(154,23,102);fill-rule:nonzero;"/>
                <path d="M240.665,142.761C240.665,134.652 236.919,127.686 236.919,127.686L229.833,127.686C229.833,127.686 233.579,134.652 233.579,142.761C233.579,152.058 229.833,157.543 229.833,157.543L236.919,157.543C236.919,157.543 240.665,152.058 240.665,142.761" style="fill:rgb(251,174,72);fill-rule:nonzero;"/>
                <path d="M274.23,142.761C274.23,134.652 270.484,127.686 270.484,127.686L263.399,127.686C263.399,127.686 267.146,134.652 267.146,142.761C267.146,152.058 263.399,157.543 263.399,157.543L270.484,157.543C270.484,157.543 274.23,152.058 274.23,142.761" style="fill:rgb(251,174,72);fill-rule:nonzero;"/>
                <rect x="155.551" y="99.2518" width="150.707" height="28.4353" style="fill:rgb(44,47,50);fill-rule:nonzero;"/>
                <rect x="164.081" y="99.2518" width="7.10883" height="28.4353" style="fill:rgb(251,174,72);fill-rule:nonzero;"/>
                <rect x="175.456" y="99.2518" width="5.68706" height="28.4353" style="fill:rgb(251,174,72);fill-rule:nonzero;"/>
                <rect x="280.666" y="99.2518" width="12.7959" height="28.4353" style="fill:rgb(251,174,72);fill-rule:nonzero;"/>
                <path d="M126.401,66.443C137.23,51.1946 144.936,30.7496 147.438,14.7121L174.682,14.7121C169.597,30.5263 155.659,62.8957 126.401,66.443M120.356,180.864L70.735,180.864L70.735,147.417L120.356,147.417L120.356,180.864ZM14.3649,14.7121L41.5931,14.7121C44.0954,30.7439 51.8071,51.1889 62.6395,66.443C33.3639,62.89 19.4335,30.5178 14.3649,14.7121M148.216,7.57763C148.272,6.53121 148.345,5.47768 148.345,4.49951L40.696,4.49951C40.696,5.47768 40.7628,6.53121 40.8197,7.57763L4.9997,7.57763C4.9997,7.57763 18.5321,73.9926 67.9043,73.9926C68.1531,73.9926 68.4218,73.9684 68.6863,73.9641C71.5056,77.0835 74.4686,79.8559 77.5766,82.0568C75.3885,82.0995 73.6297,83.8497 73.6297,86.0321C73.6297,88.2429 75.4283,90.0358 77.6292,90.0358L82.9096,90.0358L70.8388,140.824L61.8717,140.824L61.8717,188.91L129.983,188.91L129.983,140.824L120.997,140.824L108.922,90.0358L114.217,90.0358C116.414,90.0358 118.212,88.2429 118.212,86.0321C118.212,83.8312 116.418,82.0341 114.217,82.0341L111.489,82.0341C114.582,79.836 117.531,77.075 120.35,73.9641C120.605,73.9684 120.874,73.9926 121.122,73.9926C170.499,73.9926 184.045,7.57763 184.045,7.57763L148.216,7.57763Z" style="fill:rgb(255,194,41);fill-rule:nonzero;"/>
                <path d="M14.3652,14.7123L41.5934,14.7123C44.0957,30.7427 51.8059,51.1892 62.6398,66.4433C33.3642,62.8903 19.4337,30.5181 14.3652,14.7123M61.872,140.824L61.872,188.91L94.112,188.91L94.112,180.864L70.7339,180.864L70.7339,147.417L94.112,147.417L94.112,4.49837L40.6963,4.49837C40.6963,5.47655 40.7631,6.5315 40.8199,7.57649L4.99998,7.57649C4.99998,7.57649 18.5323,73.9914 67.9046,73.9914C68.1534,73.9914 68.4221,73.9687 68.6866,73.963C71.5059,77.0838 74.4689,79.8562 77.5754,82.0571C75.3902,82.0998 73.63,83.85 73.63,86.0324C73.63,88.2432 75.4286,90.0361 77.6295,90.0361L82.9085,90.0361L70.8391,140.824L61.872,140.824Z" style="fill:rgb(251,229,43);fill-rule:nonzero;"/>
                <path d="M14.3652,14.7123L41.5934,14.7123C44.0957,30.7427 51.8059,51.1892 62.6398,66.4433C33.3642,62.8903 19.4337,30.5181 14.3652,14.7123M70.7339,180.864L70.7339,147.417L72.5808,147.417C72.5168,147.114 72.4841,146.78 72.5651,146.429C75.7271,132.726 78.0958,122.067 81.0403,108.818C82.9525,100.212 84.0146,94.2615 85.3951,88.5247C82.3142,88.8432 76.856,90.0034 76.5759,86.2925C76.2575,82.0415 80.8284,82.7012 81.0403,82.6798C77.4276,79.3856 68.7136,69.6095 58.7953,49.6337C54.6224,41.2254 48.3908,19.0487 47.2776,4.49837L40.6963,4.49837C40.6963,5.47655 40.7631,6.5315 40.8199,7.57649L4.99998,7.57649C4.99998,7.57649 18.5323,73.9914 67.9046,73.9914C68.1534,73.9914 68.4221,73.9687 68.6866,73.963C71.5059,77.0838 74.4689,79.8562 77.5754,82.0571C75.3902,82.0998 73.63,83.85 73.63,86.0324C73.63,88.2432 75.4286,90.0361 77.6295,90.0361L82.9085,90.0361L70.8391,140.824L61.872,140.824L61.872,188.91L94.112,188.91L94.112,180.864L70.7339,180.864Z" style="fill:rgb(255,207,41);fill-rule:nonzero;"/>
                <path d="M77.2422,147.417L79.6805,147.417C80.4497,142.826 80.4923,138.163 80.9715,133.525C81.1918,131.388 81.5686,129.285 81.9894,127.188C80.1596,133.868 78.4535,140.577 77.2422,147.417" style="fill:rgb(251,229,43);fill-rule:nonzero;"/>
                <path d="M66.5505,4.49908C66.0472,18.7324 67.2799,30.2202 72.9854,46.1653C81.6767,70.4605 90.6025,79.3849 90.6025,85.2298C90.6025,100.052 85.5979,138.555 84.523,147.416L94.1114,147.416L94.1114,4.49908L66.5505,4.49908Z" style="fill:rgb(255,207,41);fill-rule:nonzero;"/>
                <rect x="49.5966" y="188.405" width="89.8584" height="11.7665" style="fill:rgb(1,23,52);fill-rule:nonzero;"/>
                <rect x="49.5966" y="188.405" width="44.4387" height="11.7665" style="fill:rgb(46,77,96);fill-rule:nonzero;"/>
                <path d="M40.8198,7.57721L4.99984,7.57721C4.99984,7.57721 9.03197,28.0009 21.771,46.943C34.51,65.8852 49.4058,70.8244 51.8598,71.4998C63.4245,74.6845 68.6864,73.9637 68.6864,73.9637C68.6864,73.9637 53.6185,73.5955 38.7838,62.4488C27.6031,54.0476 19.172,40.1555 13.9769,27.2473C9.52248,16.1846 8.02536,9.56341 8.02536,9.56341L40.9634,9.64872L40.8198,7.57721Z" style="fill:rgb(251,229,43);fill-rule:nonzero;"/>
                <path d="M148.215,7.57721L184.045,7.57721C184.045,7.57721 179.083,32.0259 163.998,51.3022C150.752,68.2283 138.352,71.5837 130.473,73.2599C122.595,74.9362 120.35,73.9637 120.35,73.9637C120.35,73.9637 126.535,73.7661 132.57,72.0031C140.029,69.8235 152.684,63.6232 164.082,47.3625C177.106,28.7857 179.504,10.4861 179.504,10.4861L147.739,10.4023L148.215,7.57721Z" style="fill:rgb(251,229,43);fill-rule:nonzero;"/>
                <path d="M120.19,147.509L68.0691,146.352L70.8245,180.373L70.8955,180.72L120.19,147.509Z" style="fill:rgb(251,229,43);fill-rule:nonzero;"/>
                <rect x="70.734" y="147.417" width="49.621" height="33.447" style="fill:rgb(245,146,35);fill-rule:nonzero;"/>
                <rect x="72.7928" y="149.723" width="46.8202" height="30.3163" style="fill:rgb(248,174,64);fill-rule:nonzero;"/>
                <path d="M40.1756,7.42024C40.1756,7.42024 45.5015,6.9994 48.4432,3.63692C51.4019,0.254544 52.1568,-4.0008 52.1568,-4.0008C52.1568,-4.0008 53.0667,1.04362 56.6411,3.77626C59.8272,6.21316 64.4181,7.20982 64.4181,7.20982C64.4181,7.20982 59.4434,7.98184 56.6411,10.7827C53.8388,13.585 52.3672,18.7702 52.3672,18.7702C52.3672,18.7702 50.4749,7.561 40.1756,7.42024" style="fill:white;fill-rule:nonzero;"/>
                <path d="M190.363,52.5538L190.363,69.7529L296.294,70.1495L296.294,52.9533C282.674,42.3085 265.085,37.1859 243.133,37.1859C221.178,37.1859 203.591,42.3085 190.363,52.5538" style="fill:rgb(38,67,80);fill-rule:nonzero;"/>
                <path d="M318.708,55.6042C321.147,56.0918 322.367,57.7965 322.367,60.7268C322.367,62.1884 321.878,63.4097 320.902,64.385L326.026,75.3624L307.731,75.3624L312.855,64.385C311.878,63.4097 311.391,62.1884 311.391,60.7268C311.391,59.75 311.999,58.6524 313.22,57.4326L315.049,55.6042L315.049,46.8902L318.708,45.1684L318.708,55.6042Z" style="fill:rgb(225,84,83);fill-rule:nonzero;"/>
                <path d="M154.414,38.0397L244.062,3.27608L333.71,38.0397L318.709,44.9921L318.709,45.1684L315.049,46.8902L315.049,46.8205L296.02,55.2388L296.02,54.5066C283.826,43.7737 266.384,38.4051 243.695,38.4051C221.009,38.4051 203.569,43.7737 191.371,54.5066L191.371,55.2388L154.414,38.0397Z" style="fill:rgb(28,57,70);fill-rule:nonzero;"/>
                <path d="M171.218,199.486L186.98,235.928C190.371,233.039 194.595,231.109 199.243,230.553L187.978,199.484" style="fill:rgb(240,81,46);fill-rule:nonzero;"/>
                <path d="M215.888,199.486L204.63,230.53C209.285,231.055 213.524,232.957 216.931,235.825L232.648,199.486" style="fill:rgb(240,81,46);fill-rule:nonzero;"/>
                <path d="M202.014,275.299C214.006,275.299 223.727,265.579 223.727,253.586C223.727,247.648 221.337,242.27 217.473,238.349C217.286,238.16 217.087,237.984 216.893,237.8C216.702,237.62 216.505,237.441 216.307,237.267C212.977,234.35 208.764,232.423 204.107,231.98C203.848,231.956 203.582,231.956 203.322,231.94C203.06,231.924 202.802,231.906 202.539,231.902C202.364,231.897 202.192,231.873 202.015,231.873C201.784,231.873 201.56,231.902 201.331,231.907C201.067,231.916 200.807,231.93 200.545,231.947C200.286,231.966 200.021,231.964 199.763,231.99C195.113,232.469 190.914,234.431 187.604,237.374C187.408,237.55 187.208,237.725 187.019,237.908C186.825,238.095 186.63,238.278 186.444,238.472C182.648,242.381 180.301,247.706 180.301,253.586C180.301,265.579 190.023,275.299 202.014,275.299" style="fill:rgb(255,200,40);fill-rule:nonzero;"/>
                <path d="M202.014,271.947C212.154,271.947 220.373,263.725 220.373,253.586C220.373,248.563 218.353,244.017 215.086,240.702C214.928,240.543 214.759,240.394 214.595,240.24C214.433,240.085 214.267,239.935 214.099,239.788C211.285,237.321 207.722,235.692 203.783,235.315C203.565,235.295 203.34,235.295 203.12,235.283C202.9,235.27 202.679,235.254 202.457,235.25C202.31,235.246 202.165,235.227 202.015,235.227C201.819,235.227 201.63,235.25 201.435,235.256C201.213,235.263 200.993,235.276 200.771,235.288C200.554,235.305 200.328,235.304 200.112,235.325C196.179,235.73 192.629,237.39 189.829,239.878C189.663,240.027 189.495,240.175 189.333,240.33C189.17,240.488 189.006,240.643 188.848,240.806C185.638,244.11 183.655,248.615 183.655,253.586C183.655,263.725 191.875,271.947 202.014,271.947" style="fill:rgb(251,224,101);fill-rule:nonzero;"/>
                <path d="M202.014,269.431C210.765,269.431 217.858,262.336 217.858,253.586C217.858,249.253 216.115,245.327 213.294,242.467C213.159,242.329 213.013,242.202 212.872,242.069C212.733,241.935 212.588,241.806 212.444,241.678C210.014,239.549 206.94,238.143 203.541,237.819C203.352,237.801 203.158,237.801 202.968,237.791C202.779,237.779 202.588,237.766 202.396,237.762C202.268,237.759 202.143,237.741 202.014,237.741C201.846,237.741 201.683,237.762 201.515,237.766C201.323,237.772 201.132,237.784 200.943,237.796C200.753,237.809 200.559,237.808 200.372,237.826C196.978,238.176 193.914,239.608 191.499,241.756C191.355,241.884 191.21,242.012 191.072,242.145C190.93,242.281 190.788,242.417 190.653,242.556C187.882,245.408 186.17,249.296 186.17,253.586C186.17,262.336 193.264,269.431 202.014,269.431" style="fill:rgb(255,200,40);fill-rule:nonzero;"/>
                <path d="M190.023,263.925C192.929,267.291 197.219,269.431 202.014,269.431C210.765,269.431 217.859,262.337 217.859,253.587C217.859,250.708 217.075,248.019 215.734,245.693L190.023,263.925Z" style="fill:rgb(251,224,101);fill-rule:nonzero;"/>
                <path d="M202.434,199.836L218.196,236.279C221.588,233.389 225.811,231.458 230.458,230.902L219.195,199.835" style="fill:rgb(240,81,46);fill-rule:nonzero;"/>
                <path d="M247.104,199.836L235.847,230.879C240.502,231.404 244.74,233.308 248.148,236.174L263.864,199.836" style="fill:rgb(240,81,46);fill-rule:nonzero;"/>
                <path d="M233.23,275.65C245.222,275.65 254.943,265.928 254.943,253.937C254.943,247.997 252.553,242.62 248.69,238.7C248.502,238.511 248.303,238.334 248.108,238.151C247.918,237.97 247.72,237.791 247.523,237.618C244.194,234.7 239.98,232.772 235.322,232.329C235.064,232.305 234.798,232.305 234.539,232.289C234.277,232.275 234.017,232.256 233.756,232.251C233.579,232.246 233.407,232.224 233.231,232.224C232.999,232.224 232.776,232.251 232.549,232.258C232.284,232.266 232.023,232.281 231.762,232.296C231.502,232.316 231.236,232.315 230.98,232.34C226.328,232.818 222.13,234.781 218.82,237.725C218.624,237.901 218.423,238.076 218.234,238.259C218.041,238.445 217.846,238.629 217.66,238.822C213.864,242.731 211.516,248.056 211.516,253.937C211.516,265.928 221.238,275.65 233.23,275.65" style="fill:rgb(255,200,40);fill-rule:nonzero;"/>
                <path d="M233.23,272.297C243.37,272.297 251.589,264.075 251.589,253.936C251.589,248.913 249.569,244.368 246.301,241.052C246.144,240.894 245.976,240.744 245.812,240.59C245.65,240.435 245.482,240.285 245.316,240.138C242.501,237.671 238.938,236.042 234.998,235.665C234.781,235.645 234.556,235.645 234.336,235.633C234.115,235.62 233.895,235.604 233.673,235.6C233.525,235.596 233.38,235.577 233.231,235.577C233.035,235.577 232.847,235.6 232.651,235.606C232.431,235.613 232.21,235.625 231.987,235.638C231.769,235.655 231.543,235.654 231.327,235.675C227.395,236.08 223.845,237.74 221.047,240.228C220.879,240.377 220.711,240.525 220.549,240.68C220.387,240.838 220.222,240.993 220.064,241.156C216.854,244.462 214.87,248.966 214.87,253.936C214.87,264.075 223.091,272.297 233.23,272.297" style="fill:rgb(251,224,101);fill-rule:nonzero;"/>
                <path d="M233.23,269.781C241.981,269.781 249.074,262.687 249.074,253.937C249.074,249.604 247.331,245.678 244.511,242.817C244.375,242.68 244.228,242.552 244.089,242.418C243.948,242.286 243.803,242.156 243.661,242.027C241.23,239.899 238.156,238.492 234.757,238.17C234.567,238.151 234.374,238.151 234.184,238.141C233.995,238.128 233.804,238.117 233.612,238.113C233.484,238.109 233.36,238.091 233.231,238.091C233.062,238.091 232.9,238.113 232.731,238.117C232.54,238.123 232.35,238.133 232.159,238.145C231.97,238.158 231.775,238.158 231.587,238.177C228.194,238.527 225.13,239.958 222.714,242.107C222.571,242.233 222.426,242.362 222.288,242.496C222.146,242.631 222.005,242.766 221.868,242.906C219.097,245.759 217.385,249.646 217.385,253.937C217.385,262.687 224.48,269.781 233.23,269.781" style="fill:rgb(255,200,40);fill-rule:nonzero;"/>
                <path d="M221.239,264.275C224.145,267.642 228.435,269.782 233.23,269.782C241.981,269.782 249.074,262.686 249.074,253.938C249.074,251.059 248.292,248.37 246.95,246.044L221.239,264.275Z" style="fill:rgb(251,224,101);fill-rule:nonzero;"/>
                <path d="M217.636,200.186L233.398,236.629C236.789,233.74 241.013,231.808 245.659,231.253L234.396,200.185" style="fill:rgb(240,81,46);fill-rule:nonzero;"/>
                <path d="M262.306,200.186L251.049,231.23C255.702,231.755 259.941,233.657 263.349,236.524L279.065,200.186" style="fill:rgb(240,81,46);fill-rule:nonzero;"/>
                <path d="M248.43,276C260.423,276 270.143,266.278 270.143,254.287C270.143,248.348 267.755,242.971 263.891,239.05C263.704,238.861 263.505,238.684 263.31,238.501C263.119,238.32 262.922,238.141 262.725,237.968C259.395,235.05 255.181,233.124 250.523,232.679C250.264,232.655 250,232.655 249.74,232.639C249.478,232.625 249.218,232.606 248.956,232.602C248.781,232.598 248.609,232.574 248.432,232.574C248.2,232.574 247.978,232.602 247.749,232.608C247.486,232.616 247.225,232.63 246.963,232.648C246.704,232.666 246.438,232.665 246.181,232.69C241.53,233.168 237.332,235.131 234.022,238.074C233.824,238.251 233.625,238.426 233.435,238.609C233.242,238.795 233.048,238.979 232.861,239.172C229.064,243.082 226.717,248.406 226.717,254.287C226.717,266.278 236.439,276 248.43,276" style="fill:rgb(255,200,40);fill-rule:nonzero;"/>
                <path d="M248.43,272.647C258.57,272.647 266.791,264.426 266.791,254.286C266.791,249.263 264.771,244.718 261.502,241.402C261.344,241.244 261.176,241.095 261.014,240.94C260.851,240.785 260.683,240.634 260.517,240.488C257.702,238.021 254.139,236.392 250.2,236.017C249.981,235.995 249.758,235.995 249.538,235.984C249.316,235.971 249.097,235.955 248.874,235.95C248.726,235.947 248.582,235.927 248.432,235.927C248.237,235.927 248.048,235.95 247.853,235.955C247.631,235.963 247.411,235.975 247.189,235.988C246.972,236.005 246.744,236.004 246.529,236.025C242.595,236.43 239.045,238.089 236.247,240.578C236.079,240.727 235.913,240.875 235.751,241.03C235.587,241.188 235.424,241.344 235.266,241.506C232.056,244.812 230.072,249.316 230.072,254.286C230.072,264.426 238.293,272.647 248.43,272.647" style="fill:rgb(251,224,101);fill-rule:nonzero;"/>
                <path d="M248.43,270.131C257.183,270.131 264.276,263.036 264.276,254.287C264.276,249.953 262.531,246.028 259.713,243.167C259.575,243.029 259.43,242.903 259.29,242.768C259.149,242.636 259.005,242.506 258.862,242.377C256.432,240.25 253.357,238.842 249.957,238.52C249.77,238.501 249.575,238.501 249.386,238.491C249.197,238.48 249.006,238.467 248.814,238.463C248.686,238.46 248.561,238.441 248.432,238.441C248.264,238.441 248.1,238.463 247.933,238.467C247.741,238.473 247.552,238.484 247.36,238.495C247.171,238.508 246.977,238.508 246.79,238.527C243.394,238.876 240.33,240.308 237.915,242.456C237.771,242.584 237.626,242.712 237.488,242.846C237.348,242.981 237.205,243.118 237.069,243.257C234.299,246.109 232.586,249.996 232.586,254.287C232.586,263.036 239.681,270.131 248.43,270.131" style="fill:rgb(255,200,40);fill-rule:nonzero;"/>
                <path d="M236.441,264.625C239.347,267.992 243.637,270.132 248.431,270.132C257.182,270.132 264.276,263.036 264.276,254.288C264.276,251.408 263.494,248.72 262.151,246.394L236.441,264.625Z" style="fill:rgb(251,224,101);fill-rule:nonzero;"/>
                <path d="M37.5452,151.753C37.5452,151.753 39.2897,144.546 33.2842,138.333C27.2616,132.118 19.7319,132.113 19.7319,132.113C19.7319,132.113 17.8978,140.585 23.7711,146.645C29.6274,152.703 37.5452,151.753 37.5452,151.753" style="fill:rgb(23,161,179);fill-rule:nonzero;"/>
                <path d="M50.7632,150.385C50.7632,150.385 57.7412,146.549 58.9839,138.207C60.2208,129.872 53.8044,124.052 53.8044,124.052C53.8044,124.052 47.6851,128.437 46.4183,136.995C45.1401,145.551 50.7632,150.385 50.7632,150.385" style="fill:rgb(23,161,179);fill-rule:nonzero;"/>
                <path d="M61.3925,171.329C61.3925,171.329 67.816,166.607 67.9653,158.183C68.0975,149.751 60.9745,144.821 60.9745,144.821C60.9745,144.821 55.4893,149.972 55.3457,158.624C55.1964,167.265 61.3925,171.329 61.3925,171.329" style="fill:rgb(23,161,179);fill-rule:nonzero;"/>
                <path d="M77.2096,183.375C77.2096,183.375 83.154,178.073 82.5085,169.673C81.8531,161.267 74.3049,157.024 74.3049,157.024C74.3049,157.024 69.316,162.664 69.9842,171.293C70.6482,179.916 77.2096,183.375 77.2096,183.375" style="fill:rgb(23,161,179);fill-rule:nonzero;"/>
                <path d="M97.0539,193.759C97.0539,193.759 101.23,186.966 98.1885,179.108C95.1473,171.25 86.6864,169.357 86.6864,169.357C86.6864,169.357 83.5372,176.197 86.6565,184.265C89.7873,192.332 97.0539,193.759 97.0539,193.759" style="fill:rgb(23,161,179);fill-rule:nonzero;"/>
                <path d="M40.3825,133.301C40.3825,133.301 45.8264,128.282 44.2724,119.773C42.7199,111.263 36.4513,107.082 36.4513,107.082C36.4513,107.082 30.224,113.117 31.7495,121.41C33.2665,129.704 40.3825,133.301 40.3825,133.301" style="fill:rgb(23,161,179);fill-rule:nonzero;"/>
                <path d="M44.8534,168.042C44.8534,168.042 44.3998,160.644 36.8232,156.48C29.2338,152.314 22.0454,154.526 22.0454,154.526C22.0454,154.526 22.7918,163.159 30.1708,167.223C37.5696,171.288 44.8534,168.042 44.8534,168.042" style="fill:rgb(23,161,179);fill-rule:nonzero;"/>
                <path d="M57.67,182.366C57.67,182.366 55.5786,175.255 47.2669,172.875C38.9496,170.498 32.4351,174.256 32.4351,174.256C32.4351,174.256 35.0838,182.508 43.1922,184.827C51.3005,187.145 57.67,182.366 57.67,182.366" style="fill:rgb(23,161,179);fill-rule:nonzero;"/>
                <path d="M71.9633,192.541C71.9633,192.541 67.8217,186.392 59.1759,186.649C50.5288,186.901 45.4502,192.451 45.4502,192.451C45.4502,192.451 50.4762,199.514 58.8887,199.276C67.3312,199.024 71.9633,192.541 71.9633,192.541" style="fill:rgb(23,161,179);fill-rule:nonzero;"/>
                <path d="M78.0809,196.688C69.5247,197.972 65.1385,204.097 65.1385,204.097C65.1385,204.097 70.9834,210.509 79.3064,209.259C87.6493,208.011 91.4725,201.013 91.4725,201.013C91.4725,201.013 86.6271,195.41 78.0809,196.688" style="fill:rgb(23,161,179);fill-rule:nonzero;"/>
                <path d="M43.2094,137.514L39.0919,137.376C39.0678,137.824 38.2673,182.538 105.838,202.365L106.99,198.402C42.6663,179.526 43.1553,139.223 43.2094,137.514" style="fill:rgb(59,192,195);fill-rule:nonzero;"/>
            </g>
        </g>
    </g>
</svg>
