<?xml version="1.0" standalone="no"?>
<!DOCTYPE svg PUBLIC "-//W3C//DTD SVG 1.1//EN" "http://www.w3.org/Graphics/SVG/1.1/DTD/svg11.dtd">
<svg width="150px" height="98px" version="1.1" xmlns="http://www.w3.org/2000/svg" xmlns:xlink="http://www.w3.org/1999/xlink" xml:space="preserve" style="fill-rule:evenodd;clip-rule:evenodd;stroke-linejoin:round;stroke-miterlimit:1.41421;">
    <g>
        <g id="Layer 1">
            <path d="M105.478,6.9609L95.3475,6.9609L95.3475,18.2859C95.3475,18.2859 96.9865,17.8949 100.142,17.8949C103.298,17.8949 105.478,17.9209 105.478,17.9209L105.478,6.9609Z" style="fill:rgb(49,48,42);fill-rule:nonzero;"/>
            <rect x="112.574" y="78.8776" width="5.104" height="14.411" style="fill:rgb(49,48,42);fill-rule:nonzero;"/>
            <rect x="89.345" y="79.8826" width="5.102" height="11.954" style="fill:rgb(49,48,42);fill-rule:nonzero;"/>
            <path d="M143.912,83.4893C138.521,93.7403 119.058,92.0873 109.418,91.9443C98.8121,91.7903 79.5681,90.3433 68.9711,90.0843C64.7241,89.9783 64.7381,96.5553 68.9711,96.6603C82.8751,97.0033 105.332,98.8793 119.279,98.4553C129.482,98.1433 144.201,97.0563 149.59,86.8103C151.566,83.0593 145.891,79.7363 143.912,83.4893" style="fill:rgb(62,58,53);fill-rule:nonzero;"/>
            <path d="M104.941,16.832C94.6564,16.832 95.9024,16.3 87.6994,17.371C79.4944,18.441 69.6504,25.944 65.2074,34.681C65.0134,35.061 64.8344,35.445 64.6524,35.832C64.4784,36.214 64.2914,36.587 64.1284,36.98L11.5934,41.697L11.5974,41.673L4.7894,42.512L4.7304,42.746L0.8654,52.472L62.0114,54.258C62.0624,54.628 62.1134,54.996 62.1794,55.359C62.2464,55.728 62.3004,56.101 62.3784,56.464C65.5624,71.297 74.8104,82.423 92.0034,82.423C109.197,82.423 99.2614,82.463 117.691,82.463C136.117,82.463 143.224,74.071 143.224,60.259C143.224,43.09 123.972,16.832 104.941,16.832" style="fill:rgb(243,118,52);fill-rule:nonzero;"/>
            <path d="M9.875,33.8857L11.572,20.7967L7.047,20.7967L3.434,34.4607L3.133,35.5917L2.805,37.0587L9.436,36.3057L9.875,33.8857Z" style="fill:rgb(62,58,53);fill-rule:nonzero;"/>
            <path d="M0,68.4521L4.99,68.4521L8.184,54.8221L8.818,52.4611L1.697,52.2461L1.184,54.6191L0,68.4521Z" style="fill:rgb(62,58,53);fill-rule:nonzero;"/>
            <path d="M110.318,64.0352C120.828,64.4972 135.67,64.2682 142.748,64.3372C143.05,63.0492 143.224,61.6972 143.224,60.2592C143.224,44.8772 130.197,15.0072 99.0394,16.6842C99.0394,25.8402 98.8184,41.0822 99.2614,51.9742C99.5074,58.0062 104.683,63.7872 110.318,64.0352" style="fill:rgb(188,190,192);fill-rule:nonzero;"/>
            <path d="M11.2578,36.1152L0.6488,36.1152L0.6738,52.7622L11.2828,52.7622L11.2578,36.1152Z" style="fill:rgb(218,54,50);fill-rule:nonzero;"/>
            <path d="M95.3535,21.1514C95.3535,25.7274 95.4645,47.9534 95.4645,52.3104C86.4175,52.4214 79.1605,50.7464 79.2715,37.2314C79.3735,24.9274 85.9725,21.1514 95.3535,21.1514" style="fill:white;fill-rule:nonzero;"/>
            <path d="M150.686,3.4805C150.686,5.4025 147.849,6.9605 144.35,6.9605L44.3415,6.9605C40.8425,6.9605 38.0045,5.4025 38.0045,3.4805C38.0045,1.5585 40.8425,0.0005 44.3415,0.0005L144.35,0.0005C147.849,0.0005 150.686,1.5585 150.686,3.4805" style="fill:rgb(62,58,53);fill-rule:nonzero;"/>
        </g>
    </g>
</svg>
