<?xml version="1.0" standalone="no"?>
<!DOCTYPE svg PUBLIC "-//W3C//DTD SVG 1.1//EN" "http://www.w3.org/Graphics/SVG/1.1/DTD/svg11.dtd">
<svg width="123px" height="123px" version="1.1" xmlns="http://www.w3.org/2000/svg" xmlns:xlink="http://www.w3.org/1999/xlink" xml:space="preserve" style="fill-rule:evenodd;clip-rule:evenodd;stroke-miterlimit:10;">
    <g>
        <g id="Layer 1">
            <g>
                <path d="M93.6812,81.9217L101.711,55.2807L19.7112,55.2807L29.8642,83.6557" style="fill:none;stroke-width:2.25px;stroke:rgb(88,89,91);"/>
            </g>
            <g>
                <path d="M90.4614,55.2811L35.1924,55.2811L34.9424,41.2811L90.2114,41.2811L90.4614,55.2811Z" style="fill:none;stroke-width:2.13px;stroke:rgb(88,89,91);"/>
            </g>
            <g>
                <rect x="74.113" y="31.054" width="7.932" height="10.227" style="fill:none;stroke-width:2.25px;stroke:rgb(88,89,91);"/>
            </g>
            <g>
                <path d="M36.3784,63.1658C36.3784,65.1618 34.7614,66.7768 32.7674,66.7768C30.7734,66.7768 29.1564,65.1618 29.1564,63.1658C29.1564,61.1718 30.7734,59.5568 32.7674,59.5568C34.7614,59.5568 36.3784,61.1718 36.3784,63.1658Z" style="fill:none;stroke-width:1.9px;stroke:rgb(88,89,91);"/>
            </g>
            <g>
                <path d="M49.4517,63.1658C49.4517,65.1618 47.8357,66.7768 45.8407,66.7768C43.8467,66.7768 42.2297,65.1618 42.2297,63.1658C42.2297,61.1718 43.8467,59.5568 45.8407,59.5568C47.8357,59.5568 49.4517,61.1718 49.4517,63.1658Z" style="fill:none;stroke-width:1.9px;stroke:rgb(88,89,91);"/>
            </g>
            <g>
                <path d="M62.5249,63.1658C62.5249,65.1618 60.9089,66.7768 58.9139,66.7768C56.9199,66.7768 55.3029,65.1618 55.3029,63.1658C55.3029,61.1718 56.9199,59.5568 58.9139,59.5568C60.9089,59.5568 62.5249,61.1718 62.5249,63.1658Z" style="fill:none;stroke-width:1.9px;stroke:rgb(88,89,91);"/>
            </g>
            <g>
                <path d="M75.5981,63.1658C75.5981,65.1618 73.9811,66.7768 71.9871,66.7768C69.9931,66.7768 68.3761,65.1618 68.3761,63.1658C68.3761,61.1718 69.9931,59.5568 71.9871,59.5568C73.9811,59.5568 75.5981,61.1718 75.5981,63.1658Z" style="fill:none;stroke-width:1.9px;stroke:rgb(88,89,91);"/>
            </g>
            <g>
                <path d="M25.5923,71.0311L96.9893,71.0311" style="fill:none;stroke-width:2.25px;stroke:rgb(88,89,91);"/>
            </g>
            <g>
                <path d="M2.8169,79.6082C5.8239,79.6082 9.0379,84.2392 12.4579,84.2382C15.5069,84.2382 18.7209,79.6072 22.0979,79.6072C25.1749,79.6072 28.3889,84.2382 31.7379,84.2372C34.8349,84.2372 38.0459,79.6062 41.3759,79.6062C44.4869,79.6062 47.7009,84.2372 51.0159,84.2372C54.1389,84.2372 57.3529,79.6062 60.6569,79.6062C63.7899,79.6062 67.0049,84.2372 70.2999,84.2362C73.4389,84.2362 76.6509,79.6052 79.9379,79.6052C83.0849,79.6052 86.2989,84.2362 89.5809,84.2362C92.7329,84.2362 95.9449,79.6052 99.2209,79.6052C102.38,79.6042 105.595,84.2352 108.869,84.2352C112.031,84.2352 115.247,79.6042 118.517,79.6042" style="fill:none;stroke-width:2.25px;stroke:rgb(88,89,91);"/>
            </g>
            <g>
                <path d="M8.3745,89.4627C11.1395,89.4627 14.0945,93.4317 17.2375,93.4307C20.0415,93.4307 22.9955,89.4617 26.1015,89.4617C28.9305,89.4617 31.8845,93.4307 34.9635,93.4307C37.8105,93.4297 40.7645,89.4607 43.8245,89.4607C46.6855,89.4607 49.6395,93.4297 52.6875,93.4297C55.5595,93.4297 58.5145,89.4607 61.5515,89.4607C64.4325,89.4607 67.3875,93.4297 70.4175,93.4287C73.3035,93.4287 76.2575,89.4597 79.2795,89.4597C82.1725,89.4597 85.1275,93.4287 88.1445,93.4287C91.0415,93.4287 93.9965,89.4597 97.0085,89.4597C99.9115,89.4597 102.869,93.4277 105.877,93.4277C108.786,93.4277 111.743,89.4587 114.748,89.4587" style="fill:none;stroke-width:2.25px;stroke:rgb(88,89,91);"/>
            </g>
            <g>
                <path d="M14.417,98.9627C16.838,98.9627 19.427,102.932 22.18,102.931C24.636,102.931 27.223,98.9617 29.942,98.9617C32.42,98.9617 35.008,102.931 37.705,102.931C40.199,102.93 42.785,98.9607 45.466,98.9607C47.971,98.9607 50.559,102.93 53.228,102.93C55.743,102.93 58.331,98.9607 60.992,98.9607C63.515,98.9607 66.104,102.93 68.757,102.93C71.285,102.929 73.872,98.9597 76.518,98.9597C79.052,98.9597 81.64,102.929 84.283,102.929C86.82,102.929 89.408,98.9597 92.046,98.9597C94.589,98.9597 97.178,102.928 99.814,102.928C102.36,102.928 104.95,98.9587 107.584,98.9587" style="fill:none;stroke-width:2.25px;stroke:rgb(88,89,91);"/>
            </g>
            <g>
                <path d="M121.526,61.0643C121.526,94.3693 94.5279,121.367 61.2249,121.367C27.9229,121.367 0.9249,94.3693 0.9249,61.0643C0.9249,27.7613 27.9229,0.7653 61.2249,0.7653C94.5279,0.7653 121.526,27.7613 121.526,61.0643Z" style="fill:none;stroke-width:2.25px;stroke:rgb(88,89,91);"/>
            </g>
            <g>
                <clipPath id="tag1">
                    <path d="M-0.235,61.064C-0.235,94.369 26.763,121.367 60.065,121.367C93.367,121.367 120.366,94.369 120.366,61.064C120.366,27.762 93.367,0.765 60.065,0.765C26.763,0.765 -0.235,27.762 -0.235,61.064Z"/>
                </clipPath>
                <g clip-path="url(#tag1)">
                    <path d="M23.333,109.33C25.42,109.33 27.652,113.564 30.025,113.563C32.143,113.563 34.374,109.329 36.719,109.329C38.855,109.329 41.087,113.563 43.412,113.563C45.562,113.562 47.792,109.328 50.104,109.328C52.265,109.328 54.496,113.562 56.797,113.562C58.964,113.562 61.194,109.328 63.486,109.328C65.662,109.328 67.895,113.562 70.183,113.561C72.363,113.561 74.594,109.327 76.876,109.327C79.061,109.327 81.293,113.561 83.572,113.561C85.761,113.561 87.992,109.327 90.267,109.327C92.46,109.327 94.693,113.56 96.966,113.56C99.162,113.56 101.396,109.326 103.666,109.326" style="fill:none;stroke-width:2.4px;stroke:rgb(88,89,91);"/>
                </g>
            </g>
        </g>
    </g>
</svg>
