<?xml version="1.0" standalone="no"?>
<!DOCTYPE svg PUBLIC "-//W3C//DTD SVG 1.1//EN" "http://www.w3.org/Graphics/SVG/1.1/DTD/svg11.dtd">
<svg width="122px" height="122px" version="1.1" xmlns="http://www.w3.org/2000/svg" xmlns:xlink="http://www.w3.org/1999/xlink" xml:space="preserve" style="fill-rule:evenodd;clip-rule:evenodd;stroke-miterlimit:10;">
    <g>
        <g id="Layer 1">
            <path d="M121.727,61.4243C121.727,94.7293 94.7286,121.727 61.4256,121.727C28.1226,121.727 1.1246,94.7293 1.1246,61.4243C1.1246,28.1213 28.1226,1.1253 61.4256,1.1253C94.7286,1.1253 121.727,28.1213 121.727,61.4243Z" style="fill:none;stroke-width:2.25px;stroke:rgb(88,89,91);"/>
            <path d="M74.4658,45.0043C72.6778,54.9213 57.1878,79.5243 57.1878,79.5243C57.1878,79.5243 41.5938,54.9213 39.8048,45.0043C37.4198,31.7763 41.9558,19.6583 57.1878,19.6583C72.4168,19.6583 76.8538,31.7763 74.4658,45.0043Z" style="fill:none;stroke-width:2.25px;stroke:rgb(88,89,91);"/>
            <path d="M70.1582,41.3344C70.1582,48.2514 64.5512,53.8594 57.6332,53.8594C50.7152,53.8594 45.1082,48.2514 45.1082,41.3344C45.1082,34.4174 50.7152,28.8094 57.6332,28.8094C64.5512,28.8094 70.1582,34.4174 70.1582,41.3344Z" style="fill:none;stroke-width:2.25px;stroke:rgb(88,89,91);"/>
            <path d="M64,47.2905L64,38.7655L57.633,32.8455L51.264,38.5285L51.264,47.2905L64,47.2905Z" style="fill:none;stroke-width:2.25px;stroke:rgb(88,89,91);"/>
            <path d="M55.6055,47.2905L55.6055,40.7415L59.8225,40.7415L59.8225,46.9315" style="fill:none;stroke-width:2.25px;stroke:rgb(88,89,91);"/>
            <path d="M70.5273,55.6176L99.7843,55.0876L109.926,89.6836L14.6013,89.6836L23.4573,54.9996L44.4983,55.6456" style="fill:none;stroke-width:2.25px;stroke:rgb(88,89,91);"/>
            <path d="M31.123,89.684L31.123,81.192L39.206,81.192L35.164,72.668L40.123,72.342L42.123,64.989L46.873,63.866" style="fill:none;stroke-width:2.25px;stroke:rgb(88,89,91);"/>
            <path d="M51.0547,69.3115L45.1307,72.6685L43.3727,76.7745L48.6227,78.3145L48.6227,83.4325L39.2057,85.9225L40.8727,89.6845" style="fill:none;stroke-width:2.25px;stroke:rgb(88,89,91);"/>
            <path d="M55.6055,89.684L53.9185,84.422L59.8225,83.433L64.0005,79.324L65.6235,74.811L71.3735,73.746L76.3735,78.314L75.0725,81.192L71.8735,83.433L79.6235,84.922L80.8735,88.672" style="fill:none;stroke-width:2.25px;stroke:rgb(88,89,91);"/>
            <path d="M87.623,89.684L84.373,83.433L84.373,78.314L85.998,74.811L88.873,74.811L92.373,78.314L93.873,81.104L96.873,78.993L96.873,72.668L100.373,69.311L102.373,68.302" style="fill:none;stroke-width:2.25px;stroke:rgb(88,89,91);"/>
            <path d="M100.873,62.7167L95.373,64.9887L91.123,66.9227L85.873,68.3017L82.623,65.5087L84.373,61.4257L78.623,60.4227L75.072,62.6727L72.373,60.4227" style="fill:none;stroke-width:2.25px;stroke:rgb(88,89,91);"/>
            <path d="M19.4209,70.8071L24.3729,70.8071L31.1229,68.3021L33.8729,62.7171L33.8729,60.4221L45.1079,58.3611" style="fill:none;stroke-width:2.25px;stroke:rgb(88,89,91);"/>
            <path d="M25.623,89.684L25.623,83.433L22.623,79.524L19.421,79.079L17.897,76.775" style="fill:none;stroke-width:2.25px;stroke:rgb(88,89,91);"/>
        </g>
    </g>
</svg>
