<?xml version="1.0" standalone="no"?>
<!DOCTYPE svg PUBLIC "-//W3C//DTD SVG 1.1//EN" "http://www.w3.org/Graphics/SVG/1.1/DTD/svg11.dtd">
<svg width="145px" height="91px" version="1.1" xmlns="http://www.w3.org/2000/svg" xmlns:xlink="http://www.w3.org/1999/xlink" xml:space="preserve" style="fill-rule:evenodd;clip-rule:evenodd;stroke-linejoin:round;stroke-miterlimit:1.41421;">
    <g>
        <g id="Layer 1">
            <path d="M7.7207,34.7148C7.7207,34.7148 2.9767,33.3028 1.1097,36.0268C-0.7573,38.7538 2.0177,41.7308 2.0177,41.7308L7.7207,34.7148Z" style="fill:rgb(239,61,55);fill-rule:nonzero;"/>
            <path d="M14.3633,32.8359C14.3633,32.8359 13.4553,32.9339 10.6313,32.9339C7.8033,32.9339 0.6723,40.8709 1.3453,43.6969C2.0173,46.5239 5.7853,46.5239 5.7853,46.5239L14.3203,42.3889L14.3633,32.8359Z" style="fill:rgb(209,200,171);fill-rule:nonzero;"/>
            <path d="M119.791,73.9726C119.791,69.9276 123.071,66.6486 127.116,66.6486C131.162,66.6486 134.44,69.9276 134.44,73.9726C134.44,78.0196 131.162,81.2986 127.116,81.2986C123.071,81.2986 119.791,78.0196 119.791,73.9726M109.147,73.9726C109.147,83.8966 117.195,91.9416 127.116,91.9416C137.039,91.9416 145.084,83.8966 145.084,73.9726C145.084,64.0506 137.039,56.0036 127.116,56.0036C117.195,56.0036 109.147,64.0506 109.147,73.9726" style="fill:rgb(46,44,38);fill-rule:nonzero;"/>
            <path d="M117.621,73.7969C117.621,68.5239 121.893,64.2519 127.166,64.2519C132.438,64.2519 136.712,68.5239 136.712,73.7969C136.712,79.0699 132.438,83.3419 127.166,83.3419C121.893,83.3419 117.621,79.0699 117.621,73.7969" style="fill:white;fill-rule:nonzero;"/>
            <path d="M124.887,73.7969C124.887,72.5369 125.908,71.5179 127.166,71.5179C128.425,71.5179 129.446,72.5369 129.446,73.7969C129.446,75.0549 128.425,76.0759 127.166,76.0759C125.908,76.0759 124.887,75.0549 124.887,73.7969" style="fill:rgb(46,44,38);fill-rule:nonzero;"/>
            <path d="M20.5566,73.7969C20.5566,69.7499 23.8376,66.4689 27.8826,66.4689C31.9276,66.4689 35.2076,69.7499 35.2076,73.7969C35.2076,77.8439 31.9276,81.1229 27.8826,81.1229C23.8376,81.1229 20.5566,77.8439 20.5566,73.7969M9.9146,73.7969C9.9146,83.7189 17.9626,91.7659 27.8826,91.7659C37.8046,91.7659 45.8496,83.7189 45.8496,73.7969C45.8496,63.8729 37.8046,55.8279 27.8826,55.8279C17.9626,55.8279 9.9146,63.8729 9.9146,73.7969" style="fill:rgb(46,44,38);fill-rule:nonzero;"/>
            <path d="M18.3379,73.7969C18.3379,68.5239 22.6109,64.2519 27.8829,64.2519C33.1539,64.2519 37.4289,68.5239 37.4289,73.7969C37.4289,79.0699 33.1539,83.3419 27.8829,83.3419C22.6109,83.3419 18.3379,79.0699 18.3379,73.7969" style="fill:white;fill-rule:nonzero;"/>
            <path d="M25.6035,73.7969C25.6035,72.5369 26.6235,71.5179 27.8825,71.5179C29.1415,71.5179 30.1625,72.5369 30.1625,73.7969C30.1625,75.0549 29.1415,76.0759 27.8825,76.0759C26.6235,76.0759 25.6035,75.0549 25.6035,73.7969" style="fill:rgb(46,44,38);fill-rule:nonzero;"/>
            <path d="M70.0361,26.7422C70.0361,24.0682 67.8671,21.8982 65.1911,21.8982L19.0411,21.8982C16.3651,21.8982 14.1971,24.0682 14.1971,26.7422L14.1971,32.9332L70.0361,32.9332L70.0361,26.7422Z" style="fill:rgb(62,58,53);fill-rule:nonzero;"/>
            <path d="M77.8408,77.0684C77.8408,77.8844 77.1778,78.5484 76.3608,78.5484L63.0408,78.5484C62.2218,78.5484 61.5588,77.8844 61.5588,77.0684C61.5588,76.2484 62.2218,75.5844 63.0408,75.5844L76.3608,75.5844C77.1778,75.5844 77.8408,76.2484 77.8408,77.0684" style="fill:rgb(62,58,53);fill-rule:nonzero;"/>
            <path d="M79.4551,78.0762C79.4551,80.0452 77.8591,81.6402 75.8891,81.6402C73.9201,81.6402 72.3241,80.0452 72.3241,78.0762L72.3241,74.3082C72.3241,72.3402 73.9201,70.7422 75.8891,70.7422C77.8591,70.7422 79.4551,72.3402 79.4551,74.3082L79.4551,78.0762Z" style="fill:rgb(46,44,38);fill-rule:nonzero;"/>
            <path d="M96.6777,10.3281L105.827,38.9881C105.827,38.9881 103.809,59.7091 98.9647,64.1481C94.1217,68.5901 90.8907,68.1871 90.8907,68.1871L69.9017,68.1871C65.1917,68.1871 57.9257,59.0351 60.7497,51.6371C63.5777,44.2361 69.9717,37.9181 69.9717,32.8051C63.9177,32.8051 14.2387,32.9241 14.2387,32.9241L10.0247,40.4671L48.6427,67.6481C48.6427,67.6481 49.0447,74.2421 56.5797,74.2421L96.5427,74.2421L103.271,70.4731L110.942,70.8771C110.942,70.8771 122.377,55.6721 145.924,55.8071C140.004,42.4841 122.782,44.9081 122.782,44.9081L120.629,39.1211C120.629,39.1211 111.748,35.8921 109.864,30.2421C107.981,24.5901 104.886,11.6741 104.886,11.6741L96.6777,10.3281Z" style="fill:rgb(139,146,65);fill-rule:nonzero;"/>
            <clipPath id="tag1">
                <path d="M105.827,38.9884C105.827,38.9884 103.809,59.7084 98.965,64.1484C94.122,68.5904 90.891,68.1874 90.891,68.1874L69.901,68.1874C65.191,68.1874 57.926,59.0354 60.75,51.6364C63.578,44.2364 69.971,37.9184 69.971,32.8054C63.918,32.8054 14.238,32.9234 14.238,32.9234L10.024,40.4664L48.642,67.6484C48.642,67.6484 49.045,74.2424 56.58,74.2424L96.543,74.2424L103.271,70.4724L110.941,70.8774C110.941,70.8774 122.377,55.6724 145.924,55.8064C140.004,42.4844 122.782,44.9084 122.782,44.9084L120.629,39.1214C120.629,39.1214 111.748,35.8934 109.863,30.2414C107.98,24.5894 104.886,11.6744 104.886,11.6744L96.678,10.3284L105.827,38.9884Z"/>
            </clipPath>
            <g clip-path="url(#tag1)">
                <rect x="71.248" y="64.5524" width="18.701" height="11.84" style="fill:rgb(139,146,65);fill-rule:nonzero;"/>
            </g>
            <path d="M52.1406,59.4394C52.1406,62.4084 51.5156,65.2484 50.3746,67.8554C32.3306,67.8554 12.8946,67.5544 1.6366,67.5544C0.5776,65.0274 -0.0004,62.2944 -0.0004,59.4394C-0.0004,46.6214 11.6716,36.2284 26.0716,36.2284C40.4686,36.2284 52.1406,46.6214 52.1406,59.4394" style="fill:rgb(139,146,65);fill-rule:nonzero;"/>
            <path d="M123.015,44.8809C113.635,50.6639 107.082,60.2069 103.246,70.4899L110.942,70.8769C110.942,70.8769 122.377,55.6719 145.924,55.8069C140.408,43.3929 125.077,44.6519 123.015,44.8809" style="fill:rgb(139,146,65);fill-rule:nonzero;"/>
            <path d="M51.332,67.2461C51.332,68.6561 50.271,69.8011 48.965,69.8011L2.491,69.8011C1.184,69.8011 0.125,68.6561 0.125,67.2461C0.125,65.8321 1.184,64.6871 2.491,64.6871L48.965,64.6871C50.271,64.6871 51.332,65.8321 51.332,67.2461" style="fill:rgb(237,223,189);fill-rule:nonzero;"/>
            <path d="M107.51,0L106.701,0L106.701,13.018L107.51,13.018C110.183,13.018 112.354,10.85 112.354,8.176L112.354,4.844C112.354,2.168 110.183,0 107.51,0" style="fill:rgb(237,223,189);fill-rule:nonzero;"/>
            <path d="M100.949,0C98.2752,0 96.1052,2.168 96.1052,4.844L96.1052,8.176C96.1052,10.85 98.2752,13.018 100.949,13.018L106.701,13.018L106.701,0L100.949,0Z" style="fill:rgb(139,146,64);fill-rule:nonzero;"/>
            <path d="M87.0752,9.5293C85.7052,10.0043 84.9782,11.4983 85.4532,12.8673C85.8262,13.9533 86.8442,14.6343 87.9312,14.6343C88.2142,14.6343 88.5042,14.5863 88.7872,14.4903L94.7462,12.4313L92.8462,7.5373L87.0752,9.5293Z" style="fill:rgb(62,58,53);fill-rule:nonzero;"/>
            <path d="M101.512,7.3184C101.039,5.9494 99.5447,5.2204 98.1757,5.6934L92.8457,7.5374L94.7457,12.4314L99.8887,10.6544C101.258,10.1814 101.987,8.6894 101.512,7.3184" style="fill:rgb(139,146,65);fill-rule:nonzero;"/>
        </g>
    </g>
</svg>
