<?xml version="1.0" standalone="no"?>
<!DOCTYPE svg PUBLIC "-//W3C//DTD SVG 1.1//EN" "http://www.w3.org/Graphics/SVG/1.1/DTD/svg11.dtd">
<svg width="122px" height="122px" version="1.1" xmlns="http://www.w3.org/2000/svg" xmlns:xlink="http://www.w3.org/1999/xlink" xml:space="preserve" style="fill-rule:evenodd;clip-rule:evenodd;stroke-miterlimit:10;">
    <g>
        <g id="Layer 1">
            <path d="M121.726,61.4252C121.726,94.7292 94.7281,121.727 61.4251,121.727C28.1221,121.727 1.1251,94.7292 1.1251,61.4252C1.1251,28.1222 28.1221,1.1252 61.4251,1.1252C94.7281,1.1252 121.726,28.1222 121.726,61.4252Z" style="fill:none;stroke-width:2.25px;stroke:rgb(88,89,91);"/>
            <path d="M69.3179,84.9873C66.1839,84.4343 63.3399,85.4923 61.5529,86.4373C59.7659,85.4923 56.9219,84.4343 53.7889,84.9873C47.4319,86.1083 46.0959,92.1083 39.0839,91.7303C41.1179,95.5073 47.2519,97.6933 53.5999,96.5283C57.6969,95.7763 60.1269,93.7703 61.5529,91.8573C62.9789,93.7703 65.4099,95.7763 69.5059,96.5283C75.8549,97.6933 81.9889,95.5073 84.0229,91.7303C77.0089,92.1083 75.6739,86.1083 69.3179,84.9873Z" style="fill:none;stroke-width:2.25px;stroke:rgb(88,89,91);"/>
            <path d="M94.4263,47.8227C94.3563,46.8657 93.3953,49.9457 93.4583,48.7627C94.4263,30.8227 86.3213,17.4377 63.7393,16.0727C37.5813,14.4907 30.4263,26.0727 29.8003,48.5707C23.8243,50.2277 20.4533,52.2277 20.4533,54.5447C20.4533,59.8417 39.1983,67.8647 62.3213,67.8647C85.4443,67.8647 104.188,59.8417 104.188,54.5447C104.188,52.1287 100.868,49.5097 94.4263,47.8227Z" style="fill:none;stroke-width:2.25px;stroke:rgb(88,89,91);"/>
            <path d="M29.5532,48.0727L29.5532,52.6837C29.5532,52.6837 63.5532,68.1837 93.5532,52.6837L93.4892,48.0727" style="fill:none;stroke-width:2.25px;stroke:rgb(88,89,91);"/>
            <path d="M49.7397,26.0727C49.7397,26.0727 58.4037,36.8267 73.7397,26.0727" style="fill:none;stroke-width:2.25px;stroke:rgb(88,89,91);"/>
        </g>
    </g>
</svg>
