<?xml version="1.0" standalone="no"?>
<!DOCTYPE svg PUBLIC "-//W3C//DTD SVG 1.1//EN" "http://www.w3.org/Graphics/SVG/1.1/DTD/svg11.dtd">
<svg width="122px" height="122px" version="1.1" xmlns="http://www.w3.org/2000/svg" xmlns:xlink="http://www.w3.org/1999/xlink" xml:space="preserve" style="fill-rule:evenodd;clip-rule:evenodd;stroke-miterlimit:10;">
    <g>
        <g id="Layer 1">
            <path d="M121.727,61.4243C121.727,94.7293 94.7286,121.727 61.4256,121.727C28.1226,121.727 1.1246,94.7293 1.1246,61.4243C1.1246,28.1213 28.1226,1.1253 61.4256,1.1253C94.7286,1.1253 121.727,28.1213 121.727,61.4243Z" style="fill:none;stroke-width:2.25px;stroke:rgb(88,89,91);"/>
            <path d="M61.9883,59.0424C66.2893,59.0424 69.7753,62.5284 69.7753,66.8284C69.7753,71.1294 66.2893,74.6154 61.9883,74.6154C57.6883,74.6154 54.2023,71.1294 54.2023,66.8284C54.2023,62.5284 57.6883,59.0424 61.9883,59.0424Z" style="fill:none;stroke-width:2.25px;stroke:rgb(88,89,91);"/>
            <path d="M91.0225,55.2788L78.9585,55.2788L78.9585,47.1298L91.0215,47.1298L91.0215,55.2788L91.0225,55.2788ZM62.1575,82.6148C53.4395,82.6148 46.3725,75.5488 46.3725,66.8288C46.3725,58.1118 53.4395,51.0448 62.1575,51.0448C70.8755,51.0448 77.9435,58.1118 77.9435,66.8288C77.9445,75.5488 70.8755,82.6148 62.1575,82.6148ZM92.0565,43.0478L92.0565,43.0168L78.4165,43.0168L78.4165,40.7318C78.4165,39.0488 77.0505,37.6838 75.3695,37.6838L48.5415,37.6838C46.8575,37.6838 45.4945,39.0488 45.4945,40.7318L45.4945,43.0168L31.8515,43.0168L31.8515,43.0478C30.1685,43.0478 28.8055,44.4108 28.8055,46.0928L28.8055,87.5658C28.8055,89.2478 30.1685,90.6118 31.8515,90.6118L31.8515,90.6418L92.0565,90.6418L92.0565,90.6118C93.7395,90.6118 95.1045,89.2478 95.1045,87.5658L95.1045,46.0928C95.1045,44.4108 93.7395,43.0478 92.0565,43.0478Z" style="fill:none;stroke-width:2.25px;stroke:rgb(88,89,91);"/>
            <path d="M85.0459,38.7045L78.5449,26.2565" style="fill:none;stroke-width:2.25px;stroke:rgb(88,89,91);"/>
            <path d="M100.046,26.2563L93.5449,38.7043" style="fill:none;stroke-width:2.25px;stroke:rgb(88,89,91);"/>
            <path d="M89.2236,38.7045L89.2236,23.8655" style="fill:none;stroke-width:2.12px;stroke:rgb(88,89,91);"/>
            <path d="M40.478,51.2729C40.478,53.0679 38.955,54.5229 37.075,54.5229C35.195,54.5229 33.672,53.0679 33.672,51.2729C33.672,49.4779 35.195,48.0229 37.075,48.0229C38.955,48.0229 40.478,49.4779 40.478,51.2729Z" style="fill:none;stroke-width:2.25px;stroke:rgb(88,89,91);"/>
        </g>
    </g>
</svg>
