<?xml version="1.0" standalone="no"?>
<!DOCTYPE svg PUBLIC "-//W3C//DTD SVG 1.1//EN" "http://www.w3.org/Graphics/SVG/1.1/DTD/svg11.dtd">
<svg width="122px" height="122px" version="1.1" xmlns="http://www.w3.org/2000/svg" xmlns:xlink="http://www.w3.org/1999/xlink" xml:space="preserve" style="fill-rule:evenodd;clip-rule:evenodd;stroke-miterlimit:10;">
    <g>
        <g id="Layer 1">
            <path d="M121.727,61.4252C121.727,94.7292 94.7286,121.727 61.4256,121.727C28.1226,121.727 1.1246,94.7292 1.1246,61.4252C1.1246,28.1222 28.1226,1.1252 61.4256,1.1252C94.7286,1.1252 121.727,28.1222 121.727,61.4252Z" style="fill:none;stroke-width:2.25px;stroke:rgb(88,89,91);"/>
            <path d="M73.8584,67.3325C75.1214,66.3535 75.3524,64.5355 74.3754,63.2705C73.3964,62.0075 71.5794,61.7735 70.3134,62.7545L59.7494,70.9315C59.5664,71.0715 59.4084,71.2305 59.2694,71.4035C58.0874,72.3385 57.1114,73.1415 56.6174,73.6125C54.6714,75.4705 53.7784,79.2315 55.9214,82.3485L52.4924,85.2145L62.3154,97.7635L67.5134,94.3935C67.5134,94.3935 71.3704,97.8285 75.0554,95.8305C78.7404,93.8345 82.0744,90.1625 83.9664,88.7625" style="fill:none;stroke-width:2.25px;stroke:rgb(88,89,91);"/>
            <path d="M40.8213,118.113L63.7103,99.4142L63.0853,98.6742L51.3563,84.7962L50.9323,84.2952L22.5433,105.516" style="fill:none;stroke-width:2.25px;stroke:rgb(88,89,91);"/>
            <path d="M73.4668,63.5288C76.5518,61.0988 76.2238,58.7158 77.2828,54.7148C82.1178,51.9238 85.1998,48.1108 86.4488,43.3568C89.3638,32.2698 80.3608,18.9908 80.0098,18.4808" style="fill:none;stroke-width:2.25px;stroke:rgb(88,89,91);"/>
            <path d="M76.7275,94.1938C77.1545,96.2058 77.2145,98.0518 72.9895,100.118C72.9895,100.118 70.3695,101.598 71.9075,104.747L83.7535,98.9568L95.6005,93.1638C94.0605,90.0158 91.2825,91.1728 91.2825,91.1728C87.0575,93.2388 84.2515,90.8518 82.9245,89.2808" style="fill:none;stroke-width:2.25px;stroke:rgb(88,89,91);"/>
            <path d="M80.5752,18.1108L72.5672,22.1188L73.3012,23.6188C73.7422,24.5178 74.1792,25.7178 73.6602,26.3948C73.3222,26.7388 72.1202,27.3628 70.6222,28.0378C69.5342,25.7978 68.6932,24.0768 68.5962,23.8748L33.8642,40.8578C33.9532,41.0368 34.8012,42.7678 35.9022,45.0108C34.4282,45.7938 33.1722,46.3718 32.6882,46.4278C31.8342,46.4228 31.1572,45.3398 30.7182,44.4398L29.9842,42.9408L22.5432,46.5788L22.9792,47.9518C23.0252,48.0978 24.1502,51.6008 26.5512,55.6748C29.7842,61.1598 33.8202,65.0548 38.2212,66.9378C42.7582,68.8798 47.6792,68.7818 52.8732,66.6548C56.6602,68.2628 60.4292,68.3848 64.2452,67.4508" style="fill:none;stroke-width:2.25px;stroke:rgb(88,89,91);"/>
            <path d="M39.5459,63.8735C34.8339,61.8615 31.4649,57.4205 29.4669,54.0485C28.1019,51.7415 27.1699,49.6025 26.6519,48.2855L28.5149,47.3745C29.9229,49.3485 31.5309,49.7915 32.7219,49.7775C33.7449,49.7655 35.5559,48.9755 37.3789,48.0195C39.3079,51.9385 41.3399,56.0585 41.4909,56.3235C43.4279,59.6965 45.9979,62.4525 48.9039,64.4635C45.5789,65.3055 42.4439,65.1115 39.5459,63.8735Z" style="fill:none;stroke-width:2.25px;stroke:rgb(88,89,91);"/>
            <path d="M81.6523,28.5327C83.0873,32.1797 84.5213,37.5677 83.2163,42.5207C82.4193,45.5467 80.6663,48.1257 77.9913,50.2227C78.1823,46.7707 77.6133,43.1347 76.2053,39.6057C76.0763,39.2817 74.0263,35.0467 72.0863,31.0507C73.9423,30.2037 75.6533,29.2707 76.2843,28.4777C77.0263,27.5467 77.6623,26.0067 76.9683,23.6837L78.8323,22.7727C79.5533,23.9897 80.6713,26.0397 81.6523,28.5327Z" style="fill:none;stroke-width:2.25px;stroke:rgb(88,89,91);"/>
            <path d="M81.8926,66.6889C81.1216,65.3319 79.7756,64.6409 78.8906,65.1449L69.3926,70.5559C68.5076,71.0609 68.4146,72.5689 69.1886,73.9239C69.9606,75.2819 71.3066,75.9739 72.1926,75.4669L81.6886,70.0579C82.5746,69.5539 82.6656,68.0449 81.8926,66.6889Z" style="fill:none;stroke-width:2.25px;stroke:rgb(88,89,91);"/>
            <path d="M89.8994,81.9243C89.1574,80.6203 87.8094,79.9863 86.8904,80.5073L77.0454,86.1173C76.1274,86.6413 75.9854,88.1213 76.7274,89.4253C77.4694,90.7293 78.8184,91.3633 79.7354,90.8413L89.5834,85.2323C90.5004,84.7103 90.6424,83.2283 89.8994,81.9243Z" style="fill:none;stroke-width:2.25px;stroke:rgb(88,89,91);"/>
            <path d="M88.252,76.2133C87.48,74.8573 85.942,74.2753 84.817,74.9153L72.766,81.7823C71.642,82.4213 71.356,84.0403 72.13,85.3983C72.902,86.7523 74.44,87.3333 75.564,86.6943L87.617,79.8283C88.739,79.1883 89.025,77.5683 88.252,76.2133Z" style="fill:none;stroke-width:2.25px;stroke:rgb(88,89,91);"/>
            <path d="M85.3398,71.186C84.5688,69.831 83.0298,69.249 81.9058,69.888L69.8548,76.755C68.7298,77.394 68.4448,79.014 69.2178,80.371C69.9898,81.726 71.5278,82.307 72.6518,81.667L84.7058,74.801C85.8278,74.161 86.1128,72.541 85.3398,71.186Z" style="fill:none;stroke-width:2.25px;stroke:rgb(88,89,91);"/>
        </g>
    </g>
</svg>
