<?xml version="1.0" standalone="no"?>
<!DOCTYPE svg PUBLIC "-//W3C//DTD SVG 1.1//EN" "http://www.w3.org/Graphics/SVG/1.1/DTD/svg11.dtd">
<svg width="766px" height="300px" version="1.1" xmlns="http://www.w3.org/2000/svg" xmlns:xlink="http://www.w3.org/1999/xlink" xml:space="preserve" style="fill-rule:evenodd;clip-rule:evenodd;stroke-linejoin:round;stroke-miterlimit:1.41421;">
    <g>
        <g id="Layer1">
            <g>
                <path d="M46.8403,-0.3749C46.7363,2.8561 46.6283,6.0871 46.5273,9.3191C46.3933,13.6321 46.1053,17.9481 46.1833,22.2571C46.2463,25.6781 46.5713,29.1211 47.1183,32.5001C48.0433,38.2081 51.1973,42.5441 55.9583,45.7791C61.0063,49.2081 66.5933,51.4211 72.3813,53.1901C80.4203,55.6471 88.6563,57.1581 96.9783,58.2571C107.525,59.6481 118.119,60.4091 128.75,60.6941C131.786,60.7751 134.822,60.8871 137.859,60.9251C143.216,60.9921 148.573,61.0471 153.93,61.0471C312.763,61.0531 471.596,61.0591 630.429,61.0271C636.578,61.0251 642.731,60.4051 648.876,60.4991C668.891,60.8061 688.399,63.9131 706.901,71.9321C723.512,79.1311 737.427,89.7301 747.702,104.811C754.822,115.261 759.295,126.804 761.736,139.167C763.157,146.359 763.829,153.629 763.899,160.957C763.903,161.352 763.9,161.746 763.9,162.275C763.367,162.305 762.906,162.354 762.444,162.354C748.485,162.358 734.525,162.341 720.566,162.385C719.342,162.389 719.064,162.046 719.036,160.848C718.823,151.869 717.497,143.122 713.453,134.956C708.941,125.847 701.778,119.473 692.866,114.898C685.048,110.885 676.694,108.56 668.07,107.077C659.01,105.519 649.873,104.95 640.719,105.475C627.248,106.249 613.775,105.851 600.306,105.855C448.913,105.902 297.52,105.892 146.127,105.863C138.134,105.861 130.138,105.659 122.152,105.348C110.691,104.902 99.2653,103.959 87.9103,102.289C72.7713,100.062 57.9233,96.7361 43.9303,90.3111C33.1463,85.3601 23.5913,78.7461 16.0663,69.4371C8.9173,60.5941 4.6153,50.4691 2.7693,39.3101C2.1003,35.2621 1.8923,31.1381 1.4643,27.0501C1.4283,26.7041 1.3173,26.3661 1.2403,26.0251L1.2403,15.2251C1.3163,14.9291 1.4453,14.6351 1.4583,14.3361C1.5543,12.1031 1.6613,9.8701 1.6973,7.6351C1.7403,4.9651 1.7153,2.2951 1.7203,-0.3749L46.8403,-0.3749Z" style="fill:rgb(209,211,212);"/>
            </g>
            <g>
                <path d="M44.9997,300.221L-0.000140865,300.117L0.00120108,299.533L0.0055833,298.9L0.0128862,298.268L0.0231024,297.638L0.0362331,297.009L0.0522743,296.383L0.0712229,295.758L0.0930818,295.135L0.117842,294.515L0.145502,293.896L0.176064,293.278L0.209519,292.663L0.245866,292.049L0.285106,291.438L0.327238,290.828L0.372244,290.22L0.420146,289.613L0.470924,289.009L0.524572,288.406L0.581104,287.805L0.640501,287.206L0.702772,286.609L0.76791,286.014L0.835905,285.421L0.906758,284.829L0.980464,284.239L1.05702,283.652L1.13645,283.065L1.21871,282.481L1.30381,281.899L1.39176,281.318L1.48252,280.74L1.57613,280.163L1.67258,279.588L1.77183,279.015L1.87389,278.444L1.9788,277.874L2.08651,277.307L2.19699,276.742L2.3103,276.178L2.4264,275.616L2.54532,275.056L2.66699,274.498L2.79145,273.942L2.91866,273.388L3.04867,272.836L3.18148,272.285L3.31698,271.737L3.45525,271.191L3.59627,270.646L3.74001,270.104L3.88654,269.563L4.0357,269.025L4.18761,268.488L4.34229,267.953L4.49964,267.421L4.65965,266.89L4.82236,266.361L4.98777,265.835L5.15588,265.31L5.32659,264.787L5.49991,264.267L5.67597,263.748L5.85464,263.232L6.03592,262.717L6.21977,262.205L6.40627,261.694L6.59537,261.186L6.787,260.68L6.98134,260.176L7.17805,259.674L7.37735,259.174L7.57936,258.676L7.78381,258.18L7.9907,257.687L8.20011,257.195L8.41206,256.706L8.62641,256.219L8.84327,255.734L9.06263,255.251L9.28431,254.771L9.50846,254.293L9.73509,253.816L9.96399,253.342L10.1953,252.871L10.4291,252.401L10.6653,251.933L10.9037,251.468L11.1443,251.006L11.3872,250.545L11.6325,250.087L11.8802,249.631L12.1302,249.177L12.3823,248.725L12.6364,248.276L12.8928,247.829L13.1515,247.385L13.4124,246.942L13.6756,246.502L13.9408,246.064L14.2079,245.629L14.4772,245.196L14.7486,244.766L15.0222,244.337L15.2977,243.911L15.5753,243.487L15.855,243.066L16.1365,242.647L16.42,242.231L16.7055,241.816L16.993,241.404L17.2823,240.995L17.5732,240.588L17.8664,240.183L18.1616,239.781L18.4583,239.381L18.7566,238.984L19.057,238.589L19.3593,238.196L19.6632,237.805L19.9687,237.418L20.276,237.032L20.585,236.649L20.8956,236.268L21.2081,235.89L21.5219,235.514L21.8375,235.14L22.1546,234.769L22.4731,234.401L22.7934,234.034L23.1152,233.67L23.4385,233.309L23.7631,232.95L24.0893,232.593L24.417,232.239L24.7458,231.887L25.0763,231.538L25.4083,231.19L25.7415,230.846L26.0757,230.504L26.4115,230.164L26.7489,229.826L27.0873,229.491L27.4266,229.158L27.7675,228.828L28.1098,228.5L28.4528,228.174L28.7974,227.851L29.1429,227.53L29.4897,227.211L29.8376,226.895L30.1865,226.581L30.5364,226.269L30.8876,225.96L31.2397,225.653L31.5925,225.349L31.9467,225.046L32.3018,224.746L32.6581,224.448L33.015,224.153L33.3725,223.86L33.7316,223.569L34.0914,223.28L34.4517,222.994L34.813,222.71L35.1754,222.428L35.5385,222.148L35.9022,221.871L36.2667,221.596L36.6322,221.323L36.9982,221.052L37.3652,220.783L37.7328,220.517L38.1006,220.253L38.4697,219.991L38.8393,219.731L39.2091,219.474L39.5802,219.218L39.9517,218.964L40.3236,218.713L40.6961,218.464L41.0693,218.217L41.4429,217.972L41.817,217.729L42.1918,217.488L42.567,217.249L42.9429,217.013L43.3188,216.778L43.6954,216.546L44.0727,216.315L44.4499,216.086L44.8274,215.86L45.2059,215.635L45.5847,215.413L45.9633,215.192L46.3429,214.974L46.7227,214.757L47.1027,214.542L47.483,214.33L47.8634,214.119L48.2443,213.91L48.6257,213.703L49.0068,213.498L49.3882,213.295L49.7704,213.093L50.1526,212.894L50.535,212.696L50.9174,212.5L51.2998,212.306L51.6827,212.114L52.0656,211.924L52.4485,211.736L52.8318,211.549L53.2156,211.364L53.5989,211.181L53.9825,210.999L54.3661,210.82L54.7496,210.642L55.1335,210.466L55.5173,210.291L55.9014,210.118L56.2853,209.947L56.6692,209.778L57.053,209.61L57.4365,209.444L57.8204,209.28L58.2045,209.117L58.5884,208.956L58.9722,208.797L59.3557,208.639L59.7394,208.483L60.1229,208.328L60.5062,208.175L60.8898,208.024L61.273,207.874L61.6559,207.726L62.0391,207.579L62.422,207.434L62.8044,207.29L63.1866,207.148L63.569,207.007L63.9515,206.868L64.3337,206.73L64.715,206.594L65.0965,206.459L65.4784,206.326L65.8591,206.194L66.2398,206.064L66.6207,205.935L67.0011,205.807L67.381,205.681L67.7606,205.557L68.1406,205.433L68.5198,205.311L68.8985,205.191L69.2772,205.072L69.6553,204.954L70.033,204.838L70.4108,204.722L70.7885,204.609L71.1652,204.496L71.5412,204.385L71.9178,204.275L72.2939,204.167L72.6689,204.059L73.0439,203.953L73.4187,203.849L73.7924,203.745L74.166,203.643L74.5396,203.542L74.9127,203.442L75.285,203.344L75.6567,203.246L76.0282,203.15L76.3987,203.056L76.7695,202.962L77.1396,202.869L77.5091,202.778L77.8778,202.688L78.2459,202.599L78.6144,202.511L78.9816,202.424L79.3485,202.339L79.7148,202.254L80.0803,202.171L80.4457,202.089L80.8102,202.007L81.174,201.927L81.5371,201.849L81.8998,201.771L82.2623,201.694L82.6235,201.618L82.9845,201.543L83.3451,201.47L83.7044,201.397L84.0764,201.323L84.7788,201.186L85.4919,201.05L86.2026,200.917L86.91,200.789L87.6143,200.665L88.316,200.544L89.0145,200.428L89.71,200.314L90.4024,200.205L91.0912,200.099L91.777,199.996L92.4595,199.897L93.1378,199.802L93.8133,199.71L94.4854,199.621L95.1533,199.535L95.8177,199.452L96.4784,199.373L97.1354,199.296L97.7879,199.223L98.437,199.152L99.0821,199.084L99.7227,199.02L100.359,198.958L100.992,198.898L101.62,198.842L102.244,198.788L102.863,198.737L103.478,198.688L104.088,198.641L104.694,198.598L105.295,198.556L105.891,198.517L106.482,198.48L107.069,198.445L107.65,198.413L108.227,198.382L108.798,198.354L109.364,198.328L109.925,198.304L110.481,198.281L111.031,198.261L111.576,198.242L112.115,198.226L112.649,198.211L113.177,198.197L113.7,198.186L114.216,198.176L114.727,198.167L115.232,198.16L115.731,198.155L116.223,198.151L116.71,198.148L117.191,198.147L117.665,198.146L118.133,198.148L118.595,198.15L119.05,198.153L119.499,198.158L119.94,198.164L120.376,198.17L120.804,198.178L121.226,198.186L121.641,198.196L122.049,198.206L122.449,198.217L122.844,198.229L123.23,198.241L123.609,198.254L123.994,198.269L124.703,198.297L125.395,198.328L126.056,198.361L126.686,198.394L127.285,198.429L127.851,198.464L128.384,198.499L128.883,198.534L129.349,198.569L129.781,198.603L130.176,198.635L130.536,198.666L130.86,198.695L131.146,198.721L131.411,198.747L131.764,198.783L130.709,198.669L618.492,198.669L619.27,198.668L620.038,198.667L620.801,198.664L621.561,198.661L622.317,198.656L623.069,198.651L623.818,198.644L624.563,198.636L625.305,198.628L626.042,198.618L626.776,198.607L627.507,198.595L628.234,198.583L628.957,198.569L629.677,198.555L630.394,198.539L631.106,198.522L631.815,198.505L632.52,198.486L633.222,198.467L633.92,198.446L634.615,198.425L635.306,198.402L635.994,198.379L636.678,198.355L637.358,198.329L638.035,198.303L638.709,198.276L639.378,198.248L640.045,198.219L640.708,198.189L641.367,198.158L642.023,198.126L642.675,198.094L643.324,198.06L643.969,198.026L644.611,197.99L645.25,197.954L645.885,197.917L646.516,197.878L647.144,197.839L647.769,197.8L648.39,197.759L649.008,197.717L649.622,197.675L650.233,197.631L650.84,197.587L651.444,197.542L652.045,197.496L652.642,197.449L653.236,197.401L653.826,197.353L654.413,197.304L654.997,197.253L655.577,197.202L656.154,197.151L656.727,197.098L657.298,197.045L657.864,196.99L658.428,196.935L658.988,196.879L659.544,196.823L660.098,196.765L660.648,196.707L661.194,196.648L661.738,196.588L662.278,196.527L662.815,196.466L663.348,196.404L663.879,196.341L664.405,196.277L664.929,196.213L665.449,196.148L665.966,196.082L666.48,196.015L666.99,195.948L667.498,195.88L668.002,195.811L668.503,195.742L669,195.672L669.494,195.601L669.985,195.529L670.473,195.457L670.958,195.384L671.438,195.31L671.917,195.236L672.392,195.161L672.863,195.085L673.332,195.009L673.797,194.932L674.259,194.855L674.718,194.776L675.174,194.697L675.626,194.618L676.076,194.538L676.522,194.457L676.965,194.376L677.405,194.294L677.842,194.211L678.276,194.128L678.706,194.044L679.133,193.96L679.558,193.875L679.979,193.79L680.397,193.704L680.812,193.617L681.223,193.53L681.632,193.443L682.038,193.355L682.441,193.266L682.84,193.177L683.236,193.087L683.63,192.997L684.02,192.906L684.407,192.815L684.791,192.723L685.172,192.631L685.55,192.539L685.925,192.446L686.297,192.352L686.666,192.258L687.032,192.164L687.396,192.069L687.755,191.974L688.112,191.878L688.467,191.782L688.817,191.686L689.165,191.589L689.51,191.492L689.852,191.394L690.192,191.296L690.528,191.198L690.861,191.099L691.191,191.001L691.518,190.901L691.843,190.802L692.164,190.702L692.483,190.601L692.799,190.501L693.111,190.4L693.421,190.299L693.728,190.198L694.032,190.096L694.334,189.994L694.632,189.892L694.928,189.79L695.22,189.687L695.511,189.584L695.798,189.481L696.082,189.378L696.363,189.275L696.642,189.171L696.918,189.067L697.191,188.963L697.462,188.859L697.73,188.755L697.994,188.651L698.256,188.546L698.515,188.442L698.772,188.337L699.026,188.232L699.277,188.127L699.525,188.023L699.771,187.918L700.015,187.812L700.255,187.707L700.493,187.602L700.729,187.497L700.96,187.392L701.191,187.287L701.419,187.181L701.643,187.076L701.865,186.971L702.085,186.866L702.302,186.761L702.517,186.656L702.728,186.551L702.938,186.446L703.145,186.341L703.349,186.236L703.552,186.131L703.752,186.026L703.949,185.922L704.143,185.818L704.335,185.714L704.525,185.61L704.712,185.506L704.898,185.402L705.081,185.298L705.261,185.195L705.438,185.092L705.615,184.989L705.788,184.886L705.959,184.783L706.128,184.681L706.295,184.579L706.459,184.476L706.622,184.374L706.782,184.273L706.939,184.172L707.095,184.071L707.249,183.97L707.4,183.869L707.55,183.769L707.697,183.669L707.842,183.569L707.985,183.47L708.126,183.371L708.266,183.271L708.403,183.173L708.538,183.075L708.672,182.976L708.802,182.88L708.931,182.782L709.059,182.685L709.186,182.588L709.31,182.491L709.43,182.396L709.551,182.3L709.67,182.204L709.786,182.11L709.902,182.014L710.015,181.92L710.126,181.826L710.237,181.731L710.345,181.638L710.45,181.546L710.556,181.453L710.661,181.359L710.761,181.269L710.861,181.177L710.961,181.085L711.059,180.993L711.156,180.901L711.25,180.811L711.341,180.723L711.433,180.633L711.525,180.541L711.613,180.453L711.702,180.363L711.789,180.273L711.872,180.186L711.957,180.097L712.04,180.008L712.121,179.921L712.201,179.834L712.28,179.747L712.358,179.659L712.435,179.572L712.511,179.485L712.586,179.399L712.658,179.313L712.731,179.227L712.803,179.141L712.874,179.053L712.943,178.968L713.011,178.884L713.08,178.797L713.147,178.71L713.213,178.625L713.277,178.541L713.341,178.456L713.404,178.371L713.467,178.285L713.529,178.2L713.588,178.116L713.65,178.03L713.71,177.944L713.767,177.86L713.826,177.774L713.882,177.69L713.938,177.605L713.994,177.519L714.051,177.432L714.105,177.346L714.159,177.261L714.211,177.177L714.264,177.09L714.317,177.002L714.368,176.917L714.42,176.829L714.47,176.742L714.52,176.655L714.57,176.566L714.618,176.48L714.667,176.391L714.714,176.303L714.761,176.215L714.808,176.125L714.855,176.036L714.902,175.944L714.947,175.855L714.992,175.765L715.036,175.674L715.081,175.583L715.125,175.49L715.168,175.399L715.211,175.305L715.255,175.21L715.295,175.119L715.337,175.024L715.38,174.926L715.42,174.833L715.46,174.738L715.501,174.64L715.541,174.543L715.582,174.443L715.621,174.345L715.659,174.247L715.698,174.147L715.736,174.047L715.773,173.947L715.811,173.844L715.848,173.741L715.885,173.638L715.921,173.535L715.957,173.432L715.993,173.323L716.029,173.217L716.064,173.111L716.099,173.002L716.132,172.896L716.166,172.787L716.201,172.676L716.234,172.566L716.267,172.454L716.3,172.342L716.332,172.229L716.364,172.114L716.396,171.999L716.427,171.883L716.458,171.768L716.488,171.652L716.519,171.533L716.549,171.411L716.579,171.292L716.607,171.173L716.636,171.053L716.665,170.928L716.694,170.802L716.721,170.682L716.748,170.556L716.776,170.427L716.802,170.303L716.828,170.174L716.855,170.044L716.88,169.917L716.905,169.785L716.931,169.652L716.955,169.521L716.979,169.388L717.003,169.251L717.026,169.117L717.049,168.983L717.072,168.846L717.094,168.705L717.116,168.565L717.138,168.427L717.158,168.289L717.179,168.145L717.2,168.001L717.22,167.859L717.239,167.714L717.259,167.567L717.278,167.422L717.293,167.295L717.332,166.978L717.366,166.677L717.398,166.373L717.429,166.063L717.459,165.751L717.487,165.436L717.513,165.117L717.538,164.795L717.561,164.468L717.583,164.14L717.603,163.807L717.622,163.469L717.639,163.128L717.655,162.786L717.669,162.439L717.682,162.087L717.693,161.735L717.703,161.379L717.711,161.017L717.718,160.653L717.724,160.288L717.728,159.919L717.732,159.546L717.733,159.169L717.734,158.791L717.733,158.408L717.731,158.022L717.728,157.635L717.724,157.243L717.719,156.848L717.713,156.451L717.706,156.052L717.698,155.65L717.688,155.243L717.678,154.833L717.668,154.422L717.656,154.017L717.63,153.171L717.602,152.323L717.572,151.465L717.54,150.599L717.472,148.822L717.402,147.022L717.368,146.099L717.335,145.17L717.303,144.23L717.274,143.292L717.26,142.804L717.247,142.322L717.235,141.84L717.223,141.354L717.213,140.866L717.204,140.375L717.196,139.881L717.189,139.386L717.184,138.887L717.18,138.387L717.178,137.883L717.177,137.413L762.177,137.343L762.177,137.737L762.179,138.099L762.182,138.467L762.186,138.837L762.191,139.213L762.197,139.592L762.204,139.975L762.213,140.364L762.222,140.755L762.232,141.152L762.242,141.551L762.254,141.945L762.279,142.774L762.308,143.608L762.338,144.456L762.37,145.315L762.438,147.092L762.508,148.905L762.543,149.839L762.576,150.783L762.608,151.74L762.637,152.7L762.651,153.198L762.664,153.692L762.676,154.186L762.687,154.684L762.697,155.187L762.707,155.693L762.715,156.201L762.721,156.712L762.727,157.225L762.731,157.743L762.733,158.262L762.734,158.785L762.733,159.312L762.731,159.84L762.726,160.371L762.72,160.907L762.711,161.446L762.701,161.986L762.688,162.528L762.673,163.076L762.655,163.626L762.635,164.176L762.613,164.731L762.587,165.29L762.559,165.851L762.528,166.413L762.493,166.979L762.456,167.549L762.415,168.121L762.371,168.696L762.323,169.273L762.272,169.853L762.217,170.436L762.158,171.02L762.095,171.608L762.028,172.199L761.959,172.772L761.919,173.09L761.881,173.389L761.842,173.686L761.801,173.985L761.759,174.287L761.716,174.586L761.672,174.885L761.627,175.19L761.58,175.494L761.532,175.796L761.484,176.097L761.433,176.401L761.382,176.708L761.328,177.015L761.275,177.318L761.219,177.625L761.162,177.934L761.104,178.24L761.045,178.546L760.983,178.857L760.921,179.166L760.858,179.474L760.792,179.788L760.725,180.096L760.657,180.406L760.587,180.722L760.516,181.032L760.444,181.342L760.369,181.657L760.293,181.972L760.215,182.287L760.137,182.599L760.056,182.913L759.974,183.23L759.89,183.546L759.804,183.862L759.717,184.178L759.628,184.494L759.537,184.812L759.445,185.129L759.351,185.446L759.255,185.766L759.158,186.082L759.058,186.401L758.956,186.723L758.854,187.041L758.749,187.361L758.642,187.681L758.534,187.997L758.423,188.319L758.311,188.64L758.196,188.961L758.08,189.281L757.963,189.601L757.842,189.922L757.72,190.244L757.596,190.564L757.47,190.887L757.342,191.209L757.213,191.528L757.081,191.849L756.947,192.169L756.811,192.491L756.672,192.815L756.533,193.133L756.391,193.454L756.245,193.778L756.1,194.097L755.951,194.417L755.8,194.739L755.648,195.058L755.493,195.379L755.336,195.699L755.176,196.02L755.015,196.34L754.852,196.657L754.687,196.976L754.519,197.294L754.349,197.613L754.176,197.932L754.002,198.249L753.825,198.568L753.647,198.883L753.466,199.2L753.283,199.515L753.098,199.83L752.91,200.146L752.721,200.459L752.529,200.772L752.334,201.087L752.137,201.401L751.938,201.713L751.738,202.022L751.536,202.333L751.33,202.644L751.122,202.954L750.912,203.262L750.699,203.572L750.486,203.878L750.27,204.183L750.05,204.49L749.83,204.795L749.607,205.098L749.382,205.401L749.154,205.704L748.924,206.007L748.691,206.308L748.458,206.606L748.223,206.904L747.983,207.203L747.742,207.5L747.5,207.795L747.255,208.09L747.009,208.383L746.758,208.677L746.507,208.969L746.253,209.26L745.997,209.549L745.74,209.837L745.48,210.125L745.218,210.411L744.952,210.697L744.687,210.98L744.419,211.262L744.147,211.546L743.875,211.826L743.601,212.104L743.323,212.383L743.046,212.659L742.765,212.934L742.48,213.21L742.195,213.484L741.909,213.755L741.62,214.025L741.33,214.294L741.036,214.562L740.739,214.83L740.444,215.094L740.145,215.358L739.843,215.622L739.539,215.884L739.236,216.143L738.928,216.402L738.619,216.66L738.309,216.916L737.995,217.171L737.681,217.424L737.365,217.676L737.046,217.927L736.725,218.177L736.404,218.424L736.08,218.67L735.754,218.916L735.425,219.161L735.095,219.403L734.763,219.644L734.429,219.884L734.095,220.122L733.757,220.359L733.418,220.595L733.077,220.829L732.734,221.062L732.389,221.293L732.043,221.523L731.695,221.752L731.345,221.979L730.992,222.206L730.638,222.43L730.283,222.653L729.926,222.875L729.566,223.095L729.205,223.314L728.842,223.532L728.477,223.748L728.111,223.963L727.742,224.177L727.372,224.39L727,224.6L726.627,224.81L726.252,225.018L725.874,225.225L725.495,225.43L725.114,225.635L724.73,225.838L724.346,226.039L723.961,226.239L723.572,226.438L723.183,226.635L722.791,226.831L722.396,227.027L722.001,227.22L721.604,227.412L721.205,227.603L720.804,227.793L720.401,227.982L719.997,228.169L719.592,228.354L719.182,228.539L718.773,228.722L718.361,228.904L717.947,229.085L717.532,229.265L717.115,229.443L716.695,229.62L716.274,229.796L715.851,229.97L715.427,230.143L715,230.315L714.571,230.486L714.14,230.656L713.708,230.824L713.274,230.991L712.838,231.157L712.4,231.322L711.96,231.485L711.518,231.648L711.074,231.809L710.628,231.969L710.181,232.127L709.731,232.285L709.279,232.442L708.826,232.597L708.371,232.751L707.913,232.904L707.453,233.055L706.992,233.206L706.528,233.355L706.063,233.503L705.595,233.651L705.126,233.797L704.655,233.941L704.181,234.085L703.705,234.228L703.227,234.369L702.747,234.509L702.266,234.648L701.782,234.786L701.296,234.923L700.808,235.059L700.317,235.194L699.826,235.327L699.331,235.46L698.834,235.591L698.336,235.721L697.835,235.85L697.332,235.978L696.827,236.105L696.32,236.231L695.81,236.356L695.298,236.48L694.784,236.602L694.268,236.724L693.75,236.844L693.23,236.963L692.707,237.082L692.181,237.199L691.654,237.315L691.125,237.43L690.593,237.544L690.059,237.657L689.523,237.769L688.984,237.88L688.443,237.99L687.9,238.098L687.353,238.206L686.805,238.312L686.255,238.418L685.702,238.522L685.147,238.626L684.589,238.728L684.03,238.829L683.468,238.93L682.903,239.029L682.336,239.127L681.766,239.224L681.194,239.32L680.62,239.415L680.043,239.509L679.463,239.602L678.882,239.694L678.297,239.785L677.71,239.874L677.121,239.963L676.529,240.051L675.935,240.138L675.338,240.223L674.738,240.308L674.136,240.391L673.532,240.474L672.924,240.555L672.315,240.636L671.702,240.715L671.087,240.793L670.47,240.871L669.849,240.947L669.226,241.022L668.601,241.096L667.973,241.17L667.342,241.242L666.708,241.313L666.072,241.383L665.433,241.452L664.792,241.52L664.148,241.587L663.5,241.652L662.85,241.717L662.198,241.781L661.543,241.844L660.885,241.906L660.224,241.966L659.56,242.026L658.894,242.084L658.225,242.142L657.553,242.198L656.878,242.254L656.201,242.308L655.52,242.362L654.837,242.414L654.151,242.465L653.462,242.515L652.77,242.564L652.075,242.613L651.377,242.66L650.676,242.706L649.973,242.75L649.266,242.794L648.557,242.837L647.844,242.879L647.129,242.92L646.411,242.959L645.69,242.998L644.966,243.035L644.238,243.072L643.508,243.107L642.775,243.141L642.039,243.175L641.299,243.207L640.557,243.238L639.811,243.268L639.063,243.297L638.312,243.325L637.557,243.352L636.799,243.378L636.039,243.402L635.275,243.426L634.508,243.448L633.738,243.47L632.964,243.49L632.188,243.509L631.408,243.527L630.626,243.545L629.84,243.561L629.051,243.575L628.259,243.589L627.463,243.602L626.665,243.614L625.863,243.624L625.058,243.633L624.249,243.642L623.438,243.649L622.623,243.655L621.805,243.66L620.984,243.664L620.159,243.667L619.331,243.668L618.508,243.669L128.29,243.669L127.08,243.539L126.975,243.528L126.899,243.521L126.773,243.509L126.614,243.495L126.42,243.478L126.194,243.459L125.936,243.439L125.647,243.418L125.326,243.395L124.975,243.372L124.594,243.349L124.185,243.325L123.748,243.302L123.283,243.279L122.791,243.257L122.26,243.235L122.004,243.226L121.728,243.216L121.447,243.207L121.16,243.199L120.866,243.191L120.566,243.183L120.261,243.176L119.95,243.17L119.633,243.164L119.31,243.159L118.982,243.155L118.648,243.152L118.309,243.149L117.965,243.147L117.615,243.146L117.26,243.147L116.9,243.148L116.536,243.15L116.165,243.153L115.791,243.157L115.411,243.162L115.028,243.168L114.639,243.176L114.246,243.185L113.849,243.195L113.447,243.206L113.041,243.219L112.631,243.233L112.217,243.248L111.798,243.265L111.377,243.283L110.951,243.303L110.521,243.324L110.088,243.347L109.651,243.371L109.211,243.397L108.768,243.425L108.321,243.454L107.871,243.485L107.418,243.518L106.962,243.553L106.503,243.589L106.041,243.628L105.576,243.668L105.109,243.71L104.639,243.754L104.167,243.8L103.691,243.848L103.215,243.898L102.735,243.95L102.253,244.004L101.77,244.06L101.284,244.119L100.797,244.18L100.307,244.242L99.8164,244.307L99.3239,244.375L98.8292,244.444L98.3337,244.516L97.8368,244.591L97.3383,244.667L96.8389,244.746L96.3384,244.828L95.8367,244.912L95.3343,244.998L94.8307,245.087L94.3264,245.178L93.822,245.272L93.3165,245.368L92.7973,245.47L92.5572,245.518L92.3037,245.569L92.0509,245.621L91.7976,245.673L91.5439,245.726L91.2908,245.78L91.0374,245.834L90.7836,245.89L90.5299,245.945L90.2764,246.002L90.0231,246.059L89.7694,246.117L89.516,246.175L89.2628,246.234L89.0092,246.294L88.7565,246.354L88.5029,246.416L88.2495,246.477L87.9964,246.54L87.7437,246.603L87.4911,246.667L87.2379,246.732L86.9855,246.797L86.7328,246.863L86.4805,246.93L86.2286,246.997L85.9769,247.065L85.7251,247.134L85.4732,247.204L85.2221,247.274L84.971,247.345L84.7197,247.417L84.4693,247.489L84.2194,247.562L83.9688,247.636L83.7187,247.711L83.4696,247.786L83.2204,247.862L82.9712,247.939L82.7224,248.016L82.4741,248.094L82.2259,248.173L81.9782,248.253L81.7314,248.333L81.4842,248.414L81.2374,248.496L80.9914,248.579L80.7458,248.662L80.5002,248.746L80.2548,248.831L80.0109,248.916L79.7667,249.002L79.5225,249.089L79.2795,249.177L79.0371,249.265L78.7948,249.354L78.5526,249.444L78.3111,249.535L78.0703,249.626L77.8301,249.718L77.5901,249.811L77.3508,249.905L77.1122,249.999L76.8739,250.094L76.6362,250.19L76.3992,250.287L76.1624,250.384L75.9266,250.482L75.6913,250.581L75.4567,250.68L75.2226,250.78L74.9886,250.882L74.7555,250.983L74.5232,251.086L74.2916,251.189L74.0608,251.293L73.8304,251.398L73.6008,251.503L73.3715,251.609L73.1431,251.716L72.9154,251.824L72.6883,251.932L72.4623,252.041L72.2368,252.151L72.0117,252.262L71.7874,252.374L71.5641,252.486L71.3411,252.599L71.1191,252.712L70.898,252.827L70.6776,252.942L70.4582,253.057L70.239,253.174L70.0205,253.291L69.8035,253.409L69.5869,253.528L69.3708,253.648L69.1558,253.768L68.9416,253.889L68.7283,254.011L68.5159,254.133L68.3038,254.257L68.093,254.381L67.8831,254.505L67.6735,254.631L67.4648,254.757L67.2574,254.884L67.0506,255.012L66.8445,255.14L66.6396,255.269L66.4355,255.399L66.2323,255.53L66.0296,255.662L65.828,255.794L65.6273,255.927L65.4274,256.06L65.2283,256.195L65.0304,256.33L64.8334,256.466L64.6367,256.603L64.4413,256.74L64.2471,256.878L64.053,257.017L63.8604,257.157L63.6688,257.297L63.4777,257.438L63.2878,257.58L63.0986,257.723L62.9103,257.867L62.7231,258.011L62.5368,258.156L62.3513,258.302L62.1665,258.448L61.983,258.596L61.8006,258.743L61.6184,258.893L61.4374,259.043L61.2577,259.193L61.0787,259.344L60.9006,259.496L60.7231,259.649L60.5468,259.803L60.3716,259.957L60.197,260.113L60.0234,260.269L59.8509,260.426L59.6791,260.584L59.5083,260.742L59.3385,260.902L59.1693,261.062L59.0014,261.223L58.8343,261.385L58.6678,261.548L58.5025,261.712L58.3383,261.876L58.1747,262.042L58.0119,262.209L57.8502,262.376L57.6896,262.544L57.5297,262.713L57.3705,262.883L57.2125,263.054L57.0553,263.226L56.8988,263.399L56.7435,263.573L56.589,263.748L56.4354,263.923L56.2825,264.1L56.1306,264.278L55.9797,264.456L55.8295,264.636L55.6805,264.817L55.532,264.999L55.3846,265.182L55.238,265.365L55.0922,265.551L54.9474,265.737L54.8036,265.924L54.6605,266.112L54.5181,266.301L54.3767,266.492L54.2364,266.683L54.0969,266.876L53.9579,267.07L53.82,267.265L53.6831,267.462L53.5469,267.659L53.4117,267.858L53.2772,268.058L53.1437,268.259L53.0111,268.462L52.8792,268.666L52.7482,268.871L52.6182,269.077L52.4888,269.285L52.3603,269.494L52.2328,269.705L52.1064,269.916L51.9807,270.129L51.8558,270.344L51.7317,270.56L51.6084,270.778L51.4862,270.997L51.3649,271.217L51.2445,271.439L51.1249,271.663L51.0061,271.888L50.8881,272.114L50.7712,272.343L50.6553,272.572L50.5402,272.803L50.426,273.036L50.3126,273.271L50.2002,273.507L50.0887,273.745L49.9781,273.985L49.8685,274.226L49.7599,274.469L49.6521,274.714L49.5453,274.96L49.4394,275.209L49.3345,275.459L49.2306,275.711L49.1278,275.964L49.0258,276.22L48.9248,276.478L48.8249,276.737L48.7259,276.999L48.628,277.262L48.531,277.527L48.4351,277.794L48.3403,278.064L48.2465,278.335L48.1538,278.608L48.0621,278.883L47.9715,279.161L47.882,279.44L47.7936,279.721L47.7063,280.005L47.6201,280.291L47.5351,280.579L47.4513,280.868L47.3685,281.161L47.2869,281.455L47.2065,281.752L47.1273,282.051L47.0493,282.352L46.9725,282.655L46.897,282.961L46.8227,283.269L46.7497,283.579L46.6778,283.892L46.6073,284.207L46.5381,284.524L46.4702,284.844L46.4037,285.166L46.3384,285.491L46.2745,285.818L46.212,286.147L46.1509,286.479L46.0911,286.813L46.0328,287.15L45.9759,287.489L45.9204,287.831L45.8664,288.176L45.8138,288.522L45.7628,288.872L45.7132,289.224L45.6652,289.578L45.6186,289.936L45.5737,290.295L45.5303,290.658L45.4884,291.023L45.4482,291.39L45.4096,291.761L45.3726,292.134L45.3373,292.509L45.3036,292.888L45.2716,293.269L45.2412,293.652L45.2126,294.039L45.1858,294.428L45.1606,294.82L45.1372,295.215L45.1156,295.612L45.0958,296.012L45.0778,296.415L45.0616,296.821L45.0473,297.23L45.0348,297.641L45.0242,298.055L45.0155,298.472L45.0087,298.892L45.0038,299.315L45.0008,299.741L44.9997,300.221Z" style="fill:rgb(209,211,212);"/>
            </g>
        </g>
    </g>
</svg>
