<?xml version="1.0" standalone="no"?>
<!DOCTYPE svg PUBLIC "-//W3C//DTD SVG 1.1//EN" "http://www.w3.org/Graphics/SVG/1.1/DTD/svg11.dtd">
<svg width="370px" height="120px" version="1.1" xmlns="http://www.w3.org/2000/svg" xmlns:xlink="http://www.w3.org/1999/xlink" xml:space="preserve" style="fill-rule:evenodd;clip-rule:evenodd;stroke-linejoin:round;stroke-miterlimit:1.41421;">
    <g>
        <g id="Layer1">
            <g>
                <path d="M6.4297,39.0264L15.2557,36.9414C15.2557,36.9414 15.1447,36.4484 14.9507,35.5874C14.7657,34.7224 14.4457,33.5034 14.2177,32.0004C13.6617,29.0184 13.0727,25.0054 12.7517,20.9524C12.3907,16.9054 12.3097,12.8244 12.3087,9.7644C12.3627,6.7014 12.3987,4.6594 12.3987,4.6594L3.3367,4.2974C3.3367,4.2974 3.2977,6.4714 3.2397,9.7334C3.2397,12.9964 3.3277,17.3564 3.7147,21.7134C4.0607,26.0694 4.6957,30.4124 5.2997,33.6494C5.5507,35.2764 5.8957,36.6104 6.0967,37.5504C6.3087,38.4894 6.4297,39.0264 6.4297,39.0264" style="fill:rgb(213,222,195);fill-rule:nonzero;"/>
            </g>
            <g>
                <path d="M31.4897,84.7052L37.8587,78.2492C37.8587,78.2492 37.5077,77.8952 36.8937,77.2752C36.5887,76.9622 36.2067,76.5952 35.7907,76.1512C35.3847,75.6992 34.9257,75.1892 34.4257,74.6332C33.3957,73.5452 32.3217,72.1662 31.1337,70.7212C30.5427,69.9952 29.9977,69.1932 29.4067,68.4082C28.8157,67.6232 28.2337,66.8122 27.6997,65.9672C25.4167,62.6842 23.5577,59.1282 22.1827,56.4612C20.9057,53.7412 20.0917,51.9082 20.0927,51.9082L11.7397,55.4432C11.7397,55.4432 12.6327,57.4712 14.0507,60.4752C15.5677,63.4322 17.6377,67.3682 20.1717,71.0242C20.7677,71.9632 21.4147,72.8662 22.0717,73.7412C22.7277,74.6162 23.3377,75.5052 23.9947,76.3142C25.3147,77.9282 26.5167,79.4592 27.6617,80.6752C28.2197,81.2942 28.7317,81.8622 29.1847,82.3652C29.6487,82.8602 30.0737,83.2702 30.4127,83.6192C31.0977,84.3102 31.4897,84.7052 31.4897,84.7052" style="fill:rgb(213,222,195);fill-rule:nonzero;"/>
            </g>
            <g>
                <path d="M78.4692,107.937L79.2342,98.8996C79.2342,98.8996 78.7362,98.8556 77.8632,98.7776C77.0382,98.6676 75.8642,98.5536 74.4392,98.2736C71.5962,97.7606 67.7902,96.7356 64.0962,95.3096C60.3932,93.9066 56.8262,92.1126 54.2322,90.6356C53.5842,90.2646 52.9902,89.9236 52.4642,89.6226C51.9502,89.2976 51.5032,89.0146 51.1342,88.7816C50.3972,88.3166 49.9752,88.0496 49.9752,88.0496L45.0062,95.6366C45.0062,95.6366 45.4772,95.9346 46.3002,96.4556C46.7122,96.7146 47.2122,97.0306 47.7862,97.3926C48.3752,97.7306 49.0392,98.1116 49.7632,98.5276C52.6672,100.18 56.6602,102.189 60.8552,103.78C65.0382,105.394 69.4112,106.583 72.8022,107.194C74.4872,107.523 75.9432,107.673 76.9512,107.801C77.9172,107.887 78.4692,107.937 78.4692,107.937" style="fill:rgb(213,222,195);fill-rule:nonzero;"/>
            </g>
            <g>
                <path d="M128.583,111.9L129.21,102.852C129.21,102.852 127.121,102.734 123.984,102.557C122.417,102.468 120.588,102.365 118.628,102.254C116.666,102.122 114.563,101.917 112.466,101.745L95.6765,100.307L94.9115,109.344C94.9115,109.344 103.306,110.063 111.701,110.781C113.802,110.954 115.893,111.158 117.871,111.292C119.853,111.405 121.706,111.509 123.293,111.599C126.466,111.78 128.583,111.9 128.583,111.9" style="fill:rgb(213,222,195);fill-rule:nonzero;"/>
            </g>
            <g>
                <path d="M179.027,113.79L179.094,104.722C179.094,104.722 178.569,104.724 177.652,104.727C176.735,104.705 175.425,104.675 173.854,104.638C170.711,104.56 166.52,104.455 162.33,104.351C158.139,104.246 153.948,104.142 150.805,104.063C147.669,103.893 145.577,103.778 145.577,103.778L145.151,112.837C145.151,112.837 147.268,112.952 150.443,113.126C153.619,113.205 157.854,113.311 162.089,113.416C166.323,113.521 170.558,113.627 173.734,113.706C175.322,113.743 176.645,113.773 177.571,113.795C178.498,113.792 179.027,113.79 179.027,113.79" style="fill:rgb(213,222,195);fill-rule:nonzero;"/>
            </g>
            <g>
                <path d="M229.344,113.17L229.185,104.102C229.185,104.102 220.759,104.258 212.332,104.414C208.126,104.497 203.92,104.581 200.765,104.644C197.62,104.654 195.523,104.662 195.523,104.662L195.607,113.732C195.607,113.732 197.723,113.724 200.898,113.711C204.062,113.649 208.281,113.566 212.499,113.482C220.922,113.325 229.344,113.17 229.344,113.17" style="fill:rgb(213,222,195);fill-rule:nonzero;"/>
            </g>
            <g>
                <path d="M279.288,113.451L279.587,104.388C279.587,104.388 277.471,104.31 274.297,104.194C272.71,104.137 270.859,104.069 268.875,103.997C266.891,103.945 264.773,103.965 262.657,103.944C254.188,103.902 245.72,103.86 245.72,103.86L245.78,112.929L262.538,113.013C264.633,113.032 266.728,113.013 268.691,113.064C270.653,113.136 272.485,113.203 274.055,113.261C277.195,113.375 279.288,113.451 279.288,113.451" style="fill:rgb(213,222,195);fill-rule:nonzero;"/>
            </g>
            <g>
                <path d="M314.661,97.4825C312.83,100.381 302.495,108.603 297.944,105.723C293.398,102.845 296.559,89.7035 298.393,86.8035C300.971,85.3525 305.936,83.0315 310.485,85.9105C315.032,88.7885 315.182,94.3175 314.661,97.4825" style="fill:rgb(249,186,48);fill-rule:nonzero;"/>
            </g>
            <g>
                <path d="M314.092,93.5821C312.744,95.7091 304.623,102.561 301.285,100.448C297.949,98.3361 300.66,88.0621 302.007,85.9361C303.353,83.8111 307.149,83.7991 310.486,85.9101C313.821,88.0201 315.436,91.4551 314.092,93.5821" style="fill:rgb(244,117,53);fill-rule:nonzero;"/>
            </g>
            <g>
                <path d="M312.324,44.9034C295.17,34.0494 274.988,59.9024 277.489,64.2544C279.995,68.6054 298.761,53.3694 305.25,66.5404C308.751,73.6474 317.298,48.0514 312.324,44.9034" style="fill:rgb(239,61,55);fill-rule:nonzero;"/>
            </g>
            <g>
                <path d="M345.779,66.0723C362.93,76.9263 348.21,106.237 343.205,105.838C338.2,105.437 343.933,81.9543 329.255,81.7293C321.335,81.6083 340.804,62.9253 345.779,66.0723" style="fill:rgb(239,61,55);fill-rule:nonzero;"/>
            </g>
            <g>
                <path d="M354.186,56.0538C340.027,78.4278 320.327,91.3608 310.18,84.9408C300.037,78.5198 303.287,55.1768 317.446,32.8068C331.604,10.4328 357.893,1.6688 361.45,3.9178C365.007,6.1688 368.344,33.6808 354.186,56.0538" style="fill:rgb(237,223,189);fill-rule:nonzero;"/>
            </g>
            <g>
                <path d="M314.57,97.6768L297.979,87.1758L307.177,77.2308L319.918,85.2918L314.57,97.6768Z" style="fill:rgb(62,58,53);fill-rule:nonzero;"/>
            </g>
            <g>
                <path d="M351.099,35.1446C348.603,39.0936 343.375,40.2706 339.427,37.7716C335.476,35.2716 334.299,30.0436 336.799,26.0936C339.298,22.1466 344.526,20.9716 348.475,23.4716C352.424,25.9676 353.598,31.1966 351.099,35.1446" style="fill:rgb(62,58,53);fill-rule:nonzero;"/>
            </g>
            <g>
                <path d="M342.279,23.1925C340.296,23.6395 338.602,24.8325 337.517,26.5505C335.272,30.0955 336.331,34.8065 339.88,37.0515C341.597,38.1395 343.635,38.4925 345.62,38.0465C347.605,37.6005 349.294,36.4095 350.381,34.6905C351.469,32.9705 351.822,30.9335 351.377,28.9505C350.929,26.9665 349.738,25.2755 348.02,24.1885C346.301,23.1005 344.263,22.7475 342.279,23.1925M345.994,39.7065C343.568,40.2495 341.073,39.8205 338.971,38.4905C334.632,35.7445 333.334,29.9805 336.08,25.6425C337.411,23.5385 339.48,22.0825 341.907,21.5355C344.333,20.9905 346.828,21.4215 348.928,22.7515C351.031,24.0815 352.487,26.1515 353.033,28.5785C353.581,31.0045 353.147,33.4985 351.819,35.5985C350.487,37.7015 348.421,39.1605 345.994,39.7065" style="fill:white;fill-rule:nonzero;"/>
            </g>
            <g>
                <path d="M338.148,52.1358C336.328,55.0108 332.523,55.8648 329.647,54.0458C326.772,52.2288 325.917,48.4208 327.737,45.5458C329.556,42.6728 333.363,41.8188 336.238,43.6358C339.112,45.4538 339.967,49.2608 338.148,52.1358" style="fill:rgb(62,58,53);fill-rule:nonzero;"/>
            </g>
            <g>
                <path d="M331.778,43.6602C330.393,43.9722 329.215,44.8032 328.454,46.0012C327.697,47.2022 327.451,48.6212 327.76,50.0062C328.072,51.3892 328.903,52.5692 330.102,53.3292C331.3,54.0862 332.723,54.3322 334.108,54.0212C335.491,53.7102 336.671,52.8792 337.429,51.6812C338.997,49.2062 338.256,45.9192 335.781,44.3532C334.583,43.5962 333.161,43.3482 331.778,43.6602M334.48,55.6802C332.654,56.0912 330.775,55.7642 329.194,54.7642C327.611,53.7642 326.512,52.2062 326.104,50.3782C325.689,48.5532 326.016,46.6752 327.019,45.0942C328.019,43.5112 329.577,42.4132 331.404,42.0012C333.232,41.5912 335.108,41.9152 336.689,42.9172C339.956,44.9822 340.931,49.3252 338.866,52.5892C337.866,54.1722 336.306,55.2692 334.48,55.6802" style="fill:white;fill-rule:nonzero;"/>
            </g>
            <g>
                <clipPath id="tag1">
                    <path d="M317.446,32.807C303.287,55.177 300.038,78.52 310.18,84.94C320.327,91.361 340.027,78.428 354.187,56.054C368.345,33.681 365.008,6.169 361.45,3.918C361.091,3.691 360.501,3.576 359.715,3.576C352.712,3.576 330.176,12.69 317.446,32.807Z"/>
                </clipPath>
                <g clip-path="url(#tag1)">
                    <path d="M346.293,101.972C339.095,113.345 318.537,113.247 300.374,101.753C282.21,90.2608 273.317,71.7218 280.516,60.3488C287.711,48.9768 298.139,42.6628 326.435,60.5698C354.73,78.4738 353.489,90.5998 346.293,101.972" style="fill:rgb(198,51,48);fill-rule:nonzero;"/>
                    <path d="M400.103,15.6202C392.908,26.9932 372.349,26.8942 354.185,15.4012C336.021,3.9072 327.133,-14.6288 334.328,-26.0008C341.524,-37.3748 351.95,-43.6888 380.245,-25.7828C408.541,-7.8778 407.298,4.2492 400.103,15.6202" style="fill:rgb(239,61,55);fill-rule:nonzero;"/>
                </g>
            </g>
            <g>
                <path d="M317.048,65.8096C317.654,64.7756 326.292,69.6426 325.245,70.9966C324.197,72.3496 310.456,90.3926 308.155,88.9336C305.854,87.4776 316.443,66.8456 317.048,65.8096" style="fill:rgb(239,61,55);fill-rule:nonzero;"/>
            </g>
        </g>
    </g>
</svg>
