<?xml version="1.0" encoding="utf-8"?>
<!-- Generator: Adobe Illustrator 19.0.0, SVG Export Plug-In . SVG Version: 6.00 Build 0)  -->
<svg version="1.1" id="Layer_1" xmlns="http://www.w3.org/2000/svg" xmlns:xlink="http://www.w3.org/1999/xlink" x="0px" y="0px"
	 width="190px" height="190px" viewBox="-271.5 269.5 190 190" style="enable-background:new -271.5 269.5 190 190;"
	 xml:space="preserve">
<style type="text/css">
	.st0{fill:#F9BA30;}
	.st1{fill:#F47535;}
	.st2{fill:#EF3D37;}
	.st3{fill:#EDDFBD;}
	.st4{fill:#3E3A35;}
	.st5{fill:#FFFFFF;}
	.st6{clip-path:url(#SVGID_2_);}
	.st7{fill:#C63330;}
</style>
<path class="st0" d="M-212.3,444.8c-2.6,4.1-17,15.5-23.4,11.5c-6.4-4-1.9-22.4,0.6-26.4c3.6-2,10.5-5.3,16.9-1.2
	C-211.8,432.7-211.6,440.4-212.3,444.8"/>
<path class="st1" d="M-213.1,439.4c-1.9,3-13.2,12.6-17.9,9.6c-4.7-3-0.9-17.3,1-20.3c1.9-3,7.2-3,11.9,0
	C-213.5,431.6-211.2,436.4-213.1,439.4"/>
<path class="st2" d="M-215.6,371.3c-24-15.2-52.2,21-48.7,27.1c3.5,6.1,29.7-15.2,38.8,3.2C-220.6,411.5-208.6,375.7-215.6,371.3"/>
<path class="st2" d="M-168.8,400.9c24,15.2,3.4,56.1-3.6,55.6c-7-0.6,1-33.4-19.5-33.7C-203,422.6-175.8,396.5-168.8,400.9"/>
<path class="st3" d="M-157.1,386.9c-19.8,31.3-47.3,49.4-61.5,40.4c-14.2-9-9.6-41.6,10.2-72.9c19.8-31.3,56.5-43.5,61.5-40.4
	C-141.9,317.2-137.3,355.6-157.1,386.9"/>
<path class="st4" d="M-212.5,445.1l-23.2-14.7l12.9-13.9l17.8,11.3L-212.5,445.1z"/>
<path class="st4" d="M-161.4,357.7c-3.5,5.5-10.8,7.2-16.3,3.7c-5.5-3.5-7.2-10.8-3.7-16.3c3.5-5.5,10.8-7.2,16.3-3.7
	C-159.5,344.9-157.9,352.2-161.4,357.7"/>
<path class="st5" d="M-173.7,341c-2.8,0.6-5.1,2.3-6.7,4.7c-3.1,5-1.7,11.5,3.3,14.7c2.4,1.5,5.2,2,8,1.4c2.8-0.6,5.1-2.3,6.7-4.7
	c1.5-2.4,2-5.3,1.4-8c-0.6-2.8-2.3-5.1-4.7-6.7C-168.1,340.8-170.9,340.4-173.7,341 M-168.5,364.1c-3.4,0.8-6.9,0.2-9.8-1.7
	c-6.1-3.8-7.9-11.9-4-18c1.9-2.9,4.8-5,8.1-5.7c3.4-0.8,6.9-0.2,9.8,1.7c2.9,1.9,5,4.8,5.7,8.1c0.8,3.4,0.2,6.9-1.7,9.8
	C-162.2,361.3-165.1,363.3-168.5,364.1"/>
<path class="st4" d="M-179.5,381.4c-2.5,4-7.9,5.2-11.9,2.7c-4-2.5-5.2-7.9-2.7-11.9c2.5-4,7.9-5.2,11.9-2.7
	C-178.1,372.1-176.9,377.4-179.5,381.4"/>
<path class="st5" d="M-188.4,369.6c-1.9,0.4-3.6,1.6-4.6,3.3c-1.1,1.7-1.4,3.7-1,5.6c0.4,1.9,1.6,3.6,3.3,4.6c1.7,1.1,3.7,1.4,5.6,1
	c1.9-0.4,3.6-1.6,4.6-3.3c2.2-3.5,1.2-8.1-2.3-10.2C-184.5,369.5-186.5,369.2-188.4,369.6 M-184.6,386.4c-2.6,0.6-5.2,0.1-7.4-1.3
	c-2.2-1.4-3.7-3.6-4.3-6.1c-0.6-2.6-0.1-5.2,1.3-7.4c1.4-2.2,3.6-3.7,6.1-4.3c2.6-0.6,5.2-0.1,7.4,1.3c4.6,2.9,5.9,9,3,13.5
	C-179.9,384.3-182.1,385.8-184.6,386.4"/>
<g>
	<defs>
		<path id="SVGID_1_" d="M-208.4,354.4c-19.8,31.3-24.3,63.9-10.2,72.9c14.2,9,41.7-9.1,61.5-40.4c19.8-31.3,15.1-69.7,10.2-72.9
			c-0.5-0.3-1.3-0.5-2.4-0.5C-159.1,313.6-190.6,326.3-208.4,354.4z"/>
	</defs>
	<clipPath id="SVGID_2_">
		<use xlink:href="#SVGID_1_"  style="overflow:visible;"/>
	</clipPath>
	<g class="st6">
		<path class="st7" d="M-168.1,451.1c-10.1,15.9-38.8,15.8-64.2-0.3c-25.4-16.1-37.8-42-27.8-57.9c10.1-15.9,24.6-24.7,64.2,0.3
			C-156.3,418.3-158,435.2-168.1,451.1"/>
		<path class="st2" d="M-92.9,330.4c-10.1,15.9-38.8,15.8-64.2-0.3c-25.4-16.1-37.8-42-27.8-57.9c10.1-15.9,24.6-24.7,64.2,0.3
			C-81.1,297.5-82.8,314.5-92.9,330.4"/>
	</g>
</g>
<path class="st2" d="M-209,400.6c0.8-1.4,12.9,5.4,11.5,7.3c-1.5,1.9-20.7,27.1-23.9,25.1C-224.6,430.8-209.8,402-209,400.6"/>
</svg>
