<?xml version="1.0" standalone="no"?>
<!DOCTYPE svg PUBLIC "-//W3C//DTD SVG 1.1//EN" "http://www.w3.org/Graphics/SVG/1.1/DTD/svg11.dtd">
<svg width="122px" height="180px" version="1.1" xmlns="http://www.w3.org/2000/svg" xmlns:xlink="http://www.w3.org/1999/xlink" xml:space="preserve" style="fill-rule:evenodd;clip-rule:evenodd;stroke-linejoin:round;stroke-miterlimit:1.41421;">
    <g>
        <g id="Layer 1">
            <g>
                <path d="M92.2839,86.7098C91.4119,89.4768 84.7339,98.4358 80.3899,97.0628C76.0499,95.6908 75.7959,84.2578 76.6699,81.4888C78.4649,79.7458 82.0239,76.7738 86.3679,78.1468C90.7089,79.5178 92.0269,84.0088 92.2839,86.7098" style="fill:rgb(249,186,48);fill-rule:nonzero;"/>
            </g>
            <g>
                <path d="M90.9763,83.6424C90.3323,85.6724 85.1693,93.0324 81.9833,92.0264C78.7973,91.0184 78.7953,82.0304 79.4373,79.9994C80.0793,77.9694 83.1823,77.1404 86.3683,78.1464C89.5523,79.1514 91.6153,81.6124 90.9763,83.6424" style="fill:rgb(244,117,53);fill-rule:nonzero;"/>
            </g>
            <g>
                <path d="M79.0114,44.2039C62.6334,39.0309 51.7104,64.5409 54.6974,67.5589C57.6874,70.5779 69.7464,54.0589 77.8994,63.4329C82.2984,68.4899 83.7594,45.7049 79.0114,44.2039" style="fill:rgb(239,61,55);fill-rule:nonzero;"/>
            </g>
            <g>
                <path d="M110.952,54.2918C127.328,59.4658 121.62,86.6228 117.439,87.3778C113.259,88.1308 112.874,67.6828 100.819,70.6708C94.3129,72.2828 106.203,52.7928 110.952,54.2918" style="fill:rgb(239,61,55);fill-rule:nonzero;"/>
            </g>
            <g>
                <path d="M115.665,44.2801C108.917,65.6411 95.5967,80.4771 85.9087,77.4191C76.2247,74.3581 73.8387,54.5601 80.5877,33.2021C87.3347,11.8401 106.946,-1.00889 110.342,0.0621131C113.737,1.13411 122.412,22.9191 115.665,44.2801" style="fill:rgb(237,223,189);fill-rule:nonzero;"/>
            </g>
            <g>
                <path d="M92.2517,86.8885L76.4107,81.8825L81.7857,71.7605L93.9497,75.6015L92.2517,86.8885Z" style="fill:rgb(62,58,53);fill-rule:nonzero;"/>
            </g>
            <g>
                <path d="M108.621,27.8426C107.433,31.6136 103.41,33.7046 99.6408,32.5136C95.8678,31.3216 93.7758,27.3006 94.9688,23.5296C96.1588,19.7596 100.182,17.6686 103.952,18.8616C107.723,20.0496 109.812,24.0726 108.621,27.8426" style="fill:rgb(62,58,53);fill-rule:nonzero;"/>
            </g>
            <g>
                <path d="M98.8239,19.9715C97.2979,20.7665 96.1709,22.1075 95.6539,23.7475C94.5839,27.1325 96.4679,30.7575 99.8559,31.8265C101.496,32.3455 103.24,32.1945 104.766,31.4015C106.294,30.6065 107.418,29.2675 107.936,27.6265C108.455,25.9845 108.303,24.2425 107.511,22.7155C106.716,21.1895 105.376,20.0635 103.736,19.5455C102.095,19.0275 100.351,19.1785 98.8239,19.9715M105.43,32.6765C103.564,33.6455 101.43,33.8335 99.4239,33.2005C95.2799,31.8915 92.9729,27.4565 94.2819,23.3155C94.9169,21.3065 96.2949,19.6675 98.1609,18.6965C100.028,17.7265 102.163,17.5395 104.169,18.1735C106.175,18.8075 107.814,20.1865 108.785,22.0535C109.757,23.9195 109.941,26.0535 109.308,28.0595C108.674,30.0665 107.299,31.7055 105.43,32.6765" style="fill:white;fill-rule:nonzero;"/>
            </g>
            <g>
                <path d="M101.699,44.5398C100.831,47.2848 97.9029,48.8068 95.1579,47.9388C92.4129,47.0748 90.8909,44.1438 91.7589,41.3988C92.6259,38.6558 95.5549,37.1338 98.2999,37.9998C101.044,38.8658 102.565,41.7948 101.699,44.5398" style="fill:rgb(62,58,53);fill-rule:nonzero;"/>
            </g>
            <g>
                <path d="M94.6569,38.9832C93.5909,39.5382 92.8059,40.4712 92.4429,41.6162C92.0839,42.7622 92.1889,43.9762 92.7409,45.0432C93.2949,46.1062 94.2289,46.8922 95.3749,47.2542C96.5179,47.6152 97.7359,47.5082 98.8019,46.9562C99.8659,46.4022 100.651,45.4672 101.012,44.3232C101.76,41.9612 100.443,39.4312 98.0809,38.6862C96.9369,38.3242 95.7199,38.4282 94.6569,38.9832M99.4649,48.2322C98.0589,48.9622 96.4519,49.1012 94.9419,48.6262C93.4309,48.1492 92.1959,47.1122 91.4669,45.7052C90.7329,44.3012 90.5949,42.6942 91.0729,41.1842C91.5499,39.6732 92.5869,38.4392 93.9919,37.7082C95.3989,36.9762 97.0039,36.8372 98.5129,37.3142C101.632,38.2982 103.368,41.6392 102.385,44.7552C101.908,46.2662 100.869,47.5022 99.4649,48.2322" style="fill:white;fill-rule:nonzero;"/>
            </g>
            <g>
                <clipPath id="tag1">
                    <path d="M80.5871,33.2021C73.8381,54.5601 76.2241,74.3581 85.9091,77.4181C95.5971,80.4781 108.917,65.6411 115.665,44.2801C122.412,22.9191 113.737,1.13411 110.341,0.0631131C110.209,0.0211131 110.054,0.000113115 109.875,0.000113115C105.443,0.00111311 87.0731,12.6691 80.5871,33.2021Z"/>
                </clipPath>
                <g clip-path="url(#tag1)">
                    <path d="M119.13,83.5467C115.699,94.4057 98.8606,98.7687 81.5206,93.2907C64.1786,87.8147 52.8976,74.5697 56.3286,63.7117C59.7576,52.8547 66.9226,45.4367 93.9386,53.9707C120.953,62.5027 122.56,72.6907 119.13,83.5467" style="fill:rgb(198,51,48);fill-rule:nonzero;"/>
                    <path d="M144.489,1.28301C141.06,12.141 124.221,16.503 106.879,11.025C89.537,5.54901 78.261,-7.69499 81.689,-18.551C85.12,-29.41 92.283,-36.827 119.299,-28.295C146.314,-19.763 147.918,-9.57299 144.489,1.28301" style="fill:rgb(239,61,55);fill-rule:nonzero;"/>
                </g>
            </g>
            <g>
                <path d="M87.3933,60.285C87.6643,59.308 95.7833,61.423 95.2193,62.757C94.6543,64.09 87.3123,81.818 85.1143,81.122C82.9173,80.429 87.1213,61.264 87.3933,60.285" style="fill:rgb(239,61,55);fill-rule:nonzero;"/>
            </g>
            <g>
                <path d="M5.80387,179.654L5.27259,179.651L4.7626,179.646L4.27441,179.639L3.80853,179.63L3.36537,179.619L2.94551,179.606L2.54938,179.593L2.17749,179.579L1.83028,179.564L1.50821,179.548L1.21195,179.533L0.941829,179.518L0.698262,179.503L0.481769,179.489L0.292914,179.476L0.129703,179.465L-0.104715,179.446L-25.1041,177.244L-24.7148,172.532L0.222282,174.455L0.182637,174.969L0.22507,174.456L0.310951,174.463L0.507161,174.479L0.645189,174.489L0.813538,174.5L1.00923,174.513L1.23184,174.526L1.4809,174.54L1.75582,174.555L2.05597,174.569L2.38103,174.583L2.73045,174.596L3.10369,174.609L3.50029,174.621L3.91967,174.631L4.36144,174.64L4.825,174.647L5.30991,174.651L5.81564,174.654L6.34337,174.654L6.6123,174.653L6.88771,174.651L7.1679,174.648L7.45288,174.645L7.74259,174.64L8.03696,174.635L8.33593,174.629L8.63936,174.622L8.94728,174.614L9.2596,174.605L9.57621,174.595L9.89711,174.584L10.2222,174.571L10.5514,174.558L10.8848,174.543L11.2222,174.528L11.5635,174.51L11.9086,174.492L12.2577,174.473L12.6105,174.452L12.967,174.429L13.3272,174.406L13.6909,174.38L14.0582,174.354L14.4288,174.326L14.8029,174.296L15.1803,174.265L15.561,174.232L15.9449,174.198L16.3319,174.162L16.722,174.124L17.1151,174.084L17.5112,174.043L17.9101,174L18.3119,173.955L18.7164,173.909L19.1237,173.86L19.5336,173.81L19.946,173.757L20.361,173.703L20.7784,173.646L21.1982,173.588L21.6203,173.528L22.0446,173.465L22.4712,173.4L22.8999,173.333L23.3307,173.264L23.7635,173.193L24.1982,173.119L24.6348,173.043L25.0732,172.965L25.5135,172.885L25.9553,172.802L26.3988,172.716L26.8439,172.629L27.2905,172.538L27.7385,172.446L28.1879,172.35L28.6386,172.252L29.0906,172.152L29.5438,172.049L29.9981,171.943L30.4534,171.835L30.9098,171.723L31.3671,171.609L31.8253,171.493L32.2843,171.373L32.744,171.251L33.2044,171.125L33.6655,170.997L34.1271,170.866L34.5892,170.732L35.0518,170.595L35.5148,170.455L35.978,170.312L36.4433,170.165L36.6734,170.091L36.9053,170.016L37.1372,169.94L37.3691,169.864L37.601,169.786L37.8329,169.708L38.0649,169.629L38.2969,169.549L38.5288,169.469L38.7608,169.387L38.9926,169.305L39.2244,169.222L39.4563,169.138L39.688,169.053L39.9197,168.968L40.1513,168.881L40.3829,168.794L40.6143,168.706L40.8456,168.617L41.0769,168.527L41.3081,168.437L41.5392,168.345L41.77,168.253L42.0008,168.16L42.2315,168.065L42.462,167.971L42.6924,167.875L42.9226,167.778L43.1526,167.68L43.3825,167.582L43.6122,167.483L43.8416,167.382L44.0709,167.281L44.3,167.179L44.5288,167.076L44.7575,166.972L44.986,166.868L45.2141,166.762L45.442,166.655L45.6697,166.548L45.8972,166.439L46.1243,166.33L46.3512,166.22L46.5778,166.109L46.8041,165.996L47.0302,165.883L47.2559,165.769L47.4813,165.654L47.7064,165.538L47.9311,165.421L48.1556,165.304L48.3797,165.185L48.6034,165.065L48.8268,164.944L49.0498,164.822L49.2725,164.7L49.4948,164.576L49.7167,164.451L49.9382,164.326L50.1593,164.199L50.38,164.071L50.6003,163.943L50.8202,163.813L51.0396,163.682L51.2586,163.551L51.4772,163.418L51.6953,163.284L51.9129,163.149L52.1301,163.014L52.3468,162.877L52.563,162.739L52.7789,162.6L52.9941,162.46L53.2089,162.319L53.4231,162.177L53.6369,162.034L53.8501,161.89L54.0628,161.745L54.2749,161.599L54.4866,161.451L54.6977,161.303L54.9082,161.153L55.1181,161.003L55.3275,160.851L55.5363,160.699L55.7445,160.545L55.9521,160.39L56.1592,160.234L56.3656,160.077L56.5714,159.919L56.7766,159.76L56.9812,159.599L57.1852,159.438L57.3885,159.275L57.5911,159.111L57.7931,158.947L57.9945,158.781L58.1952,158.613L58.3952,158.445L58.5945,158.276L58.7931,158.105L58.9911,157.933L59.1884,157.761L59.3849,157.587L59.5807,157.411L59.7758,157.235L59.9703,157.057L60.1639,156.879L60.3568,156.699L60.549,156.518L60.7404,156.336L60.9311,156.152L61.121,155.968L61.3101,155.782L61.4984,155.595L61.686,155.406L61.8728,155.217L62.0587,155.026L62.2439,154.834L62.4282,154.641L62.6118,154.447L62.7945,154.251L62.9764,154.054L63.1574,153.856L63.3376,153.657L63.5169,153.456L63.6953,153.255L63.873,153.052L64.0498,152.847L64.2256,152.642L64.4006,152.435L64.5747,152.226L64.7479,152.017L64.9202,151.806L65.0915,151.594L65.2621,151.381L65.4316,151.166L65.6002,150.95L65.7679,150.733L65.9346,150.514L66.1004,150.294L66.2652,150.073L66.4291,149.85L66.592,149.626L66.7539,149.401L66.9148,149.174L67.0748,148.946L67.2337,148.717L67.3916,148.486L67.5486,148.254L67.7045,148.021L67.8594,147.786L68.0133,147.55L68.1661,147.312L68.3179,147.073L68.4686,146.833L68.6183,146.591L68.767,146.348L68.9145,146.103L69.061,145.857L69.2064,145.61L69.3507,145.361L69.4939,145.11L69.636,144.859L69.7769,144.605L69.9168,144.351L70.0555,144.094L70.1931,143.837L70.3296,143.578L70.4649,143.317L70.5991,143.055L70.7321,142.792L70.8639,142.527L70.9946,142.26L71.1241,141.992L71.2524,141.723L71.3794,141.452L71.5054,141.179L71.63,140.905L71.7535,140.629L71.8757,140.352L71.9967,140.073L72.1165,139.793L72.235,139.511L72.3522,139.228L72.4682,138.943L72.583,138.657L72.6964,138.369L72.8085,138.079L72.9194,137.788L73.029,137.495L73.1372,137.201L73.2442,136.904L73.3498,136.607L73.4541,136.308L73.557,136.007L73.6586,135.704L73.7589,135.4L73.8578,135.094L73.9553,134.787L74.0514,134.478L74.1462,134.167L74.2395,133.855L74.3315,133.541L74.422,133.225L74.5112,132.908L74.5989,132.589L74.6852,132.268L74.77,131.946L74.8534,131.622L74.9353,131.296L75.0158,130.969L75.0948,130.639L75.1723,130.309L75.2483,129.976L75.3228,129.642L75.3958,129.305L75.4673,128.968L75.5373,128.628L75.6057,128.287L75.6727,127.944L75.738,127.599L75.8018,127.252L75.8641,126.904L75.9247,126.554L75.9838,126.202L76.0414,125.848L76.0973,125.493L76.1516,125.136L76.2043,124.776L76.2553,124.416L76.3048,124.053L76.3526,123.688L76.3988,123.322L76.4433,122.954L76.4861,122.584L76.5273,122.212L76.5668,121.839L76.6046,121.463L76.6407,121.086L76.6751,120.707L76.7078,120.326L76.7387,119.943L76.768,119.558L76.7955,119.171L76.8212,118.783L76.8452,118.393L76.8675,118L76.8879,117.606L76.9066,117.21L76.9235,116.812L76.9386,116.412L76.9519,116.011L76.9633,115.607L76.973,115.201L76.9808,114.794L76.9868,114.384L76.9909,113.973L76.9932,113.56L76.9936,113.145L76.9921,112.727L76.9888,112.308L76.9835,111.887L76.9764,111.464L76.9673,111.039L76.9564,110.612L76.9435,110.183L76.9285,109.747L81.9255,109.575L81.9409,110.022L81.9545,110.473L81.966,110.922L81.9755,111.369L81.983,111.814L81.9885,112.257L81.9921,112.699L81.9936,113.138L81.9932,113.576L81.9908,114.012L81.9864,114.446L81.9801,114.878L81.9718,115.309L81.9617,115.737L81.9495,116.164L81.9355,116.589L81.9195,117.012L81.9016,117.434L81.8818,117.854L81.8601,118.271L81.8365,118.687L81.8111,119.102L81.7837,119.514L81.7545,119.925L81.7234,120.334L81.6905,120.741L81.6557,121.146L81.6191,121.55L81.5807,121.952L81.5404,122.352L81.4983,122.75L81.4543,123.147L81.4086,123.542L81.3611,123.935L81.3118,124.326L81.2607,124.716L81.2078,125.104L81.1531,125.49L81.0967,125.874L81.0385,126.257L80.9786,126.638L80.9169,127.017L80.8535,127.395L80.7884,127.771L80.7216,128.145L80.653,128.517L80.5827,128.888L80.5107,129.257L80.4371,129.624L80.3617,129.99L80.2847,130.354L80.206,130.716L80.1256,131.077L80.0436,131.436L79.9599,131.793L79.8746,132.148L79.7876,132.502L79.6991,132.855L79.6089,133.205L79.5171,133.554L79.4236,133.901L79.3286,134.247L79.232,134.591L79.1338,134.933L79.0341,135.274L78.9327,135.613L78.8299,135.95L78.7254,136.286L78.6194,136.62L78.5119,136.952L78.4029,137.283L78.2923,137.612L78.1802,137.94L78.0666,138.266L77.9515,138.59L77.835,138.913L77.7169,139.234L77.5973,139.553L77.4763,139.871L77.3539,140.187L77.2299,140.502L77.1046,140.815L76.9778,141.127L76.8495,141.436L76.7199,141.745L76.5888,142.051L76.4564,142.357L76.3225,142.66L76.1873,142.962L76.0506,143.262L75.9126,143.561L75.7733,143.858L75.6325,144.154L75.4905,144.448L75.3471,144.741L75.2023,145.032L75.0563,145.321L74.9089,145.609L74.7602,145.895L74.6103,146.18L74.459,146.463L74.3064,146.745L74.1526,147.025L73.9975,147.303L73.8412,147.58L73.6836,147.856L73.5248,148.13L73.3648,148.402L73.2035,148.673L73.041,148.943L72.8773,149.21L72.7124,149.477L72.5464,149.742L72.3791,150.005L72.2107,150.267L72.0411,150.527L71.8704,150.786L71.6985,151.043L71.5255,151.299L71.3514,151.554L71.1761,151.806L70.9998,152.058L70.8223,152.308L70.6438,152.556L70.4642,152.803L70.2834,153.049L70.1017,153.293L69.9188,153.535L69.735,153.776L69.5501,154.016L69.3641,154.254L69.1771,154.491L68.9892,154.726L68.8003,154.96L68.6103,155.192L68.4193,155.423L68.2274,155.653L68.0345,155.881L67.8407,156.107L67.6458,156.333L67.4501,156.556L67.2534,156.779L67.0558,157L66.8573,157.219L66.6579,157.438L66.4576,157.654L66.2564,157.87L66.0543,158.084L65.8514,158.296L65.6476,158.508L65.4429,158.718L65.2374,158.926L65.0311,159.133L64.824,159.339L64.616,159.543L64.4072,159.746L64.1976,159.948L63.9872,160.148L63.7761,160.347L63.5642,160.545L63.3515,160.741L63.1381,160.936L62.9239,161.129L62.709,161.322L62.4933,161.513L62.2769,161.702L62.0599,161.89L61.8421,162.077L61.6236,162.263L61.4045,162.448L61.1846,162.631L60.9642,162.812L60.743,162.993L60.5212,163.172L60.2987,163.35L60.0756,163.527L59.852,163.702L59.6276,163.876L59.4027,164.049L59.1771,164.221L58.9511,164.391L58.7243,164.56L58.4971,164.728L58.2692,164.894L58.0409,165.06L57.8119,165.224L57.5824,165.387L57.3524,165.548L57.122,165.709L56.8909,165.868L56.6593,166.026L56.4273,166.183L56.1948,166.339L55.9617,166.493L55.7283,166.646L55.4943,166.798L55.26,166.949L55.0251,167.099L54.7898,167.247L54.5541,167.395L54.318,167.541L54.0814,167.686L53.8445,167.83L53.6072,167.973L53.3694,168.114L53.1312,168.255L52.8928,168.394L52.6539,168.532L52.4148,168.669L52.1752,168.805L51.9353,168.94L51.6951,169.074L51.4546,169.206L51.2136,169.338L50.9725,169.468L50.731,169.597L50.4892,169.726L50.2472,169.853L50.0049,169.979L49.7623,170.104L49.5194,170.228L49.2764,170.35L49.0331,170.472L48.7895,170.593L48.5457,170.713L48.3017,170.831L48.0574,170.949L47.813,171.065L47.5684,171.181L47.3236,171.295L47.0786,171.409L46.8334,171.521L46.5882,171.633L46.3427,171.743L46.097,171.852L45.8513,171.961L45.6054,172.068L45.3593,172.175L45.1132,172.28L44.867,172.384L44.6207,172.488L44.3742,172.59L44.1277,172.692L43.8811,172.793L43.6345,172.892L43.3877,172.991L43.1409,173.089L42.8941,173.185L42.6473,173.281L42.4004,173.376L42.1535,173.47L41.9066,173.563L41.6596,173.655L41.4127,173.746L41.1657,173.837L40.9189,173.926L40.672,174.014L40.4251,174.102L40.1783,174.189L39.9315,174.275L39.6848,174.359L39.4382,174.443L39.1916,174.527L38.9451,174.609L38.6987,174.69L38.4524,174.771L38.2061,174.851L37.9582,174.93L37.4682,175.085L36.9769,175.236L36.4861,175.385L35.996,175.53L35.5067,175.672L35.0181,175.811L34.5303,175.946L34.0434,176.079L33.5574,176.208L33.0725,176.335L32.5888,176.458L32.1061,176.578L31.6245,176.695L31.1443,176.81L30.6654,176.921L30.1879,177.03L29.7118,177.136L29.2371,177.239L28.7642,177.339L28.2927,177.437L27.823,177.532L27.3551,177.624L26.8889,177.714L26.4246,177.801L25.9622,177.886L25.5018,177.968L25.0435,178.047L24.5872,178.125L24.1332,178.199L23.6814,178.272L23.2318,178.342L22.7846,178.41L22.3398,178.475L21.8975,178.539L21.4577,178.6L21.0206,178.659L20.5861,178.716L20.1542,178.771L19.7252,178.824L19.299,178.875L18.8757,178.923L18.4553,178.97L18.038,179.015L17.6237,179.058L17.2126,179.1L16.8047,179.139L16.4001,179.177L15.9987,179.213L15.6008,179.247L15.2063,179.28L14.8152,179.311L14.4278,179.34L14.0439,179.368L13.6638,179.394L13.2875,179.419L12.9148,179.442L12.5461,179.464L12.1814,179.485L11.8205,179.504L11.4637,179.522L11.1111,179.538L10.7627,179.553L10.4184,179.568L10.0784,179.58L9.74284,179.592L9.41162,179.603L9.08493,179.612L8.76275,179.62L8.44516,179.628L8.13226,179.634L7.82407,179.64L7.52064,179.644L7.22203,179.648L6.92831,179.651L6.63959,179.653L6.35431,179.654L5.80387,179.654Z" style="fill:rgb(239,70,68);"/>
            </g>
        </g>
    </g>
</svg>
