<?xml version="1.0" standalone="no"?>
<!DOCTYPE svg PUBLIC "-//W3C//DTD SVG 1.1//EN" "http://www.w3.org/Graphics/SVG/1.1/DTD/svg11.dtd">
<svg width="123px" height="123px" version="1.1" xmlns="http://www.w3.org/2000/svg" xmlns:xlink="http://www.w3.org/1999/xlink" xml:space="preserve" style="fill-rule:evenodd;clip-rule:evenodd;stroke-miterlimit:10;">
    <g>
        <g id="Layer 1">
            <g>
                <path d="M122.51,61.6243C122.51,95.2823 95.3428,122.567 61.8318,122.567C28.3208,122.567 1.1538,95.2823 1.1538,61.6243C1.1538,27.9673 28.3208,0.6833 61.8318,0.6833C95.3428,0.6833 122.51,27.9673 122.51,61.6243Z" style="fill:none;stroke-width:2.02px;stroke:rgb(88,89,91);"/>
            </g>
            <g>
                <path d="M89.167,79.5848L94.33,82.2228C95.633,82.9178 97.905,83.4848 99.382,83.4848L103.852,83.4848C105.327,83.4848 106.21,82.3178 105.816,80.8898L103.906,73.9858C103.512,72.5578 103.512,70.2228 103.906,68.7968L105.816,61.8908C106.21,60.4648 105.327,59.2958 103.852,59.2958L99.382,59.2958C97.905,59.2958 95.633,59.8658 94.33,60.5608L90.016,62.8598" style="fill:none;stroke-width:2.02px;stroke:rgb(88,89,91);"/>
            </g>
            <g>
                <path d="M113.662,64.5364L113.673,64.4904L113.663,64.4904C113.667,64.4284 113.673,64.3694 113.673,64.3074C113.673,62.7964 112.45,61.5684 110.943,61.5684C109.437,61.5684 108.217,62.7964 108.217,64.3074C108.217,64.3694 108.223,64.4284 108.226,64.4904L108.217,64.4904L108.228,64.5404C108.251,64.8134 108.313,65.0784 108.411,65.3224L110.125,72.6184L110.171,72.6184L108.437,79.6664C108.324,79.9314 108.252,80.2184 108.228,80.5164L108.217,80.5644L108.226,80.5644C108.223,80.6244 108.217,80.6864 108.217,80.7464C108.217,82.2594 109.437,83.4854 110.943,83.4854C112.45,83.4854 113.673,82.2594 113.673,80.7464C113.673,80.6864 113.667,80.6244 113.663,80.5644L113.673,80.5644L113.662,80.5134C113.637,80.2394 113.574,79.9774 113.476,79.7304L111.763,72.4364L111.717,72.4364L113.45,65.3874C113.565,65.1214 113.635,64.8364 113.662,64.5364Z" style="fill:none;stroke-width:2.02px;stroke:rgb(88,89,91);"/>
            </g>
            <g>
                <path d="M114.544,72.4525C114.544,74.2235 113.114,75.6585 111.353,75.6585L104.375,75.6585C102.613,75.6585 101.184,74.2235 101.184,72.4525C101.184,70.6815 102.613,69.2475 104.375,69.2475L111.353,69.2475C113.114,69.2475 114.544,70.6815 114.544,72.4525" style="fill:white;fill-rule:nonzero;stroke-width:2.02px;stroke:rgb(88,89,91);"/>
            </g>
            <g>
                <path d="M90.957,71.9183C90.957,79.8403 84.563,86.2633 76.675,86.2633L33.547,86.2633C25.659,86.2633 15.819,80.9873 15.819,70.9503C15.819,60.9113 25.659,54.3853 33.547,54.3853L76.675,54.3853C84.563,54.3853 90.957,60.8083 90.957,68.7303L90.957,71.9183Z" style="fill:none;stroke-width:2.02px;stroke:rgb(88,89,91);"/>
            </g>
            <g>
                <path d="M37.8398,70.3939C37.8398,72.8769 35.8338,74.8939 33.3578,74.8939C30.8818,74.8939 28.8768,72.8769 28.8768,70.3939C28.8768,67.9049 30.8818,65.8909 33.3578,65.8909C35.8338,65.8909 37.8398,67.9049 37.8398,70.3939Z" style="fill:none;stroke-width:2.02px;stroke:rgb(88,89,91);"/>
            </g>
            <g>
                <path d="M52.2822,70.3939C52.2822,72.8769 50.2752,74.8939 47.8012,74.8939C45.3252,74.8939 43.3182,72.8769 43.3182,70.3939C43.3182,67.9049 45.3252,65.8909 47.8012,65.8909C50.2752,65.8909 52.2822,67.9049 52.2822,70.3939Z" style="fill:none;stroke-width:2.02px;stroke:rgb(88,89,91);"/>
            </g>
            <g>
                <path d="M66.7236,70.3939C66.7236,72.8769 64.7166,74.8939 62.2406,74.8939C59.7656,74.8939 57.7596,72.8769 57.7596,70.3939C57.7596,67.9049 59.7656,65.8909 62.2406,65.8909C64.7166,65.8909 66.7236,67.9049 66.7236,70.3939Z" style="fill:none;stroke-width:2.02px;stroke:rgb(88,89,91);"/>
            </g>
            <g>
                <path d="M81.165,70.3939C81.165,72.8769 79.158,74.8939 76.684,74.8939C74.207,74.8939 72.201,72.8769 72.201,70.3939C72.201,67.9049 74.207,65.8909 76.684,65.8909C79.158,65.8909 81.165,67.9049 81.165,70.3939Z" style="fill:none;stroke-width:2.02px;stroke:rgb(88,89,91);"/>
            </g>
            <g>
                <clipPath id="tag1">
                    <path d="M1.386,60.983C1.386,94.641 28.552,121.926 62.065,121.926C95.575,121.926 122.742,94.641 122.742,60.983C122.742,27.325 95.575,0.041 62.065,0.041C28.552,0.041 1.386,27.325 1.386,60.983Z"/>
                </clipPath>
                <g clip-path="url(#tag1)">
                    <path d="M3.1396,28.3035C5.9826,28.3035 9.0196,32.3045 12.2516,32.3045C15.1336,32.3045 18.1716,28.3035 21.3646,28.3035C24.2726,28.3025 27.3096,32.3045 30.4756,32.3045C33.4026,32.3045 36.4396,28.3025 39.5856,28.3025C42.5276,28.3025 45.5646,32.3035 48.6976,32.3035C51.6506,32.3035 54.6876,28.3025 57.8106,28.3015C60.7726,28.3015 63.8106,32.3035 66.9246,32.3035C69.8926,32.3035 72.9296,28.3015 76.0356,28.3015C79.0106,28.3015 82.0486,32.3035 85.1506,32.3035C88.1296,32.3035 91.1666,28.3015 94.2636,28.3015C97.2476,28.3015 100.288,32.3035 103.382,32.3025C106.371,32.3025 109.411,28.3005 112.502,28.3005" style="fill:none;stroke-width:2.02px;stroke:rgb(88,89,91);"/>
                </g>
            </g>
            <g>
                <path d="M42.9961,54.3856L43.7471,20.7506L47.7811,20.7286L48.2191,14.0946C45.4901,14.0926 37.8401,12.9086 37.8401,18.0016C37.8401,26.0746 37.0001,54.3856 37.0001,54.3856" style="fill:none;stroke-width:2.02px;stroke:rgb(88,89,91);"/>
            </g>
        </g>
    </g>
</svg>
