<?xml version="1.0" standalone="no"?>
<!DOCTYPE svg PUBLIC "-//W3C//DTD SVG 1.1//EN" "http://www.w3.org/Graphics/SVG/1.1/DTD/svg11.dtd">
<svg width="21px" height="21px" version="1.1" xmlns="http://www.w3.org/2000/svg" xmlns:xlink="http://www.w3.org/1999/xlink" xml:space="preserve" style="fill-rule:evenodd;clip-rule:evenodd;stroke-linejoin:round;stroke-miterlimit:1.41421;">
    <g>
        <g id="All glyphs">
            <g>
                <path d="M10.8607,20.1923L2.9925,20.1923L2.9925,1.2012L11.5893,1.2012C14.0797,1.2012 16.3774,2.7864 16.3774,5.58246C16.3774,7.74139 15.1722,9.21987 13.6347,9.67926L13.6347,9.73502C15.9144,10.2056 17.5425,11.4438 17.5425,14.4312C17.5425,17.1956 15.6604,20.1923 10.8607,20.1923ZM11.8918,12.3176C11.2744,11.9582 10.4166,11.9582 9.71885,11.9582L7.42913,11.9582L7.42913,16.676L9.53109,16.676C10.309,16.676 11.3012,16.7318 11.9721,16.2608C12.5879,15.8463 12.9366,15.0331 12.9366,14.2579C12.9366,13.5385 12.5077,12.6775 11.8918,12.3176ZM11.0284,8.28825C11.538,7.90027 11.8052,7.20858 11.8052,6.57145C11.8052,5.87936 11.4838,5.21495 10.8944,4.85506C10.2777,4.49557 9.15074,4.57862 8.42695,4.57862L7.42913,4.57862L7.42913,8.73119L8.74872,8.73119C9.49939,8.73119 10.3849,8.78655 11.0284,8.28825Z" style="fill:white;"/>
            </g>
        </g>
    </g>
</svg>
